M48
INCH,TZ
T1C0.0118
T2C0.0197
T3C0.0315
T4C0.0315
T5C0.0354
T6C0.0433
T7C0.0453
T8C0.0472
T9C0.0630
T10C0.1260
%
G90
G05
T1
X49134Y-40866
X49213Y-43150
X49213Y-44724
X49311Y-49705
X49409Y-33465
X49508Y-51181
X49606Y-31201
X50098Y-30118
X50197Y-32382
X50236Y-40709
X50591Y-42323
X50945Y-47244
X51181Y-50000
X51550Y-27598
X51772Y-32087
X51929Y-35433
X52037Y-33967
X52165Y-36969
X52411Y-33455
X52520Y-34764
X52717Y-47874
X53031Y-34213
X53061Y-35838
X53189Y-51693
X53543Y-50315
X53740Y-33957
X53740Y-34449
X53740Y-36319
X53740Y-38681
X53898Y-27598
X53937Y-28189
X54094Y-47480
X54213Y-29291
X54331Y-31457
X54362Y-32315
X54429Y-37008
X54449Y-34528
X54528Y-46575
X54606Y-30118
X54626Y-38189
X54724Y-35335
X54774Y-34537
X54961Y-50669
X55315Y-39862
X55630Y-39862
X55945Y-39862
X55955Y-29961
X56260Y-39862
X56496Y-29035
X56890Y-39862
X57087Y-39173
X57185Y-28248
X57480Y-27165
X57559Y-30512
X57717Y-37992
X57776Y-38681
X57795Y-31299
X58365Y-32018
X58366Y-31693
X58819Y-30315
X59047Y-40386
X59173Y-38189
X59213Y-35472
X59528Y-33661
X59803Y-29291
X60236Y-25984
X63307Y-35472
X63425Y-39409
X63425Y-43346
X63425Y-47323
X63425Y-51260
X67598Y-34724
X68701Y-40059
X68898Y-52756
X69587Y-41043
X69587Y-42618
X70472Y-52362
X71260Y-51575
T3
X45984Y-35768
X50224Y-43780
X50224Y-50984
X67795Y-42726
X67795Y-49931
T4
X52667Y-25659
X54045Y-25659
T5
X64340Y-33532
X64340Y-35895
X65324Y-33532
X65324Y-35895
X66308Y-33532
X66308Y-35895
T6
X45768Y-43457
X45768Y-44457
X45768Y-45457
X45768Y-46457
X45768Y-47457
X45768Y-48457
X45768Y-49457
X45768Y-50457
X47736Y-43457
X47736Y-44457
X47736Y-45457
X47736Y-46457
X47736Y-47457
X47736Y-48457
X47736Y-49457
X47736Y-50457
X61713Y-24705
X61713Y-26476
X64272Y-24705
X64272Y-26476
X67618Y-24744
X67618Y-26516
X70177Y-24744
X70177Y-26516
X70283Y-43240
X70283Y-44240
X70283Y-45240
X70283Y-46240
X70283Y-47240
X70283Y-48240
X70283Y-49240
X70283Y-50240
X72251Y-43240
X72251Y-44240
X72251Y-45240
X72251Y-46240
X72251Y-47240
X72251Y-48240
X72251Y-49240
X72251Y-50240
T7
X57874Y-51181
X57874Y-53150
X59843Y-51181
X59843Y-53150
X70866Y-33720
X70866Y-35689
X72835Y-33720
X72835Y-35689
T8
X57677Y-40094
X57677Y-48094
T9
X60630Y-37402
X60630Y-39402
X60630Y-41402
X60630Y-43402
T10
X44882Y-25197
X44882Y-53543
X73228Y-25197
X73228Y-53543
T2
G00X74348Y-28701
M15
G01X74073Y-28701
M16
G05
G00X74348Y-31299
M15
G01X74073Y-31299
M16
G05
M30
