G04 #@! TF.GenerationSoftware,KiCad,Pcbnew,8.0.8+1*
G04 #@! TF.CreationDate,2025-01-29T22:04:47+00:00*
G04 #@! TF.ProjectId,dcclicht,6463636c-6963-4687-942e-6b696361645f,rev?*
G04 #@! TF.SameCoordinates,Original*
G04 #@! TF.FileFunction,Soldermask,Bot*
G04 #@! TF.FilePolarity,Negative*
%FSLAX46Y46*%
G04 Gerber Fmt 4.6, Leading zero omitted, Abs format (unit mm)*
G04 Created by KiCad (PCBNEW 8.0.8+1) date 2025-01-29 22:04:47*
%MOMM*%
%LPD*%
G01*
G04 APERTURE LIST*
%ADD10C,5.500000*%
%ADD11R,1.800000X1.800000*%
%ADD12C,1.800000*%
%ADD13O,3.200000X1.800000*%
%ADD14R,1.600000X1.600000*%
%ADD15C,1.600000*%
%ADD16R,3.000000X1.500000*%
%ADD17O,3.000000X1.500000*%
%ADD18C,2.400000*%
%ADD19O,2.400000X2.400000*%
%ADD20C,2.000000*%
%ADD21C,2.374900*%
%ADD22C,0.990600*%
%ADD23O,1.600000X0.900000*%
%ADD24R,3.200000X3.200000*%
%ADD25C,3.200000*%
%ADD26R,1.500000X3.000000*%
%ADD27O,1.500000X3.000000*%
G04 APERTURE END LIST*
D10*
X114000000Y-64000000D03*
X186000000Y-136000000D03*
D11*
X168422500Y-91172500D03*
D12*
X165922500Y-91172500D03*
X163422500Y-91172500D03*
X168422500Y-85172500D03*
X165922500Y-85172500D03*
X163422500Y-85172500D03*
G36*
G01*
X119900000Y-109480000D02*
X122600000Y-109480000D01*
G75*
G02*
X122850000Y-109730000I0J-250000D01*
G01*
X122850000Y-111030000D01*
G75*
G02*
X122600000Y-111280000I-250000J0D01*
G01*
X119900000Y-111280000D01*
G75*
G02*
X119650000Y-111030000I0J250000D01*
G01*
X119650000Y-109730000D01*
G75*
G02*
X119900000Y-109480000I250000J0D01*
G01*
G37*
G36*
G01*
X114900000Y-109480000D02*
X117600000Y-109480000D01*
G75*
G02*
X117850000Y-109730000I0J-250000D01*
G01*
X117850000Y-111030000D01*
G75*
G02*
X117600000Y-111280000I-250000J0D01*
G01*
X114900000Y-111280000D01*
G75*
G02*
X114650000Y-111030000I0J250000D01*
G01*
X114650000Y-109730000D01*
G75*
G02*
X114900000Y-109480000I250000J0D01*
G01*
G37*
D13*
X121250000Y-112920000D03*
X116250000Y-112920000D03*
X121250000Y-115460000D03*
X116250000Y-115460000D03*
X121250000Y-118000000D03*
X116250000Y-118000000D03*
X121250000Y-120540000D03*
X116250000Y-120540000D03*
X121250000Y-123080000D03*
X116250000Y-123080000D03*
X121250000Y-125620000D03*
X116250000Y-125620000D03*
X121250000Y-128160000D03*
X116250000Y-128160000D03*
D14*
X133775000Y-65175000D03*
D15*
X137275000Y-65175000D03*
D16*
X180000000Y-90650000D03*
X185000000Y-90650000D03*
D17*
X180000000Y-85650000D03*
X185000000Y-85650000D03*
D18*
X146500000Y-101840000D03*
D19*
X146500000Y-122160000D03*
G36*
G01*
X179867960Y-128510000D02*
X177167960Y-128510000D01*
G75*
G02*
X176917960Y-128260000I0J250000D01*
G01*
X176917960Y-126960000D01*
G75*
G02*
X177167960Y-126710000I250000J0D01*
G01*
X179867960Y-126710000D01*
G75*
G02*
X180117960Y-126960000I0J-250000D01*
G01*
X180117960Y-128260000D01*
G75*
G02*
X179867960Y-128510000I-250000J0D01*
G01*
G37*
G36*
G01*
X184867960Y-128510000D02*
X182167960Y-128510000D01*
G75*
G02*
X181917960Y-128260000I0J250000D01*
G01*
X181917960Y-126960000D01*
G75*
G02*
X182167960Y-126710000I250000J0D01*
G01*
X184867960Y-126710000D01*
G75*
G02*
X185117960Y-126960000I0J-250000D01*
G01*
X185117960Y-128260000D01*
G75*
G02*
X184867960Y-128510000I-250000J0D01*
G01*
G37*
D13*
X178517960Y-125070000D03*
X183517960Y-125070000D03*
X178517960Y-122530000D03*
X183517960Y-122530000D03*
X178517960Y-119990000D03*
X183517960Y-119990000D03*
X178517960Y-117450000D03*
X183517960Y-117450000D03*
X178517960Y-114910000D03*
X183517960Y-114910000D03*
X178517960Y-112370000D03*
X183517960Y-112370000D03*
X178517960Y-109830000D03*
X183517960Y-109830000D03*
D10*
X114000000Y-136000000D03*
D20*
X171750000Y-62850000D03*
X178250000Y-62850000D03*
X171750000Y-67350000D03*
X178250000Y-67350000D03*
D10*
X186000000Y-64000000D03*
D21*
X151135000Y-68175000D03*
D22*
X151135000Y-65635000D03*
D21*
X151135000Y-63095000D03*
X147960000Y-68175000D03*
X147960000Y-63095000D03*
D22*
X146055000Y-66651000D03*
X146055000Y-64619000D03*
D20*
X156750000Y-62750000D03*
X163250000Y-62750000D03*
X156750000Y-67250000D03*
X163250000Y-67250000D03*
D23*
X188495000Y-79500000D03*
X188495000Y-72900000D03*
D24*
X154000000Y-110240000D03*
D25*
X154000000Y-105160000D03*
X154000000Y-100080000D03*
X154000000Y-95000000D03*
D26*
X147000000Y-130000000D03*
X147000000Y-135000000D03*
D27*
X152000000Y-130000000D03*
X152000000Y-135000000D03*
M02*
