M48
; DRILL file {KiCad 8.0.8+1} date 2025-03-08T00:06:38+0000
; FORMAT={-:-/ absolute / metric / decimal}
; #@! TF.CreationDate,2025-03-08T00:06:38+00:00
; #@! TF.GenerationSoftware,Kicad,Pcbnew,8.0.8+1
; #@! TF.FileFunction,MixedPlating,1,2
FMAT,2
METRIC
; #@! TA.AperFunction,Plated,PTH,ViaDrill
T1C0.300
; #@! TA.AperFunction,Plated,PTH,ComponentDrill
T2C0.500
; #@! TA.AperFunction,Plated,PTH,ViaDrill
T3C0.800
; #@! TA.AperFunction,Plated,PTH,ComponentDrill
T4C0.800
; #@! TA.AperFunction,Plated,PTH,ComponentDrill
T5C0.900
; #@! TA.AperFunction,Plated,PTH,ComponentDrill
T6C1.100
; #@! TA.AperFunction,Plated,PTH,ComponentDrill
T7C1.150
; #@! TA.AperFunction,Plated,PTH,ComponentDrill
T8C1.200
; #@! TA.AperFunction,Plated,PTH,ComponentDrill
T9C1.600
; #@! TA.AperFunction,Plated,PTH,ComponentDrill
T10C3.200
; #@! TA.AperFunction,NonPlated,NPTH,ComponentDrill
T11C0.991
; #@! TA.AperFunction,NonPlated,NPTH,ComponentDrill
T12C2.375
%
G90
G05
T1
X124.8Y-103.8
X125.0Y-109.6
X125.0Y-113.6
X125.25Y-126.25
X125.5Y-85.0
X125.75Y-130.0
X126.0Y-79.25
X127.25Y-76.5
X127.5Y-82.25
X127.6Y-103.4
X128.5Y-107.5
X129.4Y-120.0
X130.0Y-127.0
X130.938Y-70.1
X131.5Y-81.5
X131.9Y-90.0
X132.175Y-86.275
X132.5Y-93.9
X133.125Y-84.975
X133.4Y-88.3
X133.9Y-121.6
X134.7Y-86.9
X134.775Y-91.027
X135.1Y-131.3
X136.0Y-127.8
X136.5Y-86.25
X136.5Y-87.5
X136.5Y-92.25
X136.5Y-98.25
X136.9Y-70.1
X137.0Y-71.6
X137.4Y-120.6
X137.7Y-74.4
X138.0Y-79.9
X138.079Y-82.079
X138.25Y-94.0
X138.3Y-87.7
X138.5Y-118.3
X138.7Y-76.5
X138.75Y-97.0
X139.0Y-89.75
X139.125Y-87.724
X139.6Y-128.7
X140.5Y-101.25
X141.3Y-101.25
X142.1Y-101.25
X142.125Y-76.1
X142.9Y-101.25
X143.5Y-73.75
X144.5Y-101.25
X145.0Y-99.5
X145.25Y-71.75
X146.0Y-69.0
X146.2Y-77.5
X146.6Y-96.5
X146.75Y-98.25
X146.8Y-79.5
X148.247Y-81.325
X148.25Y-80.5
X149.4Y-77.0
X149.98Y-102.58
X150.3Y-97.0
X150.4Y-90.1
X151.2Y-85.5
X151.9Y-74.4
X153.0Y-66.0
X160.8Y-90.1
X161.1Y-100.1
X161.1Y-110.1
X161.1Y-120.2
X161.1Y-130.2
X171.7Y-88.2
X174.5Y-101.75
X175.0Y-134.0
X176.75Y-104.25
X176.75Y-108.25
X179.0Y-133.0
X181.0Y-131.0
T3
X116.8Y-90.85
X127.568Y-111.2
X127.568Y-129.5
X172.2Y-108.525
X172.2Y-126.825
T4
X133.775Y-65.175
X137.275Y-65.175
T5
X163.422Y-85.172
X163.422Y-91.172
X165.922Y-85.172
X165.922Y-91.172
X168.422Y-85.172
X168.422Y-91.172
T6
X116.25Y-110.38
X116.25Y-112.92
X116.25Y-115.46
X116.25Y-118.0
X116.25Y-120.54
X116.25Y-123.08
X116.25Y-125.62
X116.25Y-128.16
X121.25Y-110.38
X121.25Y-112.92
X121.25Y-115.46
X121.25Y-118.0
X121.25Y-120.54
X121.25Y-123.08
X121.25Y-125.62
X121.25Y-128.16
X156.75Y-62.75
X156.75Y-67.25
X163.25Y-62.75
X163.25Y-67.25
X171.75Y-62.85
X171.75Y-67.35
X178.25Y-62.85
X178.25Y-67.35
X178.518Y-109.83
X178.518Y-112.37
X178.518Y-114.91
X178.518Y-117.45
X178.518Y-119.99
X178.518Y-122.53
X178.518Y-125.07
X178.518Y-127.61
X183.518Y-109.83
X183.518Y-112.37
X183.518Y-114.91
X183.518Y-117.45
X183.518Y-119.99
X183.518Y-122.53
X183.518Y-125.07
X183.518Y-127.61
T7
X147.0Y-130.0
X147.0Y-135.0
X152.0Y-130.0
X152.0Y-135.0
X180.0Y-85.65
X180.0Y-90.65
X185.0Y-85.65
X185.0Y-90.65
T8
X146.5Y-101.84
X146.5Y-122.16
T9
X154.0Y-95.0
X154.0Y-100.08
X154.0Y-105.16
X154.0Y-110.24
T10
X114.0Y-64.0
X114.0Y-136.0
X186.0Y-64.0
X186.0Y-136.0
T11
X146.055Y-64.619
X146.055Y-66.651
X151.135Y-65.635
T12
X147.96Y-63.095
X147.96Y-68.175
X151.135Y-63.095
X151.135Y-68.175
T2
G00X188.845Y-72.9
M15
G01X188.145Y-72.9
M16
G05
G00X188.845Y-79.5
M15
G01X188.145Y-79.5
M16
G05
M30
