%TF.GenerationSoftware,KiCad,Pcbnew,8.0.8+1*%
%TF.CreationDate,2025-03-01T17:33:29+00:00*%
%TF.ProjectId,dcclicht,6463636c-6963-4687-942e-6b696361645f,rev?*%
%TF.SameCoordinates,Original*%
%TF.FileFunction,Plated,1,2,PTH,Mixed*%
%TF.FilePolarity,Positive*%
%FSLAX46Y46*%
G04 Gerber Fmt 4.6, Leading zero omitted, Abs format (unit mm)*
G04 Created by KiCad (PCBNEW 8.0.8+1) date 2025-03-01 17:33:29*
%MOMM*%
%LPD*%
G01*
G04 APERTURE LIST*
%TA.AperFunction,ViaDrill*%
%ADD10C,0.300000*%
%TD*%
G04 aperture for slot hole*
%TA.AperFunction,ComponentDrill*%
%ADD11C,0.500000*%
%TD*%
%TA.AperFunction,ViaDrill*%
%ADD12C,0.800000*%
%TD*%
%TA.AperFunction,ComponentDrill*%
%ADD13C,0.800000*%
%TD*%
%TA.AperFunction,ComponentDrill*%
%ADD14C,0.900000*%
%TD*%
%TA.AperFunction,ComponentDrill*%
%ADD15C,1.100000*%
%TD*%
%TA.AperFunction,ComponentDrill*%
%ADD16C,1.150000*%
%TD*%
%TA.AperFunction,ComponentDrill*%
%ADD17C,1.200000*%
%TD*%
%TA.AperFunction,ComponentDrill*%
%ADD18C,1.600000*%
%TD*%
%TA.AperFunction,ComponentDrill*%
%ADD19C,3.200000*%
%TD*%
G04 APERTURE END LIST*
D10*
X124800000Y-103800000D03*
X125000000Y-109600000D03*
X125000000Y-113600000D03*
X125250000Y-126250000D03*
X125500000Y-85000000D03*
X125750000Y-130000000D03*
X126000000Y-79250000D03*
X127250000Y-76500000D03*
X127500000Y-82250000D03*
X127600000Y-103400000D03*
X128500000Y-107500000D03*
X129400000Y-120000000D03*
X130000000Y-127000000D03*
X130937651Y-70100000D03*
X131500000Y-81500000D03*
X131900000Y-90000000D03*
X132175000Y-86275000D03*
X132500000Y-93900000D03*
X133125000Y-84975000D03*
X133400000Y-88300000D03*
X133900000Y-121600000D03*
X134700000Y-86900000D03*
X134775000Y-91027308D03*
X135100000Y-131300000D03*
X136000000Y-127800000D03*
X136500000Y-86250000D03*
X136500000Y-87500000D03*
X136500000Y-92250000D03*
X136500000Y-98250000D03*
X136900000Y-70100000D03*
X137000000Y-71600000D03*
X137400000Y-120600000D03*
X137700000Y-74400000D03*
X138000000Y-79900000D03*
X138079440Y-82079440D03*
X138250000Y-94000000D03*
X138300000Y-87700000D03*
X138500000Y-118300000D03*
X138700000Y-76500000D03*
X138750000Y-97000000D03*
X139000000Y-89750000D03*
X139125000Y-87723527D03*
X139600000Y-128700000D03*
X140500000Y-101250000D03*
X141300000Y-101250000D03*
X142100000Y-101250000D03*
X142125000Y-76100000D03*
X142900000Y-101250000D03*
X143500000Y-73750000D03*
X144500000Y-101250000D03*
X145000000Y-99500000D03*
X145250000Y-71750000D03*
X146000000Y-69000000D03*
X146200000Y-77500000D03*
X146600000Y-96500000D03*
X146750000Y-98250000D03*
X146800000Y-79500000D03*
X147606498Y-80825000D03*
X148246851Y-81325000D03*
X149400000Y-77000000D03*
X149980331Y-102580331D03*
X150300000Y-97000000D03*
X150400000Y-90100000D03*
X151200000Y-85500000D03*
X151900000Y-74400000D03*
X153000000Y-66000000D03*
X160800000Y-90100000D03*
X161100000Y-100100000D03*
X161100000Y-110100000D03*
X161100000Y-120200000D03*
X161100000Y-130200000D03*
X171700000Y-88200000D03*
X174500000Y-101750000D03*
X175000000Y-134000000D03*
X176750000Y-104250000D03*
X176750000Y-108250000D03*
X179000000Y-133000000D03*
X181000000Y-131000000D03*
D11*
%TO.C,J301*%
X188145000Y-72900000D02*
X188845000Y-72900000D01*
X188145000Y-79500000D02*
X188845000Y-79500000D01*
%TD*%
D12*
X116800000Y-90850000D03*
X127567960Y-111200000D03*
X127567960Y-129500000D03*
X172200000Y-108525000D03*
X172200000Y-126825000D03*
D13*
%TO.C,C110*%
X133775000Y-65175000D03*
X137275000Y-65175000D03*
D14*
%TO.C,SW101*%
X163422500Y-85172500D03*
X163422500Y-91172500D03*
X165922500Y-85172500D03*
X165922500Y-91172500D03*
X168422500Y-85172500D03*
X168422500Y-91172500D03*
D15*
%TO.C,J202*%
X116250000Y-110380000D03*
X116250000Y-112920000D03*
X116250000Y-115460000D03*
X116250000Y-118000000D03*
X116250000Y-120540000D03*
X116250000Y-123080000D03*
X116250000Y-125620000D03*
X116250000Y-128160000D03*
X121250000Y-110380000D03*
X121250000Y-112920000D03*
X121250000Y-115460000D03*
X121250000Y-118000000D03*
X121250000Y-120540000D03*
X121250000Y-123080000D03*
X121250000Y-125620000D03*
X121250000Y-128160000D03*
%TO.C,SW102*%
X156750000Y-62750000D03*
X156750000Y-67250000D03*
X163250000Y-62750000D03*
X163250000Y-67250000D03*
%TO.C,SW103*%
X171750000Y-62850000D03*
X171750000Y-67350000D03*
X178250000Y-62850000D03*
X178250000Y-67350000D03*
%TO.C,J201*%
X178517960Y-109830000D03*
X178517960Y-112370000D03*
X178517960Y-114910000D03*
X178517960Y-117450000D03*
X178517960Y-119990000D03*
X178517960Y-122530000D03*
X178517960Y-125070000D03*
X178517960Y-127610000D03*
X183517960Y-109830000D03*
X183517960Y-112370000D03*
X183517960Y-114910000D03*
X183517960Y-117450000D03*
X183517960Y-119990000D03*
X183517960Y-122530000D03*
X183517960Y-125070000D03*
X183517960Y-127610000D03*
D16*
%TO.C,J101*%
X147000000Y-130000000D03*
X147000000Y-135000000D03*
X152000000Y-130000000D03*
X152000000Y-135000000D03*
%TO.C,J103*%
X180000000Y-85650000D03*
X180000000Y-90650000D03*
X185000000Y-85650000D03*
X185000000Y-90650000D03*
D17*
%TO.C,R108*%
X146500000Y-101840000D03*
X146500000Y-122160000D03*
D18*
%TO.C,D102*%
X154000000Y-95000000D03*
X154000000Y-100080000D03*
X154000000Y-105160000D03*
X154000000Y-110240000D03*
D19*
%TO.C,H101*%
X114000000Y-64000000D03*
%TO.C,H104*%
X114000000Y-136000000D03*
%TO.C,H102*%
X186000000Y-64000000D03*
%TO.C,H103*%
X186000000Y-136000000D03*
M02*
