M48
; DRILL file {KiCad 8.0.8+1} date 2025-03-08T00:06:57+0000
; FORMAT={-:-/ absolute / inch / decimal}
; #@! TF.CreationDate,2025-03-08T00:06:57+00:00
; #@! TF.GenerationSoftware,Kicad,Pcbnew,8.0.8+1
; #@! TF.FileFunction,Plated,1,2,PTH
FMAT,2
INCH
; #@! TA.AperFunction,Plated,PTH,ViaDrill
T1C0.0118
; #@! TA.AperFunction,Plated,PTH,ComponentDrill
T2C0.0197
; #@! TA.AperFunction,Plated,PTH,ViaDrill
T3C0.0315
; #@! TA.AperFunction,Plated,PTH,ComponentDrill
T4C0.0315
; #@! TA.AperFunction,Plated,PTH,ComponentDrill
T5C0.0354
; #@! TA.AperFunction,Plated,PTH,ComponentDrill
T6C0.0433
; #@! TA.AperFunction,Plated,PTH,ComponentDrill
T7C0.0453
; #@! TA.AperFunction,Plated,PTH,ComponentDrill
T8C0.0472
; #@! TA.AperFunction,Plated,PTH,ComponentDrill
T9C0.0630
; #@! TA.AperFunction,Plated,PTH,ComponentDrill
T10C0.1260
%
G90
G05
T1
X4.9134Y-4.0866
X4.9213Y-4.315
X4.9213Y-4.4724
X4.9311Y-4.9705
X4.9409Y-3.3465
X4.9508Y-5.1181
X4.9606Y-3.1201
X5.0098Y-3.0118
X5.0197Y-3.2382
X5.0236Y-4.0709
X5.0591Y-4.2323
X5.0945Y-4.7244
X5.1181Y-5.0
X5.155Y-2.7598
X5.1772Y-3.2087
X5.1929Y-3.5433
X5.2037Y-3.3967
X5.2165Y-3.6969
X5.2411Y-3.3455
X5.252Y-3.4764
X5.2717Y-4.7874
X5.3031Y-3.4213
X5.3061Y-3.5838
X5.3189Y-5.1693
X5.3543Y-5.0315
X5.374Y-3.3957
X5.374Y-3.4449
X5.374Y-3.6319
X5.374Y-3.8681
X5.3898Y-2.7598
X5.3937Y-2.8189
X5.4094Y-4.748
X5.4213Y-2.9291
X5.4331Y-3.1457
X5.4362Y-3.2315
X5.4429Y-3.7008
X5.4449Y-3.4528
X5.4528Y-4.6575
X5.4606Y-3.0118
X5.4626Y-3.8189
X5.4724Y-3.5335
X5.4774Y-3.4537
X5.4961Y-5.0669
X5.5315Y-3.9862
X5.563Y-3.9862
X5.5945Y-3.9862
X5.5955Y-2.9961
X5.626Y-3.9862
X5.6496Y-2.9035
X5.689Y-3.9862
X5.7087Y-3.9173
X5.7185Y-2.8248
X5.748Y-2.7165
X5.7559Y-3.0512
X5.7717Y-3.7992
X5.7776Y-3.8681
X5.7795Y-3.1299
X5.8365Y-3.2018
X5.8366Y-3.1693
X5.8819Y-3.0315
X5.9047Y-4.0386
X5.9173Y-3.8189
X5.9213Y-3.5472
X5.9528Y-3.3661
X5.9803Y-2.9291
X6.0236Y-2.5984
X6.3307Y-3.5472
X6.3425Y-3.9409
X6.3425Y-4.3346
X6.3425Y-4.7323
X6.3425Y-5.126
X6.7598Y-3.4724
X6.8701Y-4.0059
X6.8898Y-5.2756
X6.9587Y-4.1043
X6.9587Y-4.2618
X7.0472Y-5.2362
X7.126Y-5.1575
T3
X4.5984Y-3.5768
X5.0224Y-4.378
X5.0224Y-5.0984
X6.7795Y-4.2726
X6.7795Y-4.9931
T4
X5.2667Y-2.5659
X5.4045Y-2.5659
T5
X6.434Y-3.3532
X6.434Y-3.5895
X6.5324Y-3.3532
X6.5324Y-3.5895
X6.6308Y-3.3532
X6.6308Y-3.5895
T6
X4.5768Y-4.3457
X4.5768Y-4.4457
X4.5768Y-4.5457
X4.5768Y-4.6457
X4.5768Y-4.7457
X4.5768Y-4.8457
X4.5768Y-4.9457
X4.5768Y-5.0457
X4.7736Y-4.3457
X4.7736Y-4.4457
X4.7736Y-4.5457
X4.7736Y-4.6457
X4.7736Y-4.7457
X4.7736Y-4.8457
X4.7736Y-4.9457
X4.7736Y-5.0457
X6.1713Y-2.4705
X6.1713Y-2.6476
X6.4272Y-2.4705
X6.4272Y-2.6476
X6.7618Y-2.4744
X6.7618Y-2.6516
X7.0177Y-2.4744
X7.0177Y-2.6516
X7.0283Y-4.324
X7.0283Y-4.424
X7.0283Y-4.524
X7.0283Y-4.624
X7.0283Y-4.724
X7.0283Y-4.824
X7.0283Y-4.924
X7.0283Y-5.024
X7.2251Y-4.324
X7.2251Y-4.424
X7.2251Y-4.524
X7.2251Y-4.624
X7.2251Y-4.724
X7.2251Y-4.824
X7.2251Y-4.924
X7.2251Y-5.024
T7
X5.7874Y-5.1181
X5.7874Y-5.315
X5.9843Y-5.1181
X5.9843Y-5.315
X7.0866Y-3.372
X7.0866Y-3.5689
X7.2835Y-3.372
X7.2835Y-3.5689
T8
X5.7677Y-4.0094
X5.7677Y-4.8094
T9
X6.063Y-3.7402
X6.063Y-3.9402
X6.063Y-4.1402
X6.063Y-4.3402
T10
X4.4882Y-2.5197
X4.4882Y-5.3543
X7.3228Y-2.5197
X7.3228Y-5.3543
T2
G00X7.4348Y-2.8701
M15
G01X7.4073Y-2.8701
M16
G05
G00X7.4348Y-3.1299
M15
G01X7.4073Y-3.1299
M16
G05
M30
