%TF.GenerationSoftware,KiCad,Pcbnew,8.0.8+1*%
%TF.CreationDate,2025-01-29T22:05:02+00:00*%
%TF.ProjectId,dcclicht,6463636c-6963-4687-942e-6b696361645f,rev?*%
%TF.SameCoordinates,Original*%
%TF.FileFunction,Soldermask,Top*%
%TF.FilePolarity,Negative*%
%FSLAX46Y46*%
G04 Gerber Fmt 4.6, Leading zero omitted, Abs format (unit mm)*
G04 Created by KiCad (PCBNEW 8.0.8+1) date 2025-01-29 22:05:02*
%MOMM*%
%LPD*%
G01*
G04 APERTURE LIST*
G04 Aperture macros list*
%AMRoundRect*
0 Rectangle with rounded corners*
0 $1 Rounding radius*
0 $2 $3 $4 $5 $6 $7 $8 $9 X,Y pos of 4 corners*
0 Add a 4 corners polygon primitive as box body*
4,1,4,$2,$3,$4,$5,$6,$7,$8,$9,$2,$3,0*
0 Add four circle primitives for the rounded corners*
1,1,$1+$1,$2,$3*
1,1,$1+$1,$4,$5*
1,1,$1+$1,$6,$7*
1,1,$1+$1,$8,$9*
0 Add four rect primitives between the rounded corners*
20,1,$1+$1,$2,$3,$4,$5,0*
20,1,$1+$1,$4,$5,$6,$7,0*
20,1,$1+$1,$6,$7,$8,$9,0*
20,1,$1+$1,$8,$9,$2,$3,0*%
G04 Aperture macros list end*
%ADD10RoundRect,0.135000X-0.185000X0.135000X-0.185000X-0.135000X0.185000X-0.135000X0.185000X0.135000X0*%
%ADD11C,5.500000*%
%ADD12RoundRect,0.250000X-1.450000X0.312500X-1.450000X-0.312500X1.450000X-0.312500X1.450000X0.312500X0*%
%ADD13R,1.800000X1.800000*%
%ADD14C,1.800000*%
%ADD15RoundRect,0.135000X0.135000X0.185000X-0.135000X0.185000X-0.135000X-0.185000X0.135000X-0.185000X0*%
%ADD16R,1.500000X1.000000*%
%ADD17RoundRect,0.150000X-0.587500X-0.150000X0.587500X-0.150000X0.587500X0.150000X-0.587500X0.150000X0*%
%ADD18RoundRect,0.150000X0.150000X-0.512500X0.150000X0.512500X-0.150000X0.512500X-0.150000X-0.512500X0*%
%ADD19RoundRect,0.250000X-0.325000X-0.650000X0.325000X-0.650000X0.325000X0.650000X-0.325000X0.650000X0*%
%ADD20RoundRect,0.135000X-0.135000X-0.185000X0.135000X-0.185000X0.135000X0.185000X-0.135000X0.185000X0*%
%ADD21RoundRect,0.250000X1.450000X-0.312500X1.450000X0.312500X-1.450000X0.312500X-1.450000X-0.312500X0*%
%ADD22RoundRect,0.250000X-1.350000X0.650000X-1.350000X-0.650000X1.350000X-0.650000X1.350000X0.650000X0*%
%ADD23O,3.200000X1.800000*%
%ADD24RoundRect,0.135000X0.185000X-0.135000X0.185000X0.135000X-0.185000X0.135000X-0.185000X-0.135000X0*%
%ADD25RoundRect,0.250000X0.650000X-1.000000X0.650000X1.000000X-0.650000X1.000000X-0.650000X-1.000000X0*%
%ADD26RoundRect,0.250000X-0.625000X0.312500X-0.625000X-0.312500X0.625000X-0.312500X0.625000X0.312500X0*%
%ADD27RoundRect,0.150000X-0.825000X-0.150000X0.825000X-0.150000X0.825000X0.150000X-0.825000X0.150000X0*%
%ADD28R,2.000000X1.780000*%
%ADD29RoundRect,0.150000X0.587500X0.150000X-0.587500X0.150000X-0.587500X-0.150000X0.587500X-0.150000X0*%
%ADD30R,1.600000X1.600000*%
%ADD31C,1.600000*%
%ADD32R,0.300000X0.750000*%
%ADD33R,1.500000X1.300000*%
%ADD34R,2.000000X4.500000*%
%ADD35RoundRect,0.140000X0.140000X0.170000X-0.140000X0.170000X-0.140000X-0.170000X0.140000X-0.170000X0*%
%ADD36RoundRect,0.218750X0.256250X-0.218750X0.256250X0.218750X-0.256250X0.218750X-0.256250X-0.218750X0*%
%ADD37RoundRect,0.075000X-0.662500X-0.075000X0.662500X-0.075000X0.662500X0.075000X-0.662500X0.075000X0*%
%ADD38RoundRect,0.075000X-0.075000X-0.662500X0.075000X-0.662500X0.075000X0.662500X-0.075000X0.662500X0*%
%ADD39RoundRect,0.140000X0.170000X-0.140000X0.170000X0.140000X-0.170000X0.140000X-0.170000X-0.140000X0*%
%ADD40R,3.000000X1.500000*%
%ADD41O,3.000000X1.500000*%
%ADD42RoundRect,0.218750X-0.218750X-0.256250X0.218750X-0.256250X0.218750X0.256250X-0.218750X0.256250X0*%
%ADD43C,2.400000*%
%ADD44O,2.400000X2.400000*%
%ADD45RoundRect,0.250000X1.350000X-0.650000X1.350000X0.650000X-1.350000X0.650000X-1.350000X-0.650000X0*%
%ADD46RoundRect,0.250000X-0.650000X1.000000X-0.650000X-1.000000X0.650000X-1.000000X0.650000X1.000000X0*%
%ADD47RoundRect,0.140000X-0.170000X0.140000X-0.170000X-0.140000X0.170000X-0.140000X0.170000X0.140000X0*%
%ADD48RoundRect,0.225000X-0.225000X-0.250000X0.225000X-0.250000X0.225000X0.250000X-0.225000X0.250000X0*%
%ADD49R,1.800000X1.000000*%
%ADD50RoundRect,0.140000X-0.140000X-0.170000X0.140000X-0.170000X0.140000X0.170000X-0.140000X0.170000X0*%
%ADD51RoundRect,0.150000X-0.150000X0.675000X-0.150000X-0.675000X0.150000X-0.675000X0.150000X0.675000X0*%
%ADD52RoundRect,0.112500X-0.112500X0.187500X-0.112500X-0.187500X0.112500X-0.187500X0.112500X0.187500X0*%
%ADD53RoundRect,0.225000X0.250000X-0.225000X0.250000X0.225000X-0.250000X0.225000X-0.250000X-0.225000X0*%
%ADD54C,2.000000*%
%ADD55RoundRect,0.250000X2.475000X-0.712500X2.475000X0.712500X-2.475000X0.712500X-2.475000X-0.712500X0*%
%ADD56RoundRect,0.112500X-0.187500X-0.112500X0.187500X-0.112500X0.187500X0.112500X-0.187500X0.112500X0*%
%ADD57C,2.374900*%
%ADD58C,0.990600*%
%ADD59C,0.787400*%
%ADD60RoundRect,0.100000X0.575000X-0.100000X0.575000X0.100000X-0.575000X0.100000X-0.575000X-0.100000X0*%
%ADD61O,1.600000X0.900000*%
%ADD62RoundRect,0.250000X0.450000X-0.550000X0.450000X0.550000X-0.450000X0.550000X-0.450000X-0.550000X0*%
%ADD63RoundRect,0.250000X0.700000X-0.700000X0.700000X0.700000X-0.700000X0.700000X-0.700000X-0.700000X0*%
%ADD64RoundRect,0.375000X-0.625000X-0.375000X0.625000X-0.375000X0.625000X0.375000X-0.625000X0.375000X0*%
%ADD65RoundRect,0.500000X-0.500000X-1.400000X0.500000X-1.400000X0.500000X1.400000X-0.500000X1.400000X0*%
%ADD66R,3.200000X3.200000*%
%ADD67C,3.200000*%
%ADD68R,1.500000X3.000000*%
%ADD69O,1.500000X3.000000*%
%ADD70RoundRect,0.150000X-0.512500X-0.150000X0.512500X-0.150000X0.512500X0.150000X-0.512500X0.150000X0*%
G04 APERTURE END LIST*
D10*
%TO.C,R205*%
X161100000Y-103490000D03*
X161100000Y-104510000D03*
%TD*%
D11*
%TO.C,H101*%
X114000000Y-64000000D03*
%TD*%
D12*
%TO.C,F202*%
X172200000Y-121362500D03*
X172200000Y-125637500D03*
%TD*%
D11*
%TO.C,H103*%
X186000000Y-136000000D03*
%TD*%
D13*
%TO.C,SW101*%
X168422500Y-91172500D03*
D14*
X165922500Y-91172500D03*
X163422500Y-91172500D03*
X168422500Y-85172500D03*
X165922500Y-85172500D03*
X163422500Y-85172500D03*
%TD*%
D15*
%TO.C,R109*%
X152210000Y-86400000D03*
X151190000Y-86400000D03*
%TD*%
D16*
%TO.C,JP101*%
X138800000Y-71400000D03*
X138800000Y-70100000D03*
%TD*%
D17*
%TO.C,Q101*%
X148562500Y-97300000D03*
X148562500Y-99200000D03*
X150437500Y-98250000D03*
%TD*%
D18*
%TO.C,U301*%
X166100000Y-74200000D03*
X168000000Y-74200000D03*
X167050000Y-71925000D03*
%TD*%
D19*
%TO.C,C107*%
X116750000Y-76575000D03*
X119700000Y-76575000D03*
%TD*%
D20*
%TO.C,R105*%
X128967651Y-65175000D03*
X129987651Y-65175000D03*
%TD*%
D21*
%TO.C,F201*%
X172200000Y-132137500D03*
X172200000Y-127862500D03*
%TD*%
D22*
%TO.C,J202*%
X121250000Y-110380000D03*
X116250000Y-110380000D03*
D23*
X121250000Y-112920000D03*
X116250000Y-112920000D03*
X121250000Y-115460000D03*
X116250000Y-115460000D03*
X121250000Y-118000000D03*
X116250000Y-118000000D03*
X121250000Y-120540000D03*
X116250000Y-120540000D03*
X121250000Y-123080000D03*
X116250000Y-123080000D03*
X121250000Y-125620000D03*
X116250000Y-125620000D03*
X121250000Y-128160000D03*
X116250000Y-128160000D03*
%TD*%
D24*
%TO.C,R203*%
X161100000Y-122110000D03*
X161100000Y-121090000D03*
%TD*%
D25*
%TO.C,D208*%
X131567960Y-105890000D03*
X131567960Y-101890000D03*
%TD*%
%TO.C,D205*%
X131567960Y-135890000D03*
X131567960Y-131890000D03*
%TD*%
D26*
%TO.C,R112*%
X173000000Y-90687500D03*
X173000000Y-93612500D03*
%TD*%
D27*
%TO.C,U105*%
X154025000Y-86345000D03*
X154025000Y-87615000D03*
X154025000Y-88885000D03*
X154025000Y-90155000D03*
X158975000Y-90155000D03*
X158975000Y-88885000D03*
X158975000Y-87615000D03*
X158975000Y-86345000D03*
%TD*%
D25*
%TO.C,D202*%
X168200000Y-116000000D03*
X168200000Y-112000000D03*
%TD*%
D17*
%TO.C,Q204*%
X163162500Y-133050000D03*
X163162500Y-134950000D03*
X165037500Y-134000000D03*
%TD*%
D19*
%TO.C,C105*%
X116750000Y-87175000D03*
X119700000Y-87175000D03*
%TD*%
D28*
%TO.C,U102*%
X143015000Y-92270000D03*
X143015000Y-89730000D03*
X133485000Y-89730000D03*
X133485000Y-92270000D03*
%TD*%
D10*
%TO.C,R211*%
X138667960Y-115780000D03*
X138667960Y-116800000D03*
%TD*%
D24*
%TO.C,R101*%
X112700000Y-80620000D03*
X112700000Y-79600000D03*
%TD*%
D21*
%TO.C,F206*%
X127567960Y-116527500D03*
X127567960Y-112252500D03*
%TD*%
D29*
%TO.C,Q206*%
X136605460Y-124840000D03*
X136605460Y-122940000D03*
X134730460Y-123890000D03*
%TD*%
D30*
%TO.C,C110*%
X133775000Y-65175000D03*
D31*
X137275000Y-65175000D03*
%TD*%
D32*
%TO.C,U106*%
X142275000Y-72175000D03*
X141775000Y-72175000D03*
X141275000Y-72175000D03*
X140775000Y-72175000D03*
X140775000Y-75075000D03*
X141275000Y-75075000D03*
X141775000Y-75075000D03*
X142275000Y-75075000D03*
D33*
X141525000Y-73625000D03*
%TD*%
D17*
%TO.C,Q201*%
X163162500Y-103050000D03*
X163162500Y-104950000D03*
X165037500Y-104000000D03*
%TD*%
D34*
%TO.C,Y101*%
X128975000Y-85925000D03*
X128975000Y-77425000D03*
%TD*%
D35*
%TO.C,C111*%
X130055000Y-74175000D03*
X129095000Y-74175000D03*
%TD*%
D26*
%TO.C,R110*%
X173000000Y-82787500D03*
X173000000Y-85712500D03*
%TD*%
D12*
%TO.C,F207*%
X127567960Y-122752500D03*
X127567960Y-127027500D03*
%TD*%
D36*
%TO.C,D101*%
X112700000Y-78175000D03*
X112700000Y-76600000D03*
%TD*%
D35*
%TO.C,C115*%
X173480000Y-88250000D03*
X172520000Y-88250000D03*
%TD*%
D37*
%TO.C,U104*%
X136812500Y-79425000D03*
X136812500Y-79925000D03*
X136812500Y-80425000D03*
X136812500Y-80925000D03*
X136812500Y-81425000D03*
X136812500Y-81925000D03*
X136812500Y-82425000D03*
X136812500Y-82925000D03*
X136812500Y-83425000D03*
X136812500Y-83925000D03*
X136812500Y-84425000D03*
X136812500Y-84925000D03*
D38*
X138225000Y-86337500D03*
X138725000Y-86337500D03*
X139225000Y-86337500D03*
X139725000Y-86337500D03*
X140225000Y-86337500D03*
X140725000Y-86337500D03*
X141225000Y-86337500D03*
X141725000Y-86337500D03*
X142225000Y-86337500D03*
X142725000Y-86337500D03*
X143225000Y-86337500D03*
X143725000Y-86337500D03*
D37*
X145137500Y-84925000D03*
X145137500Y-84425000D03*
X145137500Y-83925000D03*
X145137500Y-83425000D03*
X145137500Y-82925000D03*
X145137500Y-82425000D03*
X145137500Y-81925000D03*
X145137500Y-81425000D03*
X145137500Y-80925000D03*
X145137500Y-80425000D03*
X145137500Y-79925000D03*
X145137500Y-79425000D03*
D38*
X143725000Y-78012500D03*
X143225000Y-78012500D03*
X142725000Y-78012500D03*
X142225000Y-78012500D03*
X141725000Y-78012500D03*
X141225000Y-78012500D03*
X140725000Y-78012500D03*
X140225000Y-78012500D03*
X139725000Y-78012500D03*
X139225000Y-78012500D03*
X138725000Y-78012500D03*
X138225000Y-78012500D03*
%TD*%
D29*
%TO.C,Q207*%
X136605460Y-114840000D03*
X136605460Y-112940000D03*
X134730460Y-113890000D03*
%TD*%
D39*
%TO.C,C116*%
X154600000Y-67280000D03*
X154600000Y-66320000D03*
%TD*%
D40*
%TO.C,J103*%
X180000000Y-90650000D03*
X185000000Y-90650000D03*
D41*
X180000000Y-85650000D03*
X185000000Y-85650000D03*
%TD*%
D15*
%TO.C,R111*%
X152210000Y-90100000D03*
X151190000Y-90100000D03*
%TD*%
D42*
%TO.C,D301*%
X166412500Y-76200000D03*
X167987500Y-76200000D03*
%TD*%
D39*
%TO.C,C117*%
X169500000Y-67280000D03*
X169500000Y-66320000D03*
%TD*%
D29*
%TO.C,Q205*%
X136605460Y-134840000D03*
X136605460Y-132940000D03*
X134730460Y-133890000D03*
%TD*%
D10*
%TO.C,R212*%
X138667960Y-105780000D03*
X138667960Y-106800000D03*
%TD*%
D43*
%TO.C,R108*%
X146500000Y-101840000D03*
D44*
X146500000Y-122160000D03*
%TD*%
D24*
%TO.C,R215*%
X138667960Y-114400000D03*
X138667960Y-113380000D03*
%TD*%
D20*
%TO.C,R301*%
X163900000Y-76200000D03*
X164920000Y-76200000D03*
%TD*%
D10*
%TO.C,R207*%
X161100000Y-123490000D03*
X161100000Y-124510000D03*
%TD*%
D29*
%TO.C,Q208*%
X136605460Y-104840000D03*
X136605460Y-102940000D03*
X134730460Y-103890000D03*
%TD*%
D39*
%TO.C,C102*%
X145375000Y-78055000D03*
X145375000Y-77095000D03*
%TD*%
D45*
%TO.C,J201*%
X178517960Y-127610000D03*
X183517960Y-127610000D03*
D23*
X178517960Y-125070000D03*
X183517960Y-125070000D03*
X178517960Y-122530000D03*
X183517960Y-122530000D03*
X178517960Y-119990000D03*
X183517960Y-119990000D03*
X178517960Y-117450000D03*
X183517960Y-117450000D03*
X178517960Y-114910000D03*
X183517960Y-114910000D03*
X178517960Y-112370000D03*
X183517960Y-112370000D03*
X178517960Y-109830000D03*
X183517960Y-109830000D03*
%TD*%
D28*
%TO.C,U103*%
X133485000Y-95730000D03*
X133485000Y-98270000D03*
X143015000Y-98270000D03*
X143015000Y-95730000D03*
%TD*%
D46*
%TO.C,D204*%
X168200000Y-132000000D03*
X168200000Y-136000000D03*
%TD*%
D17*
%TO.C,Q202*%
X163162500Y-113050000D03*
X163162500Y-114950000D03*
X165037500Y-114000000D03*
%TD*%
D24*
%TO.C,R202*%
X161100000Y-112110000D03*
X161100000Y-111090000D03*
%TD*%
%TO.C,R214*%
X138667960Y-124400000D03*
X138667960Y-123380000D03*
%TD*%
D47*
%TO.C,C104*%
X144875000Y-86595000D03*
X144875000Y-87555000D03*
%TD*%
D11*
%TO.C,H104*%
X114000000Y-136000000D03*
%TD*%
D17*
%TO.C,Q203*%
X163162500Y-123050000D03*
X163162500Y-124950000D03*
X165037500Y-124000000D03*
%TD*%
D48*
%TO.C,C301*%
X167100000Y-69900000D03*
X168650000Y-69900000D03*
%TD*%
D24*
%TO.C,R204*%
X161100000Y-132110000D03*
X161100000Y-131090000D03*
%TD*%
D35*
%TO.C,C112*%
X129955000Y-89175000D03*
X128995000Y-89175000D03*
%TD*%
D42*
%TO.C,FB301*%
X186112500Y-70700000D03*
X187687500Y-70700000D03*
%TD*%
D49*
%TO.C,Y102*%
X133675000Y-77325000D03*
X133675000Y-74825000D03*
%TD*%
D24*
%TO.C,R216*%
X138667960Y-104400000D03*
X138667960Y-103380000D03*
%TD*%
D10*
%TO.C,R209*%
X138667960Y-135780000D03*
X138667960Y-136800000D03*
%TD*%
D50*
%TO.C,C113*%
X133195000Y-73375000D03*
X134155000Y-73375000D03*
%TD*%
D10*
%TO.C,R208*%
X161100000Y-133490000D03*
X161100000Y-134510000D03*
%TD*%
D12*
%TO.C,F205*%
X127567960Y-105752500D03*
X127567960Y-110027500D03*
%TD*%
D50*
%TO.C,C109*%
X128997651Y-70025000D03*
X129957651Y-70025000D03*
%TD*%
D10*
%TO.C,R102*%
X139300000Y-73090000D03*
X139300000Y-74110000D03*
%TD*%
D50*
%TO.C,C106*%
X117745000Y-89175000D03*
X118705000Y-89175000D03*
%TD*%
D25*
%TO.C,D207*%
X131567960Y-115890000D03*
X131567960Y-111890000D03*
%TD*%
D51*
%TO.C,U302*%
X176205000Y-72075000D03*
X174935000Y-72075000D03*
X173665000Y-72075000D03*
X172395000Y-72075000D03*
X172395000Y-77325000D03*
X173665000Y-77325000D03*
X174935000Y-77325000D03*
X176205000Y-77325000D03*
%TD*%
D39*
%TO.C,C303*%
X169300000Y-77180000D03*
X169300000Y-76220000D03*
%TD*%
D52*
%TO.C,D103*%
X150950000Y-103050000D03*
X150950000Y-105150000D03*
%TD*%
D53*
%TO.C,C302*%
X170600000Y-77275000D03*
X170600000Y-75725000D03*
%TD*%
D12*
%TO.C,F204*%
X172200000Y-101862500D03*
X172200000Y-106137500D03*
%TD*%
D24*
%TO.C,R104*%
X131400000Y-92200000D03*
X131400000Y-91180000D03*
%TD*%
D54*
%TO.C,SW103*%
X171750000Y-62850000D03*
X178250000Y-62850000D03*
X171750000Y-67350000D03*
X178250000Y-67350000D03*
%TD*%
D24*
%TO.C,R201*%
X161100000Y-102110000D03*
X161100000Y-101090000D03*
%TD*%
D55*
%TO.C,F101*%
X155000000Y-122387500D03*
X155000000Y-115612500D03*
%TD*%
D56*
%TO.C,D104*%
X128427651Y-68275000D03*
X130527651Y-68275000D03*
%TD*%
D46*
%TO.C,D201*%
X168200000Y-102000000D03*
X168200000Y-106000000D03*
%TD*%
D50*
%TO.C,C108*%
X117645000Y-74675000D03*
X118605000Y-74675000D03*
%TD*%
D46*
%TO.C,D203*%
X168200000Y-122000000D03*
X168200000Y-126000000D03*
%TD*%
D10*
%TO.C,R107*%
X131400000Y-94680000D03*
X131400000Y-95700000D03*
%TD*%
%TO.C,R210*%
X138667960Y-125780000D03*
X138667960Y-126800000D03*
%TD*%
D11*
%TO.C,H102*%
X186000000Y-64000000D03*
%TD*%
D50*
%TO.C,C114*%
X133195000Y-78875000D03*
X134155000Y-78875000D03*
%TD*%
D57*
%TO.C,J102*%
X151135000Y-68175000D03*
D58*
X151135000Y-65635000D03*
D57*
X151135000Y-63095000D03*
X147960000Y-68175000D03*
X147960000Y-63095000D03*
D58*
X146055000Y-66651000D03*
X146055000Y-64619000D03*
D59*
X149865000Y-65000000D03*
X149865000Y-66270000D03*
X148595000Y-65000000D03*
X148595000Y-66270000D03*
X147325000Y-65000000D03*
X147325000Y-66270000D03*
%TD*%
D54*
%TO.C,SW102*%
X156750000Y-62750000D03*
X163250000Y-62750000D03*
X156750000Y-67250000D03*
X163250000Y-67250000D03*
%TD*%
D24*
%TO.C,R103*%
X150950000Y-101735000D03*
X150950000Y-100715000D03*
%TD*%
D46*
%TO.C,D206*%
X131567960Y-121890000D03*
X131567960Y-125890000D03*
%TD*%
D39*
%TO.C,C101*%
X137175000Y-77755000D03*
X137175000Y-76795000D03*
%TD*%
D60*
%TO.C,J301*%
X185820000Y-77500000D03*
X185820000Y-76850000D03*
X185820000Y-76200000D03*
X185820000Y-75550000D03*
X185820000Y-74900000D03*
D61*
X188495000Y-79500000D03*
D62*
X186045000Y-79400000D03*
D63*
X188495000Y-77400000D03*
X188495000Y-75000000D03*
D62*
X186045000Y-73000000D03*
D61*
X188495000Y-72900000D03*
%TD*%
D24*
%TO.C,R213*%
X138667960Y-134400000D03*
X138667960Y-133380000D03*
%TD*%
D21*
%TO.C,F203*%
X172200000Y-115137500D03*
X172200000Y-110862500D03*
%TD*%
D47*
%TO.C,C304*%
X176200000Y-79200000D03*
X176200000Y-80160000D03*
%TD*%
D10*
%TO.C,R206*%
X161100000Y-113490000D03*
X161100000Y-114510000D03*
%TD*%
%TO.C,R106*%
X134975000Y-81155000D03*
X134975000Y-82175000D03*
%TD*%
D64*
%TO.C,U101*%
X116725000Y-79575000D03*
X116725000Y-81875000D03*
D65*
X123025000Y-81875000D03*
D64*
X116725000Y-84175000D03*
%TD*%
D66*
%TO.C,D102*%
X154000000Y-110240000D03*
D67*
X154000000Y-105160000D03*
X154000000Y-100080000D03*
X154000000Y-95000000D03*
%TD*%
D35*
%TO.C,C103*%
X135055000Y-83475000D03*
X134095000Y-83475000D03*
%TD*%
D21*
%TO.C,F208*%
X127567960Y-136027500D03*
X127567960Y-131752500D03*
%TD*%
D68*
%TO.C,J101*%
X147000000Y-130000000D03*
X147000000Y-135000000D03*
D69*
X152000000Y-130000000D03*
X152000000Y-135000000D03*
%TD*%
D70*
%TO.C,U303*%
X179862500Y-75550000D03*
X179862500Y-76500000D03*
X179862500Y-77450000D03*
X182137500Y-77450000D03*
X182137500Y-76500000D03*
X182137500Y-75550000D03*
%TD*%
M02*
