%TF.GenerationSoftware,KiCad,Pcbnew,8.0.8+1*%
%TF.CreationDate,2025-01-29T22:05:02+00:00*%
%TF.ProjectId,dcclicht,6463636c-6963-4687-942e-6b696361645f,rev?*%
%TF.SameCoordinates,Original*%
%TF.FileFunction,Soldermask,Bot*%
%TF.FilePolarity,Negative*%
%FSLAX46Y46*%
G04 Gerber Fmt 4.6, Leading zero omitted, Abs format (unit mm)*
G04 Created by KiCad (PCBNEW 8.0.8+1) date 2025-01-29 22:05:02*
%MOMM*%
%LPD*%
G01*
G04 APERTURE LIST*
G04 Aperture macros list*
%AMRoundRect*
0 Rectangle with rounded corners*
0 $1 Rounding radius*
0 $2 $3 $4 $5 $6 $7 $8 $9 X,Y pos of 4 corners*
0 Add a 4 corners polygon primitive as box body*
4,1,4,$2,$3,$4,$5,$6,$7,$8,$9,$2,$3,0*
0 Add four circle primitives for the rounded corners*
1,1,$1+$1,$2,$3*
1,1,$1+$1,$4,$5*
1,1,$1+$1,$6,$7*
1,1,$1+$1,$8,$9*
0 Add four rect primitives between the rounded corners*
20,1,$1+$1,$2,$3,$4,$5,0*
20,1,$1+$1,$4,$5,$6,$7,0*
20,1,$1+$1,$6,$7,$8,$9,0*
20,1,$1+$1,$8,$9,$2,$3,0*%
G04 Aperture macros list end*
%ADD10C,5.500000*%
%ADD11R,1.800000X1.800000*%
%ADD12C,1.800000*%
%ADD13RoundRect,0.250000X-1.350000X0.650000X-1.350000X-0.650000X1.350000X-0.650000X1.350000X0.650000X0*%
%ADD14O,3.200000X1.800000*%
%ADD15R,1.600000X1.600000*%
%ADD16C,1.600000*%
%ADD17R,3.000000X1.500000*%
%ADD18O,3.000000X1.500000*%
%ADD19C,2.400000*%
%ADD20O,2.400000X2.400000*%
%ADD21RoundRect,0.250000X1.350000X-0.650000X1.350000X0.650000X-1.350000X0.650000X-1.350000X-0.650000X0*%
%ADD22C,2.000000*%
%ADD23C,2.374900*%
%ADD24C,0.990600*%
%ADD25O,1.600000X0.900000*%
%ADD26R,3.200000X3.200000*%
%ADD27C,3.200000*%
%ADD28R,1.500000X3.000000*%
%ADD29O,1.500000X3.000000*%
G04 APERTURE END LIST*
D10*
%TO.C,H101*%
X114000000Y-64000000D03*
%TD*%
%TO.C,H103*%
X186000000Y-136000000D03*
%TD*%
D11*
%TO.C,SW101*%
X168422500Y-91172500D03*
D12*
X165922500Y-91172500D03*
X163422500Y-91172500D03*
X168422500Y-85172500D03*
X165922500Y-85172500D03*
X163422500Y-85172500D03*
%TD*%
D13*
%TO.C,J202*%
X121250000Y-110380000D03*
X116250000Y-110380000D03*
D14*
X121250000Y-112920000D03*
X116250000Y-112920000D03*
X121250000Y-115460000D03*
X116250000Y-115460000D03*
X121250000Y-118000000D03*
X116250000Y-118000000D03*
X121250000Y-120540000D03*
X116250000Y-120540000D03*
X121250000Y-123080000D03*
X116250000Y-123080000D03*
X121250000Y-125620000D03*
X116250000Y-125620000D03*
X121250000Y-128160000D03*
X116250000Y-128160000D03*
%TD*%
D15*
%TO.C,C110*%
X133775000Y-65175000D03*
D16*
X137275000Y-65175000D03*
%TD*%
D17*
%TO.C,J103*%
X180000000Y-90650000D03*
X185000000Y-90650000D03*
D18*
X180000000Y-85650000D03*
X185000000Y-85650000D03*
%TD*%
D19*
%TO.C,R108*%
X146500000Y-101840000D03*
D20*
X146500000Y-122160000D03*
%TD*%
D21*
%TO.C,J201*%
X178517960Y-127610000D03*
X183517960Y-127610000D03*
D14*
X178517960Y-125070000D03*
X183517960Y-125070000D03*
X178517960Y-122530000D03*
X183517960Y-122530000D03*
X178517960Y-119990000D03*
X183517960Y-119990000D03*
X178517960Y-117450000D03*
X183517960Y-117450000D03*
X178517960Y-114910000D03*
X183517960Y-114910000D03*
X178517960Y-112370000D03*
X183517960Y-112370000D03*
X178517960Y-109830000D03*
X183517960Y-109830000D03*
%TD*%
D10*
%TO.C,H104*%
X114000000Y-136000000D03*
%TD*%
D22*
%TO.C,SW103*%
X171750000Y-62850000D03*
X178250000Y-62850000D03*
X171750000Y-67350000D03*
X178250000Y-67350000D03*
%TD*%
D10*
%TO.C,H102*%
X186000000Y-64000000D03*
%TD*%
D23*
%TO.C,J102*%
X151135000Y-68175000D03*
D24*
X151135000Y-65635000D03*
D23*
X151135000Y-63095000D03*
X147960000Y-68175000D03*
X147960000Y-63095000D03*
D24*
X146055000Y-66651000D03*
X146055000Y-64619000D03*
%TD*%
D22*
%TO.C,SW102*%
X156750000Y-62750000D03*
X163250000Y-62750000D03*
X156750000Y-67250000D03*
X163250000Y-67250000D03*
%TD*%
D25*
%TO.C,J301*%
X188495000Y-79500000D03*
X188495000Y-72900000D03*
%TD*%
D26*
%TO.C,D102*%
X154000000Y-110240000D03*
D27*
X154000000Y-105160000D03*
X154000000Y-100080000D03*
X154000000Y-95000000D03*
%TD*%
D28*
%TO.C,J101*%
X147000000Y-130000000D03*
X147000000Y-135000000D03*
D29*
X152000000Y-130000000D03*
X152000000Y-135000000D03*
%TD*%
M02*
