%TF.GenerationSoftware,KiCad,Pcbnew,8.0.8+1*%
%TF.CreationDate,2025-01-29T22:05:02+00:00*%
%TF.ProjectId,dcclicht,6463636c-6963-4687-942e-6b696361645f,rev?*%
%TF.SameCoordinates,Original*%
%TF.FileFunction,OtherDrawing,Comment*%
%FSLAX46Y46*%
G04 Gerber Fmt 4.6, Leading zero omitted, Abs format (unit mm)*
G04 Created by KiCad (PCBNEW 8.0.8+1) date 2025-01-29 22:05:02*
%MOMM*%
%LPD*%
G01*
G04 APERTURE LIST*
%ADD10C,0.075000*%
%ADD11C,0.100000*%
G04 APERTURE END LIST*
D10*
X189522409Y-77902380D02*
X189022409Y-77902380D01*
X189022409Y-77902380D02*
X189022409Y-77711904D01*
X189022409Y-77711904D02*
X189046219Y-77664285D01*
X189046219Y-77664285D02*
X189070028Y-77640475D01*
X189070028Y-77640475D02*
X189117647Y-77616666D01*
X189117647Y-77616666D02*
X189189076Y-77616666D01*
X189189076Y-77616666D02*
X189236695Y-77640475D01*
X189236695Y-77640475D02*
X189260504Y-77664285D01*
X189260504Y-77664285D02*
X189284314Y-77711904D01*
X189284314Y-77711904D02*
X189284314Y-77902380D01*
X189474790Y-77116666D02*
X189498600Y-77140475D01*
X189498600Y-77140475D02*
X189522409Y-77211904D01*
X189522409Y-77211904D02*
X189522409Y-77259523D01*
X189522409Y-77259523D02*
X189498600Y-77330951D01*
X189498600Y-77330951D02*
X189450980Y-77378570D01*
X189450980Y-77378570D02*
X189403361Y-77402380D01*
X189403361Y-77402380D02*
X189308123Y-77426189D01*
X189308123Y-77426189D02*
X189236695Y-77426189D01*
X189236695Y-77426189D02*
X189141457Y-77402380D01*
X189141457Y-77402380D02*
X189093838Y-77378570D01*
X189093838Y-77378570D02*
X189046219Y-77330951D01*
X189046219Y-77330951D02*
X189022409Y-77259523D01*
X189022409Y-77259523D02*
X189022409Y-77211904D01*
X189022409Y-77211904D02*
X189046219Y-77140475D01*
X189046219Y-77140475D02*
X189070028Y-77116666D01*
X189260504Y-76735713D02*
X189284314Y-76664285D01*
X189284314Y-76664285D02*
X189308123Y-76640475D01*
X189308123Y-76640475D02*
X189355742Y-76616666D01*
X189355742Y-76616666D02*
X189427171Y-76616666D01*
X189427171Y-76616666D02*
X189474790Y-76640475D01*
X189474790Y-76640475D02*
X189498600Y-76664285D01*
X189498600Y-76664285D02*
X189522409Y-76711904D01*
X189522409Y-76711904D02*
X189522409Y-76902380D01*
X189522409Y-76902380D02*
X189022409Y-76902380D01*
X189022409Y-76902380D02*
X189022409Y-76735713D01*
X189022409Y-76735713D02*
X189046219Y-76688094D01*
X189046219Y-76688094D02*
X189070028Y-76664285D01*
X189070028Y-76664285D02*
X189117647Y-76640475D01*
X189117647Y-76640475D02*
X189165266Y-76640475D01*
X189165266Y-76640475D02*
X189212885Y-76664285D01*
X189212885Y-76664285D02*
X189236695Y-76688094D01*
X189236695Y-76688094D02*
X189260504Y-76735713D01*
X189260504Y-76735713D02*
X189260504Y-76902380D01*
X189498600Y-75830952D02*
X189522409Y-75878571D01*
X189522409Y-75878571D02*
X189522409Y-75973809D01*
X189522409Y-75973809D02*
X189498600Y-76021428D01*
X189498600Y-76021428D02*
X189450980Y-76045237D01*
X189450980Y-76045237D02*
X189260504Y-76045237D01*
X189260504Y-76045237D02*
X189212885Y-76021428D01*
X189212885Y-76021428D02*
X189189076Y-75973809D01*
X189189076Y-75973809D02*
X189189076Y-75878571D01*
X189189076Y-75878571D02*
X189212885Y-75830952D01*
X189212885Y-75830952D02*
X189260504Y-75807142D01*
X189260504Y-75807142D02*
X189308123Y-75807142D01*
X189308123Y-75807142D02*
X189355742Y-76045237D01*
X189522409Y-75378571D02*
X189022409Y-75378571D01*
X189498600Y-75378571D02*
X189522409Y-75426190D01*
X189522409Y-75426190D02*
X189522409Y-75521428D01*
X189522409Y-75521428D02*
X189498600Y-75569047D01*
X189498600Y-75569047D02*
X189474790Y-75592857D01*
X189474790Y-75592857D02*
X189427171Y-75616666D01*
X189427171Y-75616666D02*
X189284314Y-75616666D01*
X189284314Y-75616666D02*
X189236695Y-75592857D01*
X189236695Y-75592857D02*
X189212885Y-75569047D01*
X189212885Y-75569047D02*
X189189076Y-75521428D01*
X189189076Y-75521428D02*
X189189076Y-75426190D01*
X189189076Y-75426190D02*
X189212885Y-75378571D01*
X189189076Y-74926190D02*
X189593838Y-74926190D01*
X189593838Y-74926190D02*
X189641457Y-74950000D01*
X189641457Y-74950000D02*
X189665266Y-74973809D01*
X189665266Y-74973809D02*
X189689076Y-75021428D01*
X189689076Y-75021428D02*
X189689076Y-75092857D01*
X189689076Y-75092857D02*
X189665266Y-75140476D01*
X189498600Y-74926190D02*
X189522409Y-74973809D01*
X189522409Y-74973809D02*
X189522409Y-75069047D01*
X189522409Y-75069047D02*
X189498600Y-75116666D01*
X189498600Y-75116666D02*
X189474790Y-75140476D01*
X189474790Y-75140476D02*
X189427171Y-75164285D01*
X189427171Y-75164285D02*
X189284314Y-75164285D01*
X189284314Y-75164285D02*
X189236695Y-75140476D01*
X189236695Y-75140476D02*
X189212885Y-75116666D01*
X189212885Y-75116666D02*
X189189076Y-75069047D01*
X189189076Y-75069047D02*
X189189076Y-74973809D01*
X189189076Y-74973809D02*
X189212885Y-74926190D01*
X189498600Y-74497619D02*
X189522409Y-74545238D01*
X189522409Y-74545238D02*
X189522409Y-74640476D01*
X189522409Y-74640476D02*
X189498600Y-74688095D01*
X189498600Y-74688095D02*
X189450980Y-74711904D01*
X189450980Y-74711904D02*
X189260504Y-74711904D01*
X189260504Y-74711904D02*
X189212885Y-74688095D01*
X189212885Y-74688095D02*
X189189076Y-74640476D01*
X189189076Y-74640476D02*
X189189076Y-74545238D01*
X189189076Y-74545238D02*
X189212885Y-74497619D01*
X189212885Y-74497619D02*
X189260504Y-74473809D01*
X189260504Y-74473809D02*
X189308123Y-74473809D01*
X189308123Y-74473809D02*
X189355742Y-74711904D01*
D11*
%TO.C,J301*%
X189945000Y-80200000D02*
X189945000Y-72200000D01*
%TD*%
M02*
