%TF.GenerationSoftware,KiCad,Pcbnew,8.0.8+1*%
%TF.CreationDate,2025-03-08T00:06:57+00:00*%
%TF.ProjectId,dcclicht,6463636c-6963-4687-942e-6b696361645f,rev?*%
%TF.SameCoordinates,Original*%
%TF.FileFunction,Copper,L2,Bot*%
%TF.FilePolarity,Positive*%
%FSLAX46Y46*%
G04 Gerber Fmt 4.6, Leading zero omitted, Abs format (unit mm)*
G04 Created by KiCad (PCBNEW 8.0.8+1) date 2025-03-08 00:06:57*
%MOMM*%
%LPD*%
G01*
G04 APERTURE LIST*
G04 Aperture macros list*
%AMRoundRect*
0 Rectangle with rounded corners*
0 $1 Rounding radius*
0 $2 $3 $4 $5 $6 $7 $8 $9 X,Y pos of 4 corners*
0 Add a 4 corners polygon primitive as box body*
4,1,4,$2,$3,$4,$5,$6,$7,$8,$9,$2,$3,0*
0 Add four circle primitives for the rounded corners*
1,1,$1+$1,$2,$3*
1,1,$1+$1,$4,$5*
1,1,$1+$1,$6,$7*
1,1,$1+$1,$8,$9*
0 Add four rect primitives between the rounded corners*
20,1,$1+$1,$2,$3,$4,$5,0*
20,1,$1+$1,$4,$5,$6,$7,0*
20,1,$1+$1,$6,$7,$8,$9,0*
20,1,$1+$1,$8,$9,$2,$3,0*%
G04 Aperture macros list end*
%TA.AperFunction,ComponentPad*%
%ADD10C,5.500000*%
%TD*%
%TA.AperFunction,ComponentPad*%
%ADD11R,1.800000X1.800000*%
%TD*%
%TA.AperFunction,ComponentPad*%
%ADD12C,1.800000*%
%TD*%
%TA.AperFunction,ComponentPad*%
%ADD13RoundRect,0.250000X-1.350000X0.650000X-1.350000X-0.650000X1.350000X-0.650000X1.350000X0.650000X0*%
%TD*%
%TA.AperFunction,ComponentPad*%
%ADD14O,3.200000X1.800000*%
%TD*%
%TA.AperFunction,ComponentPad*%
%ADD15R,1.600000X1.600000*%
%TD*%
%TA.AperFunction,ComponentPad*%
%ADD16C,1.600000*%
%TD*%
%TA.AperFunction,ComponentPad*%
%ADD17R,3.000000X1.500000*%
%TD*%
%TA.AperFunction,ComponentPad*%
%ADD18O,3.000000X1.500000*%
%TD*%
%TA.AperFunction,ComponentPad*%
%ADD19C,2.400000*%
%TD*%
%TA.AperFunction,ComponentPad*%
%ADD20O,2.400000X2.400000*%
%TD*%
%TA.AperFunction,ComponentPad*%
%ADD21RoundRect,0.250000X1.350000X-0.650000X1.350000X0.650000X-1.350000X0.650000X-1.350000X-0.650000X0*%
%TD*%
%TA.AperFunction,ComponentPad*%
%ADD22C,2.000000*%
%TD*%
%TA.AperFunction,HeatsinkPad*%
%ADD23O,1.600000X0.900000*%
%TD*%
%TA.AperFunction,ComponentPad*%
%ADD24R,3.200000X3.200000*%
%TD*%
%TA.AperFunction,ComponentPad*%
%ADD25C,3.200000*%
%TD*%
%TA.AperFunction,ComponentPad*%
%ADD26R,1.500000X3.000000*%
%TD*%
%TA.AperFunction,ComponentPad*%
%ADD27O,1.500000X3.000000*%
%TD*%
%TA.AperFunction,ViaPad*%
%ADD28C,0.600000*%
%TD*%
%TA.AperFunction,ViaPad*%
%ADD29C,1.600000*%
%TD*%
%TA.AperFunction,Conductor*%
%ADD30C,2.000000*%
%TD*%
%TA.AperFunction,Conductor*%
%ADD31C,0.200000*%
%TD*%
%TA.AperFunction,Conductor*%
%ADD32C,0.500000*%
%TD*%
G04 APERTURE END LIST*
D10*
%TO.P,H101,1,1*%
%TO.N,GND*%
X114000000Y-64000000D03*
%TD*%
%TO.P,H103,1,1*%
%TO.N,GND*%
X186000000Y-136000000D03*
%TD*%
D11*
%TO.P,SW101,1,A*%
%TO.N,unconnected-(SW101-A-Pad1)*%
X168422500Y-91172500D03*
D12*
%TO.P,SW101,2,B*%
%TO.N,/CAN_L*%
X165922500Y-91172500D03*
%TO.P,SW101,3,C*%
%TO.N,Net-(R112-Pad2)*%
X163422500Y-91172500D03*
%TO.P,SW101,4,A*%
%TO.N,unconnected-(SW101-A-Pad4)*%
X168422500Y-85172500D03*
%TO.P,SW101,5,B*%
%TO.N,/CAN_H*%
X165922500Y-85172500D03*
%TO.P,SW101,6,C*%
%TO.N,Net-(R110-Pad1)*%
X163422500Y-85172500D03*
%TD*%
D13*
%TO.P,J202,1,Pin_1*%
%TO.N,/PWM/PWM8+*%
X121250000Y-110380000D03*
X116250000Y-110380000D03*
D14*
%TO.P,J202,2,Pin_2*%
%TO.N,/PWM/PWM8-*%
X121250000Y-112920000D03*
X116250000Y-112920000D03*
%TO.P,J202,3,Pin_3*%
%TO.N,/PWM/PWM7+*%
X121250000Y-115460000D03*
X116250000Y-115460000D03*
%TO.P,J202,4,Pin_4*%
%TO.N,/PWM/PWM7-*%
X121250000Y-118000000D03*
X116250000Y-118000000D03*
%TO.P,J202,5,Pin_5*%
%TO.N,/PWM/PWM6+*%
X121250000Y-120540000D03*
X116250000Y-120540000D03*
%TO.P,J202,6,Pin_6*%
%TO.N,/PWM/PWM6-*%
X121250000Y-123080000D03*
X116250000Y-123080000D03*
%TO.P,J202,7,Pin_7*%
%TO.N,/PWM/PWM5+*%
X121250000Y-125620000D03*
X116250000Y-125620000D03*
%TO.P,J202,8,Pin_8*%
%TO.N,/PWM/PWM5-*%
X121250000Y-128160000D03*
X116250000Y-128160000D03*
%TD*%
D15*
%TO.P,C110,1*%
%TO.N,+BATT*%
X133775000Y-65175000D03*
D16*
%TO.P,C110,2*%
%TO.N,GND*%
X137275000Y-65175000D03*
%TD*%
D17*
%TO.P,J103,1,Pin_1*%
%TO.N,/CAN_L*%
X180000000Y-90650000D03*
X185000000Y-90650000D03*
D18*
%TO.P,J103,2,Pin_2*%
%TO.N,/CAN_H*%
X180000000Y-85650000D03*
X185000000Y-85650000D03*
%TD*%
D19*
%TO.P,R108,1*%
%TO.N,Net-(Q101-E)*%
X146500000Y-101840000D03*
D20*
%TO.P,R108,2*%
%TO.N,Net-(D103-A)*%
X146500000Y-122160000D03*
%TD*%
D21*
%TO.P,J201,1,Pin_1*%
%TO.N,/PWM/PWM4+*%
X178517960Y-127610000D03*
X183517960Y-127610000D03*
D14*
%TO.P,J201,2,Pin_2*%
%TO.N,/PWM/PWM4-*%
X178517960Y-125070000D03*
X183517960Y-125070000D03*
%TO.P,J201,3,Pin_3*%
%TO.N,/PWM/PWM3+*%
X178517960Y-122530000D03*
X183517960Y-122530000D03*
%TO.P,J201,4,Pin_4*%
%TO.N,/PWM/PWM3-*%
X178517960Y-119990000D03*
X183517960Y-119990000D03*
%TO.P,J201,5,Pin_5*%
%TO.N,/PWM/PWM2+*%
X178517960Y-117450000D03*
X183517960Y-117450000D03*
%TO.P,J201,6,Pin_6*%
%TO.N,/PWM/PWM2-*%
X178517960Y-114910000D03*
X183517960Y-114910000D03*
%TO.P,J201,7,Pin_7*%
%TO.N,/PWM/PWM1+*%
X178517960Y-112370000D03*
X183517960Y-112370000D03*
%TO.P,J201,8,Pin_8*%
%TO.N,/PWM/PWM1-*%
X178517960Y-109830000D03*
X183517960Y-109830000D03*
%TD*%
D10*
%TO.P,H104,1,1*%
%TO.N,GND*%
X114000000Y-136000000D03*
%TD*%
D22*
%TO.P,SW103,1,1*%
%TO.N,GND*%
X171750000Y-62850000D03*
X178250000Y-62850000D03*
%TO.P,SW103,2,2*%
%TO.N,/BTN*%
X171750000Y-67350000D03*
X178250000Y-67350000D03*
%TD*%
D10*
%TO.P,H102,1,1*%
%TO.N,GND*%
X186000000Y-64000000D03*
%TD*%
D22*
%TO.P,SW102,1,1*%
%TO.N,GND*%
X156750000Y-62750000D03*
X163250000Y-62750000D03*
%TO.P,SW102,2,2*%
%TO.N,/~{RST}*%
X156750000Y-67250000D03*
X163250000Y-67250000D03*
%TD*%
D23*
%TO.P,J301,6,Shield*%
%TO.N,Net-(J301-Shield)*%
X188495000Y-79500000D03*
X188495000Y-72900000D03*
%TD*%
D24*
%TO.P,D102,1,+*%
%TO.N,GND*%
X154000000Y-110240000D03*
D25*
%TO.P,D102,2*%
%TO.N,Net-(D103-A)*%
X154000000Y-105160000D03*
%TO.P,D102,3*%
%TO.N,Net-(Q101-C)*%
X154000000Y-100080000D03*
%TO.P,D102,4,-*%
%TO.N,+15V*%
X154000000Y-95000000D03*
%TD*%
D26*
%TO.P,J101,1,Pin_1*%
%TO.N,Net-(D103-A)*%
X147000000Y-130000000D03*
X147000000Y-135000000D03*
D27*
%TO.P,J101,2,Pin_2*%
%TO.N,Net-(J101-Pin_2)*%
X152000000Y-130000000D03*
X152000000Y-135000000D03*
%TD*%
D28*
%TO.N,GND*%
X133125000Y-84975000D03*
X176750000Y-104250000D03*
X138250000Y-94000000D03*
X139000000Y-89750000D03*
X128500000Y-107500000D03*
X138700000Y-76500000D03*
X137000000Y-71600000D03*
X127600000Y-103400000D03*
X151900000Y-74400000D03*
X139600000Y-128700000D03*
X125000000Y-113600000D03*
X125250000Y-126250000D03*
X125750000Y-130000000D03*
X145250000Y-71750000D03*
X138500000Y-118300000D03*
X138750000Y-97000000D03*
X133400000Y-88300000D03*
X127250000Y-76500000D03*
X174500000Y-101750000D03*
X131900000Y-90000000D03*
X175000000Y-134000000D03*
X146000000Y-69000000D03*
X143500000Y-73750000D03*
X132175000Y-86275000D03*
X176750000Y-108250000D03*
X136500000Y-86250000D03*
X125000000Y-109600000D03*
X131500000Y-81500000D03*
X127500000Y-82250000D03*
X136000000Y-127800000D03*
X136500000Y-87500000D03*
X136500000Y-92250000D03*
X129400000Y-120000000D03*
X145000000Y-99500000D03*
X136500000Y-98250000D03*
X137700000Y-74400000D03*
X130000000Y-127000000D03*
X146800000Y-79500000D03*
X146750000Y-98250000D03*
X149400000Y-77000000D03*
X144500000Y-101250000D03*
X134700000Y-86900000D03*
X135100000Y-131300000D03*
X133900000Y-121600000D03*
X137400000Y-120600000D03*
X179000000Y-133000000D03*
X126000000Y-79250000D03*
X124800000Y-103800000D03*
X181000000Y-131000000D03*
X125500000Y-85000000D03*
D29*
%TO.N,+15V*%
X172200000Y-126825000D03*
X116800000Y-90850000D03*
X127567960Y-111200000D03*
X127567960Y-129500000D03*
X172200000Y-108525000D03*
D28*
%TO.N,+3V3*%
X130937651Y-70100000D03*
X153000000Y-66000000D03*
X142125000Y-76100000D03*
X136900000Y-70100000D03*
X146200000Y-77500000D03*
%TO.N,Net-(U105-SPLIT)*%
X171700000Y-88200000D03*
X160800000Y-90100000D03*
%TO.N,/~{RST}*%
X138079440Y-82079440D03*
%TO.N,/BTN*%
X138000000Y-79900000D03*
%TO.N,Net-(D103-A)*%
X150300000Y-97000000D03*
%TO.N,Net-(D103-K)*%
X149980331Y-102580331D03*
X146600000Y-96500000D03*
%TO.N,/PROBE*%
X134775000Y-91027308D03*
X138300000Y-87700000D03*
%TO.N,/ACK*%
X132500000Y-93900000D03*
X139125000Y-87723527D03*
%TO.N,/CAN_TX*%
X151200000Y-85500000D03*
X148250000Y-80500000D03*
%TO.N,/CAN_RX*%
X148246851Y-81325000D03*
X150400000Y-90100000D03*
%TO.N,/PWM/PWM1*%
X161100000Y-100100000D03*
X142900000Y-101250000D03*
%TO.N,/PWM/PWM2*%
X161100000Y-110100000D03*
X142100000Y-101250000D03*
%TO.N,/PWM/PWM3*%
X161100000Y-120200000D03*
X141300000Y-101250000D03*
%TO.N,/PWM/PWM4*%
X161100000Y-130200000D03*
X140500000Y-101250000D03*
%TD*%
D30*
%TO.N,+15V*%
X143767960Y-95000000D02*
X154000000Y-95000000D01*
X127567960Y-111200000D02*
X127567960Y-109417960D01*
X116800000Y-98650000D02*
X116800000Y-90850000D01*
X154000000Y-95000000D02*
X158675000Y-95000000D01*
X127567960Y-109417960D02*
X116800000Y-98650000D01*
X158675000Y-95000000D02*
X172200000Y-108525000D01*
X127567960Y-111200000D02*
X143767960Y-95000000D01*
X172200000Y-108525000D02*
X172200000Y-126825000D01*
X127567960Y-111200000D02*
X127567960Y-129500000D01*
D31*
%TO.N,+3V3*%
X143525000Y-77500000D02*
X142125000Y-76100000D01*
D32*
X136900000Y-70100000D02*
X130937651Y-70100000D01*
D31*
X146200000Y-77500000D02*
X143525000Y-77500000D01*
X153000000Y-70700000D02*
X153000000Y-66000000D01*
X146200000Y-77500000D02*
X153000000Y-70700000D01*
D32*
%TO.N,Net-(U105-SPLIT)*%
X162700000Y-88200000D02*
X171700000Y-88200000D01*
X160800000Y-90100000D02*
X162700000Y-88200000D01*
D31*
%TO.N,/~{RST}*%
X156750000Y-68398528D02*
X156750000Y-67250000D01*
X143069089Y-82079440D02*
X156750000Y-68398528D01*
X163250000Y-67250000D02*
X156750000Y-67250000D01*
X143069089Y-82079440D02*
X138079440Y-82079440D01*
%TO.N,/BTN*%
X155400000Y-69148529D02*
X155400000Y-66761522D01*
X138000000Y-79900000D02*
X144648529Y-79900000D01*
X155400000Y-66761522D02*
X156211522Y-65950000D01*
X144648529Y-79900000D02*
X155400000Y-69148529D01*
X170350000Y-65950000D02*
X171750000Y-67350000D01*
X156211522Y-65950000D02*
X170350000Y-65950000D01*
D32*
%TO.N,Net-(D103-A)*%
X150300000Y-101460000D02*
X154000000Y-105160000D01*
X150300000Y-97000000D02*
X150300000Y-101460000D01*
%TO.N,Net-(D103-K)*%
X146600000Y-96500000D02*
X148150000Y-98050000D01*
X148150000Y-100750000D02*
X149980331Y-102580331D01*
X148150000Y-98050000D02*
X148150000Y-100750000D01*
%TO.N,/CAN_H*%
X180000000Y-85650000D02*
X179127500Y-86522500D01*
X179127500Y-86522500D02*
X167272500Y-86522500D01*
X167272500Y-86522500D02*
X165922500Y-85172500D01*
%TO.N,/CAN_L*%
X179172500Y-89822500D02*
X180000000Y-90650000D01*
X165922500Y-91172500D02*
X167272500Y-89822500D01*
X167272500Y-89822500D02*
X179172500Y-89822500D01*
D31*
%TO.N,/PROBE*%
X138300000Y-87700000D02*
X134972692Y-91027308D01*
X134972692Y-91027308D02*
X134775000Y-91027308D01*
%TO.N,/ACK*%
X132500000Y-93900000D02*
X132948527Y-93900000D01*
X132948527Y-93900000D02*
X139125000Y-87723527D01*
%TO.N,/CAN_TX*%
X151200000Y-83429620D02*
X151200000Y-85500000D01*
X148250000Y-80500000D02*
X148270380Y-80500000D01*
X148270380Y-80500000D02*
X151200000Y-83429620D01*
%TO.N,/CAN_RX*%
X148246851Y-81325000D02*
X150400000Y-83478149D01*
X150400000Y-83478149D02*
X150400000Y-90100000D01*
%TO.N,/PWM/PWM1*%
X155540000Y-107060000D02*
X161100000Y-101500000D01*
X142900000Y-101250000D02*
X148710000Y-107060000D01*
X148710000Y-107060000D02*
X155540000Y-107060000D01*
X161100000Y-101500000D02*
X161100000Y-100100000D01*
%TO.N,/PWM/PWM2*%
X148471372Y-108340000D02*
X159340000Y-108340000D01*
X159340000Y-108340000D02*
X161100000Y-110100000D01*
X142100000Y-101968628D02*
X148471372Y-108340000D01*
X142100000Y-101250000D02*
X142100000Y-101968628D01*
%TO.N,/PWM/PWM3*%
X141300000Y-101250000D02*
X141300000Y-101734314D01*
X141300000Y-101734314D02*
X159765686Y-120200000D01*
X159765686Y-120200000D02*
X161100000Y-120200000D01*
%TO.N,/PWM/PWM4*%
X140500000Y-101250000D02*
X140500000Y-101500000D01*
X144325000Y-105325000D02*
X144325000Y-113425000D01*
X144325000Y-113425000D02*
X161100000Y-130200000D01*
X140500000Y-101500000D02*
X144325000Y-105325000D01*
%TD*%
%TA.AperFunction,Conductor*%
%TO.N,GND*%
G36*
X189458691Y-60519407D02*
G01*
X189494655Y-60568907D01*
X189499500Y-60599500D01*
X189499500Y-72395547D01*
X189480593Y-72453738D01*
X189431093Y-72489702D01*
X189369907Y-72489702D01*
X189330496Y-72465551D01*
X189259672Y-72394727D01*
X189259669Y-72394724D01*
X189217226Y-72366365D01*
X189153133Y-72323538D01*
X189153125Y-72323534D01*
X189034747Y-72274500D01*
X189034745Y-72274499D01*
X189034744Y-72274499D01*
X188909069Y-72249500D01*
X188080931Y-72249500D01*
X188080930Y-72249500D01*
X188018093Y-72261999D01*
X187955256Y-72274499D01*
X187955255Y-72274499D01*
X187955252Y-72274500D01*
X187836874Y-72323534D01*
X187836866Y-72323538D01*
X187730331Y-72394724D01*
X187730327Y-72394727D01*
X187639727Y-72485327D01*
X187639724Y-72485331D01*
X187568538Y-72591866D01*
X187568534Y-72591874D01*
X187519500Y-72710252D01*
X187519499Y-72710257D01*
X187494500Y-72835930D01*
X187494500Y-72964069D01*
X187519499Y-73089742D01*
X187519500Y-73089747D01*
X187568534Y-73208125D01*
X187568538Y-73208133D01*
X187611365Y-73272226D01*
X187639724Y-73314669D01*
X187730331Y-73405276D01*
X187793848Y-73447717D01*
X187836866Y-73476461D01*
X187836870Y-73476463D01*
X187836873Y-73476465D01*
X187955256Y-73525501D01*
X188080931Y-73550500D01*
X188080932Y-73550500D01*
X188909068Y-73550500D01*
X188909069Y-73550500D01*
X189034744Y-73525501D01*
X189153127Y-73476465D01*
X189259669Y-73405276D01*
X189330496Y-73334449D01*
X189385013Y-73306672D01*
X189445445Y-73316243D01*
X189488710Y-73359508D01*
X189499500Y-73404453D01*
X189499500Y-78995547D01*
X189480593Y-79053738D01*
X189431093Y-79089702D01*
X189369907Y-79089702D01*
X189330496Y-79065551D01*
X189259672Y-78994727D01*
X189259669Y-78994724D01*
X189217226Y-78966365D01*
X189153133Y-78923538D01*
X189153125Y-78923534D01*
X189034747Y-78874500D01*
X189034745Y-78874499D01*
X189034744Y-78874499D01*
X188909069Y-78849500D01*
X188080931Y-78849500D01*
X188080930Y-78849500D01*
X188018093Y-78861999D01*
X187955256Y-78874499D01*
X187955255Y-78874499D01*
X187955252Y-78874500D01*
X187836874Y-78923534D01*
X187836866Y-78923538D01*
X187730331Y-78994724D01*
X187730327Y-78994727D01*
X187639727Y-79085327D01*
X187639724Y-79085331D01*
X187568538Y-79191866D01*
X187568534Y-79191874D01*
X187519500Y-79310252D01*
X187519499Y-79310257D01*
X187494500Y-79435930D01*
X187494500Y-79564069D01*
X187519499Y-79689742D01*
X187519500Y-79689747D01*
X187568534Y-79808125D01*
X187568538Y-79808133D01*
X187611365Y-79872226D01*
X187639724Y-79914669D01*
X187730331Y-80005276D01*
X187793848Y-80047717D01*
X187836866Y-80076461D01*
X187836870Y-80076463D01*
X187836873Y-80076465D01*
X187955256Y-80125501D01*
X188080931Y-80150500D01*
X188080932Y-80150500D01*
X188909068Y-80150500D01*
X188909069Y-80150500D01*
X189034744Y-80125501D01*
X189153127Y-80076465D01*
X189259669Y-80005276D01*
X189330496Y-79934449D01*
X189385013Y-79906672D01*
X189445445Y-79916243D01*
X189488710Y-79959508D01*
X189499500Y-80004453D01*
X189499500Y-139400500D01*
X189480593Y-139458691D01*
X189431093Y-139494655D01*
X189400500Y-139499500D01*
X110599500Y-139499500D01*
X110541309Y-139480593D01*
X110505345Y-139431093D01*
X110500500Y-139400500D01*
X110500500Y-133480253D01*
X146049500Y-133480253D01*
X146049500Y-136519746D01*
X146049501Y-136519758D01*
X146061132Y-136578227D01*
X146061134Y-136578233D01*
X146070548Y-136592322D01*
X146105448Y-136644552D01*
X146171769Y-136688867D01*
X146216231Y-136697711D01*
X146230241Y-136700498D01*
X146230246Y-136700498D01*
X146230252Y-136700500D01*
X146230253Y-136700500D01*
X147769747Y-136700500D01*
X147769748Y-136700500D01*
X147828231Y-136688867D01*
X147894552Y-136644552D01*
X147938867Y-136578231D01*
X147950500Y-136519748D01*
X147950500Y-134156381D01*
X151049500Y-134156381D01*
X151049500Y-135843618D01*
X151086026Y-136027249D01*
X151157677Y-136200229D01*
X151157681Y-136200238D01*
X151232065Y-136311559D01*
X151261698Y-136355908D01*
X151394092Y-136488302D01*
X151460463Y-136532649D01*
X151549761Y-136592318D01*
X151549767Y-136592320D01*
X151549769Y-136592322D01*
X151722749Y-136663973D01*
X151906384Y-136700500D01*
X151906385Y-136700500D01*
X152093615Y-136700500D01*
X152093616Y-136700500D01*
X152277251Y-136663973D01*
X152450231Y-136592322D01*
X152450234Y-136592319D01*
X152450238Y-136592318D01*
X152495187Y-136562282D01*
X152605908Y-136488302D01*
X152738302Y-136355908D01*
X152812282Y-136245187D01*
X152842318Y-136200238D01*
X152842319Y-136200234D01*
X152842322Y-136200231D01*
X152913973Y-136027251D01*
X152950500Y-135843616D01*
X152950500Y-134156384D01*
X152913973Y-133972749D01*
X152842322Y-133799769D01*
X152842320Y-133799767D01*
X152842318Y-133799761D01*
X152782649Y-133710463D01*
X152738302Y-133644092D01*
X152605908Y-133511698D01*
X152558829Y-133480241D01*
X152450238Y-133407681D01*
X152450229Y-133407677D01*
X152277249Y-133336026D01*
X152093618Y-133299500D01*
X152093616Y-133299500D01*
X151906384Y-133299500D01*
X151906381Y-133299500D01*
X151722750Y-133336026D01*
X151549770Y-133407677D01*
X151549761Y-133407681D01*
X151394092Y-133511698D01*
X151394088Y-133511701D01*
X151261701Y-133644088D01*
X151261698Y-133644092D01*
X151157681Y-133799761D01*
X151157677Y-133799770D01*
X151086026Y-133972750D01*
X151049500Y-134156381D01*
X147950500Y-134156381D01*
X147950500Y-133480252D01*
X147938867Y-133421769D01*
X147894552Y-133355448D01*
X147865487Y-133336027D01*
X147828233Y-133311134D01*
X147828231Y-133311133D01*
X147828228Y-133311132D01*
X147828227Y-133311132D01*
X147769758Y-133299501D01*
X147769748Y-133299500D01*
X146230252Y-133299500D01*
X146230251Y-133299500D01*
X146230241Y-133299501D01*
X146171772Y-133311132D01*
X146171766Y-133311134D01*
X146105451Y-133355445D01*
X146105445Y-133355451D01*
X146061134Y-133421766D01*
X146061132Y-133421772D01*
X146049501Y-133480241D01*
X146049500Y-133480253D01*
X110500500Y-133480253D01*
X110500500Y-128073385D01*
X114449500Y-128073385D01*
X114449500Y-128246614D01*
X114476597Y-128417702D01*
X114476598Y-128417706D01*
X114530123Y-128582438D01*
X114530125Y-128582441D01*
X114595373Y-128710500D01*
X114608768Y-128736788D01*
X114710586Y-128876928D01*
X114833072Y-128999414D01*
X114973212Y-129101232D01*
X115127555Y-129179873D01*
X115127557Y-129179873D01*
X115127558Y-129179874D01*
X115127561Y-129179876D01*
X115292293Y-129233401D01*
X115292297Y-129233402D01*
X115463386Y-129260500D01*
X115463389Y-129260500D01*
X117036614Y-129260500D01*
X117207702Y-129233402D01*
X117207706Y-129233401D01*
X117372438Y-129179876D01*
X117372440Y-129179874D01*
X117372445Y-129179873D01*
X117526788Y-129101232D01*
X117666928Y-128999414D01*
X117789414Y-128876928D01*
X117891232Y-128736788D01*
X117969873Y-128582445D01*
X117969874Y-128582440D01*
X117969876Y-128582438D01*
X118023401Y-128417706D01*
X118023402Y-128417702D01*
X118050500Y-128246614D01*
X118050500Y-128073385D01*
X119449500Y-128073385D01*
X119449500Y-128246614D01*
X119476597Y-128417702D01*
X119476598Y-128417706D01*
X119530123Y-128582438D01*
X119530125Y-128582441D01*
X119595373Y-128710500D01*
X119608768Y-128736788D01*
X119710586Y-128876928D01*
X119833072Y-128999414D01*
X119973212Y-129101232D01*
X120127555Y-129179873D01*
X120127557Y-129179873D01*
X120127558Y-129179874D01*
X120127561Y-129179876D01*
X120292293Y-129233401D01*
X120292297Y-129233402D01*
X120463386Y-129260500D01*
X120463389Y-129260500D01*
X122036614Y-129260500D01*
X122207702Y-129233402D01*
X122207706Y-129233401D01*
X122372438Y-129179876D01*
X122372440Y-129179874D01*
X122372445Y-129179873D01*
X122526788Y-129101232D01*
X122666928Y-128999414D01*
X122789414Y-128876928D01*
X122891232Y-128736788D01*
X122969873Y-128582445D01*
X122969874Y-128582440D01*
X122969876Y-128582438D01*
X123023401Y-128417706D01*
X123023402Y-128417702D01*
X123050500Y-128246614D01*
X123050500Y-128073385D01*
X123023402Y-127902297D01*
X123023401Y-127902293D01*
X122969876Y-127737561D01*
X122969874Y-127737558D01*
X122969873Y-127737557D01*
X122969873Y-127737555D01*
X122891232Y-127583212D01*
X122789414Y-127443072D01*
X122666928Y-127320586D01*
X122526788Y-127218768D01*
X122526787Y-127218767D01*
X122526785Y-127218766D01*
X122372441Y-127140125D01*
X122372438Y-127140123D01*
X122207706Y-127086598D01*
X122207702Y-127086597D01*
X122036614Y-127059500D01*
X122036611Y-127059500D01*
X120463389Y-127059500D01*
X120463386Y-127059500D01*
X120292297Y-127086597D01*
X120292293Y-127086598D01*
X120127561Y-127140123D01*
X120127558Y-127140125D01*
X119973214Y-127218766D01*
X119833073Y-127320585D01*
X119710585Y-127443073D01*
X119608766Y-127583214D01*
X119530125Y-127737558D01*
X119530123Y-127737561D01*
X119476598Y-127902293D01*
X119476597Y-127902297D01*
X119449500Y-128073385D01*
X118050500Y-128073385D01*
X118023402Y-127902297D01*
X118023401Y-127902293D01*
X117969876Y-127737561D01*
X117969874Y-127737558D01*
X117969873Y-127737557D01*
X117969873Y-127737555D01*
X117891232Y-127583212D01*
X117789414Y-127443072D01*
X117666928Y-127320586D01*
X117526788Y-127218768D01*
X117526787Y-127218767D01*
X117526785Y-127218766D01*
X117372441Y-127140125D01*
X117372438Y-127140123D01*
X117207706Y-127086598D01*
X117207702Y-127086597D01*
X117036614Y-127059500D01*
X117036611Y-127059500D01*
X115463389Y-127059500D01*
X115463386Y-127059500D01*
X115292297Y-127086597D01*
X115292293Y-127086598D01*
X115127561Y-127140123D01*
X115127558Y-127140125D01*
X114973214Y-127218766D01*
X114833073Y-127320585D01*
X114710585Y-127443073D01*
X114608766Y-127583214D01*
X114530125Y-127737558D01*
X114530123Y-127737561D01*
X114476598Y-127902293D01*
X114476597Y-127902297D01*
X114449500Y-128073385D01*
X110500500Y-128073385D01*
X110500500Y-125533385D01*
X114449500Y-125533385D01*
X114449500Y-125706614D01*
X114476597Y-125877702D01*
X114476598Y-125877706D01*
X114530123Y-126042438D01*
X114530125Y-126042441D01*
X114595373Y-126170500D01*
X114608768Y-126196788D01*
X114710586Y-126336928D01*
X114833072Y-126459414D01*
X114973212Y-126561232D01*
X115127555Y-126639873D01*
X115127557Y-126639873D01*
X115127558Y-126639874D01*
X115127561Y-126639876D01*
X115292293Y-126693401D01*
X115292297Y-126693402D01*
X115463386Y-126720500D01*
X115463389Y-126720500D01*
X117036614Y-126720500D01*
X117207702Y-126693402D01*
X117207706Y-126693401D01*
X117372438Y-126639876D01*
X117372440Y-126639874D01*
X117372445Y-126639873D01*
X117526788Y-126561232D01*
X117666928Y-126459414D01*
X117789414Y-126336928D01*
X117891232Y-126196788D01*
X117969873Y-126042445D01*
X117969874Y-126042440D01*
X117969876Y-126042438D01*
X118023401Y-125877706D01*
X118023402Y-125877702D01*
X118050500Y-125706614D01*
X118050500Y-125533385D01*
X119449500Y-125533385D01*
X119449500Y-125706614D01*
X119476597Y-125877702D01*
X119476598Y-125877706D01*
X119530123Y-126042438D01*
X119530125Y-126042441D01*
X119595373Y-126170500D01*
X119608768Y-126196788D01*
X119710586Y-126336928D01*
X119833072Y-126459414D01*
X119973212Y-126561232D01*
X120127555Y-126639873D01*
X120127557Y-126639873D01*
X120127558Y-126639874D01*
X120127561Y-126639876D01*
X120292293Y-126693401D01*
X120292297Y-126693402D01*
X120463386Y-126720500D01*
X120463389Y-126720500D01*
X122036614Y-126720500D01*
X122207702Y-126693402D01*
X122207706Y-126693401D01*
X122372438Y-126639876D01*
X122372440Y-126639874D01*
X122372445Y-126639873D01*
X122526788Y-126561232D01*
X122666928Y-126459414D01*
X122789414Y-126336928D01*
X122891232Y-126196788D01*
X122969873Y-126042445D01*
X122969874Y-126042440D01*
X122969876Y-126042438D01*
X123023401Y-125877706D01*
X123023402Y-125877702D01*
X123050500Y-125706614D01*
X123050500Y-125533385D01*
X123023402Y-125362297D01*
X123023401Y-125362293D01*
X122969876Y-125197561D01*
X122969874Y-125197558D01*
X122969873Y-125197557D01*
X122969873Y-125197555D01*
X122891232Y-125043212D01*
X122789414Y-124903072D01*
X122666928Y-124780586D01*
X122526788Y-124678768D01*
X122526787Y-124678767D01*
X122526785Y-124678766D01*
X122372441Y-124600125D01*
X122372438Y-124600123D01*
X122207706Y-124546598D01*
X122207702Y-124546597D01*
X122036614Y-124519500D01*
X122036611Y-124519500D01*
X120463389Y-124519500D01*
X120463386Y-124519500D01*
X120292297Y-124546597D01*
X120292293Y-124546598D01*
X120127561Y-124600123D01*
X120127558Y-124600125D01*
X119973214Y-124678766D01*
X119833073Y-124780585D01*
X119710585Y-124903073D01*
X119608766Y-125043214D01*
X119530125Y-125197558D01*
X119530123Y-125197561D01*
X119476598Y-125362293D01*
X119476597Y-125362297D01*
X119449500Y-125533385D01*
X118050500Y-125533385D01*
X118023402Y-125362297D01*
X118023401Y-125362293D01*
X117969876Y-125197561D01*
X117969874Y-125197558D01*
X117969873Y-125197557D01*
X117969873Y-125197555D01*
X117891232Y-125043212D01*
X117789414Y-124903072D01*
X117666928Y-124780586D01*
X117526788Y-124678768D01*
X117526787Y-124678767D01*
X117526785Y-124678766D01*
X117372441Y-124600125D01*
X117372438Y-124600123D01*
X117207706Y-124546598D01*
X117207702Y-124546597D01*
X117036614Y-124519500D01*
X117036611Y-124519500D01*
X115463389Y-124519500D01*
X115463386Y-124519500D01*
X115292297Y-124546597D01*
X115292293Y-124546598D01*
X115127561Y-124600123D01*
X115127558Y-124600125D01*
X114973214Y-124678766D01*
X114833073Y-124780585D01*
X114710585Y-124903073D01*
X114608766Y-125043214D01*
X114530125Y-125197558D01*
X114530123Y-125197561D01*
X114476598Y-125362293D01*
X114476597Y-125362297D01*
X114449500Y-125533385D01*
X110500500Y-125533385D01*
X110500500Y-122993385D01*
X114449500Y-122993385D01*
X114449500Y-123166614D01*
X114476597Y-123337702D01*
X114476598Y-123337706D01*
X114530123Y-123502438D01*
X114530125Y-123502441D01*
X114595373Y-123630500D01*
X114608768Y-123656788D01*
X114710586Y-123796928D01*
X114833072Y-123919414D01*
X114973212Y-124021232D01*
X115127555Y-124099873D01*
X115127557Y-124099873D01*
X115127558Y-124099874D01*
X115127561Y-124099876D01*
X115292293Y-124153401D01*
X115292297Y-124153402D01*
X115463386Y-124180500D01*
X115463389Y-124180500D01*
X117036614Y-124180500D01*
X117207702Y-124153402D01*
X117207706Y-124153401D01*
X117372438Y-124099876D01*
X117372440Y-124099874D01*
X117372445Y-124099873D01*
X117526788Y-124021232D01*
X117666928Y-123919414D01*
X117789414Y-123796928D01*
X117891232Y-123656788D01*
X117969873Y-123502445D01*
X117969874Y-123502440D01*
X117969876Y-123502438D01*
X118023401Y-123337706D01*
X118023402Y-123337702D01*
X118050500Y-123166614D01*
X118050500Y-122993385D01*
X119449500Y-122993385D01*
X119449500Y-123166614D01*
X119476597Y-123337702D01*
X119476598Y-123337706D01*
X119530123Y-123502438D01*
X119530125Y-123502441D01*
X119595373Y-123630500D01*
X119608768Y-123656788D01*
X119710586Y-123796928D01*
X119833072Y-123919414D01*
X119973212Y-124021232D01*
X120127555Y-124099873D01*
X120127557Y-124099873D01*
X120127558Y-124099874D01*
X120127561Y-124099876D01*
X120292293Y-124153401D01*
X120292297Y-124153402D01*
X120463386Y-124180500D01*
X120463389Y-124180500D01*
X122036614Y-124180500D01*
X122207702Y-124153402D01*
X122207706Y-124153401D01*
X122372438Y-124099876D01*
X122372440Y-124099874D01*
X122372445Y-124099873D01*
X122526788Y-124021232D01*
X122666928Y-123919414D01*
X122789414Y-123796928D01*
X122891232Y-123656788D01*
X122969873Y-123502445D01*
X122969874Y-123502440D01*
X122969876Y-123502438D01*
X123023401Y-123337706D01*
X123023402Y-123337702D01*
X123050500Y-123166614D01*
X123050500Y-122993385D01*
X123023402Y-122822297D01*
X123023401Y-122822293D01*
X122969876Y-122657561D01*
X122969874Y-122657558D01*
X122969873Y-122657557D01*
X122969873Y-122657555D01*
X122891232Y-122503212D01*
X122789414Y-122363072D01*
X122666928Y-122240586D01*
X122526788Y-122138768D01*
X122526787Y-122138767D01*
X122526785Y-122138766D01*
X122372441Y-122060125D01*
X122372438Y-122060123D01*
X122207706Y-122006598D01*
X122207702Y-122006597D01*
X122036614Y-121979500D01*
X122036611Y-121979500D01*
X120463389Y-121979500D01*
X120463386Y-121979500D01*
X120292297Y-122006597D01*
X120292293Y-122006598D01*
X120127561Y-122060123D01*
X120127558Y-122060125D01*
X119973214Y-122138766D01*
X119833073Y-122240585D01*
X119710585Y-122363073D01*
X119608766Y-122503214D01*
X119530125Y-122657558D01*
X119530123Y-122657561D01*
X119476598Y-122822293D01*
X119476597Y-122822297D01*
X119449500Y-122993385D01*
X118050500Y-122993385D01*
X118023402Y-122822297D01*
X118023401Y-122822293D01*
X117969876Y-122657561D01*
X117969874Y-122657558D01*
X117969873Y-122657557D01*
X117969873Y-122657555D01*
X117891232Y-122503212D01*
X117789414Y-122363072D01*
X117666928Y-122240586D01*
X117526788Y-122138768D01*
X117526787Y-122138767D01*
X117526785Y-122138766D01*
X117372441Y-122060125D01*
X117372438Y-122060123D01*
X117207706Y-122006598D01*
X117207702Y-122006597D01*
X117036614Y-121979500D01*
X117036611Y-121979500D01*
X115463389Y-121979500D01*
X115463386Y-121979500D01*
X115292297Y-122006597D01*
X115292293Y-122006598D01*
X115127561Y-122060123D01*
X115127558Y-122060125D01*
X114973214Y-122138766D01*
X114833073Y-122240585D01*
X114710585Y-122363073D01*
X114608766Y-122503214D01*
X114530125Y-122657558D01*
X114530123Y-122657561D01*
X114476598Y-122822293D01*
X114476597Y-122822297D01*
X114449500Y-122993385D01*
X110500500Y-122993385D01*
X110500500Y-120453385D01*
X114449500Y-120453385D01*
X114449500Y-120626614D01*
X114476597Y-120797702D01*
X114476598Y-120797706D01*
X114530123Y-120962438D01*
X114530125Y-120962441D01*
X114595373Y-121090500D01*
X114608768Y-121116788D01*
X114710586Y-121256928D01*
X114833072Y-121379414D01*
X114973212Y-121481232D01*
X115127555Y-121559873D01*
X115127557Y-121559873D01*
X115127558Y-121559874D01*
X115127561Y-121559876D01*
X115292293Y-121613401D01*
X115292297Y-121613402D01*
X115463386Y-121640500D01*
X115463389Y-121640500D01*
X117036614Y-121640500D01*
X117207702Y-121613402D01*
X117207706Y-121613401D01*
X117372438Y-121559876D01*
X117372440Y-121559874D01*
X117372445Y-121559873D01*
X117526788Y-121481232D01*
X117666928Y-121379414D01*
X117789414Y-121256928D01*
X117891232Y-121116788D01*
X117969873Y-120962445D01*
X117969874Y-120962440D01*
X117969876Y-120962438D01*
X118023401Y-120797706D01*
X118023402Y-120797702D01*
X118050500Y-120626614D01*
X118050500Y-120453385D01*
X119449500Y-120453385D01*
X119449500Y-120626614D01*
X119476597Y-120797702D01*
X119476598Y-120797706D01*
X119530123Y-120962438D01*
X119530125Y-120962441D01*
X119595373Y-121090500D01*
X119608768Y-121116788D01*
X119710586Y-121256928D01*
X119833072Y-121379414D01*
X119973212Y-121481232D01*
X120127555Y-121559873D01*
X120127557Y-121559873D01*
X120127558Y-121559874D01*
X120127561Y-121559876D01*
X120292293Y-121613401D01*
X120292297Y-121613402D01*
X120463386Y-121640500D01*
X120463389Y-121640500D01*
X122036614Y-121640500D01*
X122207702Y-121613402D01*
X122207706Y-121613401D01*
X122372438Y-121559876D01*
X122372440Y-121559874D01*
X122372445Y-121559873D01*
X122526788Y-121481232D01*
X122666928Y-121379414D01*
X122789414Y-121256928D01*
X122891232Y-121116788D01*
X122969873Y-120962445D01*
X122969874Y-120962440D01*
X122969876Y-120962438D01*
X123023401Y-120797706D01*
X123023402Y-120797702D01*
X123050500Y-120626614D01*
X123050500Y-120453385D01*
X123023402Y-120282297D01*
X123023401Y-120282293D01*
X122969876Y-120117561D01*
X122969874Y-120117558D01*
X122969873Y-120117557D01*
X122969873Y-120117555D01*
X122891232Y-119963212D01*
X122789414Y-119823072D01*
X122666928Y-119700586D01*
X122526788Y-119598768D01*
X122526787Y-119598767D01*
X122526785Y-119598766D01*
X122372441Y-119520125D01*
X122372438Y-119520123D01*
X122207706Y-119466598D01*
X122207702Y-119466597D01*
X122036614Y-119439500D01*
X122036611Y-119439500D01*
X120463389Y-119439500D01*
X120463386Y-119439500D01*
X120292297Y-119466597D01*
X120292293Y-119466598D01*
X120127561Y-119520123D01*
X120127558Y-119520125D01*
X119973214Y-119598766D01*
X119833073Y-119700585D01*
X119710585Y-119823073D01*
X119608766Y-119963214D01*
X119530125Y-120117558D01*
X119530123Y-120117561D01*
X119476598Y-120282293D01*
X119476597Y-120282297D01*
X119449500Y-120453385D01*
X118050500Y-120453385D01*
X118023402Y-120282297D01*
X118023401Y-120282293D01*
X117969876Y-120117561D01*
X117969874Y-120117558D01*
X117969873Y-120117557D01*
X117969873Y-120117555D01*
X117891232Y-119963212D01*
X117789414Y-119823072D01*
X117666928Y-119700586D01*
X117526788Y-119598768D01*
X117526787Y-119598767D01*
X117526785Y-119598766D01*
X117372441Y-119520125D01*
X117372438Y-119520123D01*
X117207706Y-119466598D01*
X117207702Y-119466597D01*
X117036614Y-119439500D01*
X117036611Y-119439500D01*
X115463389Y-119439500D01*
X115463386Y-119439500D01*
X115292297Y-119466597D01*
X115292293Y-119466598D01*
X115127561Y-119520123D01*
X115127558Y-119520125D01*
X114973214Y-119598766D01*
X114833073Y-119700585D01*
X114710585Y-119823073D01*
X114608766Y-119963214D01*
X114530125Y-120117558D01*
X114530123Y-120117561D01*
X114476598Y-120282293D01*
X114476597Y-120282297D01*
X114449500Y-120453385D01*
X110500500Y-120453385D01*
X110500500Y-117913385D01*
X114449500Y-117913385D01*
X114449500Y-118086614D01*
X114476597Y-118257702D01*
X114476598Y-118257706D01*
X114530123Y-118422438D01*
X114530125Y-118422441D01*
X114595373Y-118550500D01*
X114608768Y-118576788D01*
X114710586Y-118716928D01*
X114833072Y-118839414D01*
X114973212Y-118941232D01*
X115127555Y-119019873D01*
X115127557Y-119019873D01*
X115127558Y-119019874D01*
X115127561Y-119019876D01*
X115292293Y-119073401D01*
X115292297Y-119073402D01*
X115463386Y-119100500D01*
X115463389Y-119100500D01*
X117036614Y-119100500D01*
X117207702Y-119073402D01*
X117207706Y-119073401D01*
X117372438Y-119019876D01*
X117372440Y-119019874D01*
X117372445Y-119019873D01*
X117526788Y-118941232D01*
X117666928Y-118839414D01*
X117789414Y-118716928D01*
X117891232Y-118576788D01*
X117969873Y-118422445D01*
X117969874Y-118422440D01*
X117969876Y-118422438D01*
X118023401Y-118257706D01*
X118023402Y-118257702D01*
X118050500Y-118086614D01*
X118050500Y-117913385D01*
X119449500Y-117913385D01*
X119449500Y-118086614D01*
X119476597Y-118257702D01*
X119476598Y-118257706D01*
X119530123Y-118422438D01*
X119530125Y-118422441D01*
X119595373Y-118550500D01*
X119608768Y-118576788D01*
X119710586Y-118716928D01*
X119833072Y-118839414D01*
X119973212Y-118941232D01*
X120127555Y-119019873D01*
X120127557Y-119019873D01*
X120127558Y-119019874D01*
X120127561Y-119019876D01*
X120292293Y-119073401D01*
X120292297Y-119073402D01*
X120463386Y-119100500D01*
X120463389Y-119100500D01*
X122036614Y-119100500D01*
X122207702Y-119073402D01*
X122207706Y-119073401D01*
X122372438Y-119019876D01*
X122372440Y-119019874D01*
X122372445Y-119019873D01*
X122526788Y-118941232D01*
X122666928Y-118839414D01*
X122789414Y-118716928D01*
X122891232Y-118576788D01*
X122969873Y-118422445D01*
X122969874Y-118422440D01*
X122969876Y-118422438D01*
X123023401Y-118257706D01*
X123023402Y-118257702D01*
X123050500Y-118086614D01*
X123050500Y-117913385D01*
X123023402Y-117742297D01*
X123023401Y-117742293D01*
X122969876Y-117577561D01*
X122969874Y-117577558D01*
X122969873Y-117577557D01*
X122969873Y-117577555D01*
X122891232Y-117423212D01*
X122789414Y-117283072D01*
X122666928Y-117160586D01*
X122526788Y-117058768D01*
X122526787Y-117058767D01*
X122526785Y-117058766D01*
X122372441Y-116980125D01*
X122372438Y-116980123D01*
X122207706Y-116926598D01*
X122207702Y-116926597D01*
X122036614Y-116899500D01*
X122036611Y-116899500D01*
X120463389Y-116899500D01*
X120463386Y-116899500D01*
X120292297Y-116926597D01*
X120292293Y-116926598D01*
X120127561Y-116980123D01*
X120127558Y-116980125D01*
X119973214Y-117058766D01*
X119833073Y-117160585D01*
X119710585Y-117283073D01*
X119608766Y-117423214D01*
X119530125Y-117577558D01*
X119530123Y-117577561D01*
X119476598Y-117742293D01*
X119476597Y-117742297D01*
X119449500Y-117913385D01*
X118050500Y-117913385D01*
X118023402Y-117742297D01*
X118023401Y-117742293D01*
X117969876Y-117577561D01*
X117969874Y-117577558D01*
X117969873Y-117577557D01*
X117969873Y-117577555D01*
X117891232Y-117423212D01*
X117789414Y-117283072D01*
X117666928Y-117160586D01*
X117526788Y-117058768D01*
X117526787Y-117058767D01*
X117526785Y-117058766D01*
X117372441Y-116980125D01*
X117372438Y-116980123D01*
X117207706Y-116926598D01*
X117207702Y-116926597D01*
X117036614Y-116899500D01*
X117036611Y-116899500D01*
X115463389Y-116899500D01*
X115463386Y-116899500D01*
X115292297Y-116926597D01*
X115292293Y-116926598D01*
X115127561Y-116980123D01*
X115127558Y-116980125D01*
X114973214Y-117058766D01*
X114833073Y-117160585D01*
X114710585Y-117283073D01*
X114608766Y-117423214D01*
X114530125Y-117577558D01*
X114530123Y-117577561D01*
X114476598Y-117742293D01*
X114476597Y-117742297D01*
X114449500Y-117913385D01*
X110500500Y-117913385D01*
X110500500Y-115373385D01*
X114449500Y-115373385D01*
X114449500Y-115546614D01*
X114476597Y-115717702D01*
X114476598Y-115717706D01*
X114530123Y-115882438D01*
X114530125Y-115882441D01*
X114595373Y-116010500D01*
X114608768Y-116036788D01*
X114710586Y-116176928D01*
X114833072Y-116299414D01*
X114973212Y-116401232D01*
X115127555Y-116479873D01*
X115127557Y-116479873D01*
X115127558Y-116479874D01*
X115127561Y-116479876D01*
X115292293Y-116533401D01*
X115292297Y-116533402D01*
X115463386Y-116560500D01*
X115463389Y-116560500D01*
X117036614Y-116560500D01*
X117207702Y-116533402D01*
X117207706Y-116533401D01*
X117372438Y-116479876D01*
X117372440Y-116479874D01*
X117372445Y-116479873D01*
X117526788Y-116401232D01*
X117666928Y-116299414D01*
X117789414Y-116176928D01*
X117891232Y-116036788D01*
X117969873Y-115882445D01*
X117969874Y-115882440D01*
X117969876Y-115882438D01*
X118023401Y-115717706D01*
X118023402Y-115717702D01*
X118050500Y-115546614D01*
X118050500Y-115373385D01*
X119449500Y-115373385D01*
X119449500Y-115546614D01*
X119476597Y-115717702D01*
X119476598Y-115717706D01*
X119530123Y-115882438D01*
X119530125Y-115882441D01*
X119595373Y-116010500D01*
X119608768Y-116036788D01*
X119710586Y-116176928D01*
X119833072Y-116299414D01*
X119973212Y-116401232D01*
X120127555Y-116479873D01*
X120127557Y-116479873D01*
X120127558Y-116479874D01*
X120127561Y-116479876D01*
X120292293Y-116533401D01*
X120292297Y-116533402D01*
X120463386Y-116560500D01*
X120463389Y-116560500D01*
X122036614Y-116560500D01*
X122207702Y-116533402D01*
X122207706Y-116533401D01*
X122372438Y-116479876D01*
X122372440Y-116479874D01*
X122372445Y-116479873D01*
X122526788Y-116401232D01*
X122666928Y-116299414D01*
X122789414Y-116176928D01*
X122891232Y-116036788D01*
X122969873Y-115882445D01*
X122969874Y-115882440D01*
X122969876Y-115882438D01*
X123023401Y-115717706D01*
X123023402Y-115717702D01*
X123050500Y-115546614D01*
X123050500Y-115373385D01*
X123023402Y-115202297D01*
X123023401Y-115202293D01*
X122969876Y-115037561D01*
X122969874Y-115037558D01*
X122969873Y-115037557D01*
X122969873Y-115037555D01*
X122891232Y-114883212D01*
X122789414Y-114743072D01*
X122666928Y-114620586D01*
X122526788Y-114518768D01*
X122526787Y-114518767D01*
X122526785Y-114518766D01*
X122372441Y-114440125D01*
X122372438Y-114440123D01*
X122207706Y-114386598D01*
X122207702Y-114386597D01*
X122036614Y-114359500D01*
X122036611Y-114359500D01*
X120463389Y-114359500D01*
X120463386Y-114359500D01*
X120292297Y-114386597D01*
X120292293Y-114386598D01*
X120127561Y-114440123D01*
X120127558Y-114440125D01*
X119973214Y-114518766D01*
X119833073Y-114620585D01*
X119710585Y-114743073D01*
X119608766Y-114883214D01*
X119530125Y-115037558D01*
X119530123Y-115037561D01*
X119476598Y-115202293D01*
X119476597Y-115202297D01*
X119449500Y-115373385D01*
X118050500Y-115373385D01*
X118023402Y-115202297D01*
X118023401Y-115202293D01*
X117969876Y-115037561D01*
X117969874Y-115037558D01*
X117969873Y-115037557D01*
X117969873Y-115037555D01*
X117891232Y-114883212D01*
X117789414Y-114743072D01*
X117666928Y-114620586D01*
X117526788Y-114518768D01*
X117526787Y-114518767D01*
X117526785Y-114518766D01*
X117372441Y-114440125D01*
X117372438Y-114440123D01*
X117207706Y-114386598D01*
X117207702Y-114386597D01*
X117036614Y-114359500D01*
X117036611Y-114359500D01*
X115463389Y-114359500D01*
X115463386Y-114359500D01*
X115292297Y-114386597D01*
X115292293Y-114386598D01*
X115127561Y-114440123D01*
X115127558Y-114440125D01*
X114973214Y-114518766D01*
X114833073Y-114620585D01*
X114710585Y-114743073D01*
X114608766Y-114883214D01*
X114530125Y-115037558D01*
X114530123Y-115037561D01*
X114476598Y-115202293D01*
X114476597Y-115202297D01*
X114449500Y-115373385D01*
X110500500Y-115373385D01*
X110500500Y-112833385D01*
X114449500Y-112833385D01*
X114449500Y-113006614D01*
X114476597Y-113177702D01*
X114476598Y-113177706D01*
X114530123Y-113342438D01*
X114530125Y-113342441D01*
X114595373Y-113470500D01*
X114608768Y-113496788D01*
X114710586Y-113636928D01*
X114833072Y-113759414D01*
X114973212Y-113861232D01*
X115127555Y-113939873D01*
X115127557Y-113939873D01*
X115127558Y-113939874D01*
X115127561Y-113939876D01*
X115292293Y-113993401D01*
X115292297Y-113993402D01*
X115463386Y-114020500D01*
X115463389Y-114020500D01*
X117036614Y-114020500D01*
X117207702Y-113993402D01*
X117207706Y-113993401D01*
X117372438Y-113939876D01*
X117372440Y-113939874D01*
X117372445Y-113939873D01*
X117526788Y-113861232D01*
X117666928Y-113759414D01*
X117789414Y-113636928D01*
X117891232Y-113496788D01*
X117969873Y-113342445D01*
X117969874Y-113342440D01*
X117969876Y-113342438D01*
X118023401Y-113177706D01*
X118023402Y-113177702D01*
X118050500Y-113006614D01*
X118050500Y-112833385D01*
X119449500Y-112833385D01*
X119449500Y-113006614D01*
X119476597Y-113177702D01*
X119476598Y-113177706D01*
X119530123Y-113342438D01*
X119530125Y-113342441D01*
X119595373Y-113470500D01*
X119608768Y-113496788D01*
X119710586Y-113636928D01*
X119833072Y-113759414D01*
X119973212Y-113861232D01*
X120127555Y-113939873D01*
X120127557Y-113939873D01*
X120127558Y-113939874D01*
X120127561Y-113939876D01*
X120292293Y-113993401D01*
X120292297Y-113993402D01*
X120463386Y-114020500D01*
X120463389Y-114020500D01*
X122036614Y-114020500D01*
X122207702Y-113993402D01*
X122207706Y-113993401D01*
X122372438Y-113939876D01*
X122372440Y-113939874D01*
X122372445Y-113939873D01*
X122526788Y-113861232D01*
X122666928Y-113759414D01*
X122789414Y-113636928D01*
X122891232Y-113496788D01*
X122969873Y-113342445D01*
X122969874Y-113342440D01*
X122969876Y-113342438D01*
X123023401Y-113177706D01*
X123023402Y-113177702D01*
X123050500Y-113006614D01*
X123050500Y-112833385D01*
X123023402Y-112662297D01*
X123023401Y-112662293D01*
X122969876Y-112497561D01*
X122969874Y-112497558D01*
X122969873Y-112497557D01*
X122969873Y-112497555D01*
X122891232Y-112343212D01*
X122789414Y-112203072D01*
X122666928Y-112080586D01*
X122526788Y-111978768D01*
X122526787Y-111978767D01*
X122526785Y-111978766D01*
X122372441Y-111900125D01*
X122372438Y-111900123D01*
X122207706Y-111846598D01*
X122207702Y-111846597D01*
X122036614Y-111819500D01*
X122036611Y-111819500D01*
X120463389Y-111819500D01*
X120463386Y-111819500D01*
X120292297Y-111846597D01*
X120292293Y-111846598D01*
X120127561Y-111900123D01*
X120127558Y-111900125D01*
X119973214Y-111978766D01*
X119833073Y-112080585D01*
X119710585Y-112203073D01*
X119608766Y-112343214D01*
X119530125Y-112497558D01*
X119530123Y-112497561D01*
X119476598Y-112662293D01*
X119476597Y-112662297D01*
X119449500Y-112833385D01*
X118050500Y-112833385D01*
X118023402Y-112662297D01*
X118023401Y-112662293D01*
X117969876Y-112497561D01*
X117969874Y-112497558D01*
X117969873Y-112497557D01*
X117969873Y-112497555D01*
X117891232Y-112343212D01*
X117789414Y-112203072D01*
X117666928Y-112080586D01*
X117526788Y-111978768D01*
X117526787Y-111978767D01*
X117526785Y-111978766D01*
X117372441Y-111900125D01*
X117372438Y-111900123D01*
X117207706Y-111846598D01*
X117207702Y-111846597D01*
X117036614Y-111819500D01*
X117036611Y-111819500D01*
X115463389Y-111819500D01*
X115463386Y-111819500D01*
X115292297Y-111846597D01*
X115292293Y-111846598D01*
X115127561Y-111900123D01*
X115127558Y-111900125D01*
X114973214Y-111978766D01*
X114833073Y-112080585D01*
X114710585Y-112203073D01*
X114608766Y-112343214D01*
X114530125Y-112497558D01*
X114530123Y-112497561D01*
X114476598Y-112662293D01*
X114476597Y-112662297D01*
X114449500Y-112833385D01*
X110500500Y-112833385D01*
X110500500Y-109675725D01*
X114449500Y-109675725D01*
X114449500Y-111084274D01*
X114452353Y-111114694D01*
X114452355Y-111114703D01*
X114497207Y-111242883D01*
X114577845Y-111352144D01*
X114577847Y-111352146D01*
X114577850Y-111352150D01*
X114577853Y-111352152D01*
X114577855Y-111352154D01*
X114687116Y-111432792D01*
X114687117Y-111432792D01*
X114687118Y-111432793D01*
X114815301Y-111477646D01*
X114845725Y-111480499D01*
X114845727Y-111480500D01*
X114845734Y-111480500D01*
X117654273Y-111480500D01*
X117654273Y-111480499D01*
X117684699Y-111477646D01*
X117812882Y-111432793D01*
X117922150Y-111352150D01*
X118002793Y-111242882D01*
X118047646Y-111114699D01*
X118050499Y-111084273D01*
X118050500Y-111084273D01*
X118050500Y-109675727D01*
X118050499Y-109675725D01*
X119449500Y-109675725D01*
X119449500Y-111084274D01*
X119452353Y-111114694D01*
X119452355Y-111114703D01*
X119497207Y-111242883D01*
X119577845Y-111352144D01*
X119577847Y-111352146D01*
X119577850Y-111352150D01*
X119577853Y-111352152D01*
X119577855Y-111352154D01*
X119687116Y-111432792D01*
X119687117Y-111432792D01*
X119687118Y-111432793D01*
X119815301Y-111477646D01*
X119845725Y-111480499D01*
X119845727Y-111480500D01*
X119845734Y-111480500D01*
X122654273Y-111480500D01*
X122654273Y-111480499D01*
X122684699Y-111477646D01*
X122812882Y-111432793D01*
X122922150Y-111352150D01*
X123002793Y-111242882D01*
X123047646Y-111114699D01*
X123050499Y-111084273D01*
X123050500Y-111084273D01*
X123050500Y-109675727D01*
X123050499Y-109675725D01*
X123047646Y-109645305D01*
X123047646Y-109645301D01*
X123002793Y-109517118D01*
X122922150Y-109407850D01*
X122922146Y-109407847D01*
X122922144Y-109407845D01*
X122812883Y-109327207D01*
X122684703Y-109282355D01*
X122684694Y-109282353D01*
X122654274Y-109279500D01*
X122654266Y-109279500D01*
X119845734Y-109279500D01*
X119845725Y-109279500D01*
X119815305Y-109282353D01*
X119815296Y-109282355D01*
X119687116Y-109327207D01*
X119577855Y-109407845D01*
X119577845Y-109407855D01*
X119497207Y-109517116D01*
X119452355Y-109645296D01*
X119452353Y-109645305D01*
X119449500Y-109675725D01*
X118050499Y-109675725D01*
X118047646Y-109645305D01*
X118047646Y-109645301D01*
X118002793Y-109517118D01*
X117922150Y-109407850D01*
X117922146Y-109407847D01*
X117922144Y-109407845D01*
X117812883Y-109327207D01*
X117684703Y-109282355D01*
X117684694Y-109282353D01*
X117654274Y-109279500D01*
X117654266Y-109279500D01*
X114845734Y-109279500D01*
X114845725Y-109279500D01*
X114815305Y-109282353D01*
X114815296Y-109282355D01*
X114687116Y-109327207D01*
X114577855Y-109407845D01*
X114577845Y-109407855D01*
X114497207Y-109517116D01*
X114452355Y-109645296D01*
X114452353Y-109645305D01*
X114449500Y-109675725D01*
X110500500Y-109675725D01*
X110500500Y-90755515D01*
X115599500Y-90755515D01*
X115599500Y-98744484D01*
X115629058Y-98931113D01*
X115629060Y-98931118D01*
X115687453Y-99110832D01*
X115773240Y-99279199D01*
X115884310Y-99432074D01*
X126338465Y-109886229D01*
X126366241Y-109940744D01*
X126367460Y-109956231D01*
X126367460Y-129594484D01*
X126397018Y-129781113D01*
X126455413Y-129960832D01*
X126504689Y-130057543D01*
X126541200Y-130129199D01*
X126652270Y-130282073D01*
X126785887Y-130415690D01*
X126938761Y-130526760D01*
X127107128Y-130612547D01*
X127286842Y-130670940D01*
X127286843Y-130670940D01*
X127286846Y-130670941D01*
X127473476Y-130700500D01*
X127473479Y-130700500D01*
X127662444Y-130700500D01*
X127849073Y-130670941D01*
X127849074Y-130670940D01*
X127849078Y-130670940D01*
X128028792Y-130612547D01*
X128197159Y-130526760D01*
X128350033Y-130415690D01*
X128483650Y-130282073D01*
X128594720Y-130129199D01*
X128680507Y-129960832D01*
X128738900Y-129781118D01*
X128751827Y-129699500D01*
X128768460Y-129594484D01*
X128768460Y-128480253D01*
X146049500Y-128480253D01*
X146049500Y-131519746D01*
X146049501Y-131519758D01*
X146061132Y-131578227D01*
X146061134Y-131578233D01*
X146070548Y-131592322D01*
X146105448Y-131644552D01*
X146171769Y-131688867D01*
X146216231Y-131697711D01*
X146230241Y-131700498D01*
X146230246Y-131700498D01*
X146230252Y-131700500D01*
X146230253Y-131700500D01*
X147769747Y-131700500D01*
X147769748Y-131700500D01*
X147828231Y-131688867D01*
X147894552Y-131644552D01*
X147938867Y-131578231D01*
X147950500Y-131519748D01*
X147950500Y-129156381D01*
X151049500Y-129156381D01*
X151049500Y-130843618D01*
X151086026Y-131027249D01*
X151157677Y-131200229D01*
X151157681Y-131200238D01*
X151232065Y-131311559D01*
X151261698Y-131355908D01*
X151394092Y-131488302D01*
X151460463Y-131532649D01*
X151549761Y-131592318D01*
X151549767Y-131592320D01*
X151549769Y-131592322D01*
X151722749Y-131663973D01*
X151906384Y-131700500D01*
X151906385Y-131700500D01*
X152093615Y-131700500D01*
X152093616Y-131700500D01*
X152277251Y-131663973D01*
X152450231Y-131592322D01*
X152450234Y-131592319D01*
X152450238Y-131592318D01*
X152495187Y-131562282D01*
X152605908Y-131488302D01*
X152738302Y-131355908D01*
X152812282Y-131245187D01*
X152842318Y-131200238D01*
X152842319Y-131200234D01*
X152842322Y-131200231D01*
X152913973Y-131027251D01*
X152950500Y-130843616D01*
X152950500Y-129156384D01*
X152913973Y-128972749D01*
X152842322Y-128799769D01*
X152842320Y-128799767D01*
X152842318Y-128799761D01*
X152780766Y-128707644D01*
X152738302Y-128644092D01*
X152605908Y-128511698D01*
X152558829Y-128480241D01*
X152450238Y-128407681D01*
X152450229Y-128407677D01*
X152277249Y-128336026D01*
X152093618Y-128299500D01*
X152093616Y-128299500D01*
X151906384Y-128299500D01*
X151906381Y-128299500D01*
X151722750Y-128336026D01*
X151549770Y-128407677D01*
X151549761Y-128407681D01*
X151394092Y-128511698D01*
X151394088Y-128511701D01*
X151261701Y-128644088D01*
X151261698Y-128644092D01*
X151157681Y-128799761D01*
X151157677Y-128799770D01*
X151086026Y-128972750D01*
X151049500Y-129156381D01*
X147950500Y-129156381D01*
X147950500Y-128480252D01*
X147938867Y-128421769D01*
X147894552Y-128355448D01*
X147894548Y-128355445D01*
X147828233Y-128311134D01*
X147828231Y-128311133D01*
X147828228Y-128311132D01*
X147828227Y-128311132D01*
X147769758Y-128299501D01*
X147769748Y-128299500D01*
X146230252Y-128299500D01*
X146230251Y-128299500D01*
X146230241Y-128299501D01*
X146171772Y-128311132D01*
X146171766Y-128311134D01*
X146105451Y-128355445D01*
X146105445Y-128355451D01*
X146061134Y-128421766D01*
X146061132Y-128421772D01*
X146049501Y-128480241D01*
X146049500Y-128480253D01*
X128768460Y-128480253D01*
X128768460Y-122160000D01*
X145094700Y-122160000D01*
X145113865Y-122391303D01*
X145141985Y-122502344D01*
X145170843Y-122616300D01*
X145264076Y-122828849D01*
X145391021Y-123023153D01*
X145548216Y-123193913D01*
X145731374Y-123336470D01*
X145935497Y-123446936D01*
X146155019Y-123522298D01*
X146383951Y-123560500D01*
X146616049Y-123560500D01*
X146844981Y-123522298D01*
X147064503Y-123446936D01*
X147268626Y-123336470D01*
X147451784Y-123193913D01*
X147608979Y-123023153D01*
X147735924Y-122828849D01*
X147829157Y-122616300D01*
X147886134Y-122391305D01*
X147905300Y-122160000D01*
X147886134Y-121928695D01*
X147829157Y-121703700D01*
X147735924Y-121491151D01*
X147608979Y-121296847D01*
X147451784Y-121126087D01*
X147371245Y-121063401D01*
X147268629Y-120983532D01*
X147268626Y-120983530D01*
X147064506Y-120873065D01*
X147048221Y-120867474D01*
X146844981Y-120797702D01*
X146844978Y-120797701D01*
X146844977Y-120797701D01*
X146616049Y-120759500D01*
X146383951Y-120759500D01*
X146155022Y-120797701D01*
X145935493Y-120873065D01*
X145731373Y-120983530D01*
X145731370Y-120983532D01*
X145548219Y-121126084D01*
X145548216Y-121126086D01*
X145548216Y-121126087D01*
X145391021Y-121296847D01*
X145264076Y-121491151D01*
X145176596Y-121690586D01*
X145170843Y-121703701D01*
X145113865Y-121928696D01*
X145094700Y-122160000D01*
X128768460Y-122160000D01*
X128768460Y-111738271D01*
X128787367Y-111680080D01*
X128797456Y-111668267D01*
X144236227Y-96229496D01*
X144290744Y-96201719D01*
X144306231Y-96200500D01*
X146032507Y-96200500D01*
X146090698Y-96219407D01*
X146126662Y-96268907D01*
X146126662Y-96330093D01*
X146122560Y-96340627D01*
X146114834Y-96357543D01*
X146094353Y-96499997D01*
X146094353Y-96500002D01*
X146114834Y-96642456D01*
X146174622Y-96773371D01*
X146174623Y-96773373D01*
X146247556Y-96857543D01*
X146268873Y-96882144D01*
X146323866Y-96917485D01*
X146389947Y-96959953D01*
X146412281Y-96966510D01*
X146454392Y-96991495D01*
X147670504Y-98207607D01*
X147698281Y-98262124D01*
X147699500Y-98277611D01*
X147699500Y-100809309D01*
X147699524Y-100809492D01*
X147699500Y-100809621D01*
X147699500Y-100815798D01*
X147698355Y-100815798D01*
X147688370Y-100869652D01*
X147643986Y-100911767D01*
X147583324Y-100919750D01*
X147529554Y-100890552D01*
X147528593Y-100889524D01*
X147451784Y-100806087D01*
X147268626Y-100663530D01*
X147064506Y-100553065D01*
X147001567Y-100531458D01*
X146844981Y-100477702D01*
X146844978Y-100477701D01*
X146844977Y-100477701D01*
X146616049Y-100439500D01*
X146383951Y-100439500D01*
X146155022Y-100477701D01*
X145935493Y-100553065D01*
X145731373Y-100663530D01*
X145731370Y-100663532D01*
X145548219Y-100806084D01*
X145548216Y-100806086D01*
X145548216Y-100806087D01*
X145495464Y-100863391D01*
X145391020Y-100976848D01*
X145264075Y-101171153D01*
X145257446Y-101186265D01*
X145170843Y-101383700D01*
X145156414Y-101440678D01*
X145113865Y-101608696D01*
X145094700Y-101840000D01*
X145113865Y-102071303D01*
X145126293Y-102120378D01*
X145170843Y-102296300D01*
X145264076Y-102508849D01*
X145391021Y-102703153D01*
X145548216Y-102873913D01*
X145731374Y-103016470D01*
X145935497Y-103126936D01*
X146155019Y-103202298D01*
X146383951Y-103240500D01*
X146616049Y-103240500D01*
X146844981Y-103202298D01*
X147064503Y-103126936D01*
X147268626Y-103016470D01*
X147451784Y-102873913D01*
X147608979Y-102703153D01*
X147735924Y-102508849D01*
X147829157Y-102296300D01*
X147886134Y-102071305D01*
X147905300Y-101840000D01*
X147886134Y-101608695D01*
X147829157Y-101383700D01*
X147792427Y-101299966D01*
X147786368Y-101239083D01*
X147817253Y-101186265D01*
X147873285Y-101161687D01*
X147933062Y-101174738D01*
X147953089Y-101190192D01*
X148834200Y-102071303D01*
X149490506Y-102727609D01*
X149510555Y-102756486D01*
X149554954Y-102853704D01*
X149572467Y-102873915D01*
X149649204Y-102962475D01*
X149770273Y-103040281D01*
X149770278Y-103040284D01*
X149876734Y-103071542D01*
X149908366Y-103080830D01*
X149908367Y-103080830D01*
X149908370Y-103080831D01*
X149908372Y-103080831D01*
X150052290Y-103080831D01*
X150052292Y-103080831D01*
X150190384Y-103040284D01*
X150311459Y-102962474D01*
X150405708Y-102853704D01*
X150465496Y-102722788D01*
X150485978Y-102580331D01*
X150485978Y-102580328D01*
X150478395Y-102527586D01*
X150488828Y-102467297D01*
X150532706Y-102424654D01*
X150593269Y-102415947D01*
X150646388Y-102443491D01*
X151562397Y-103359500D01*
X152395030Y-104192133D01*
X152422807Y-104246650D01*
X152413236Y-104307082D01*
X152410763Y-104311635D01*
X152373264Y-104376586D01*
X152373254Y-104376608D01*
X152274666Y-104627802D01*
X152214618Y-104890892D01*
X152214616Y-104890901D01*
X152194451Y-105159997D01*
X152194451Y-105160002D01*
X152214616Y-105429098D01*
X152214618Y-105429107D01*
X152274666Y-105692197D01*
X152373254Y-105943391D01*
X152373257Y-105943398D01*
X152508185Y-106177102D01*
X152508189Y-106177108D01*
X152508191Y-106177110D01*
X152676434Y-106388081D01*
X152676440Y-106388087D01*
X152874254Y-106571631D01*
X152874256Y-106571632D01*
X152874259Y-106571635D01*
X152884626Y-106578703D01*
X152922054Y-106627106D01*
X152923883Y-106688264D01*
X152889415Y-106738817D01*
X152831816Y-106759456D01*
X152828856Y-106759500D01*
X148875479Y-106759500D01*
X148817288Y-106740593D01*
X148805475Y-106730504D01*
X143430546Y-101355575D01*
X143402769Y-101301058D01*
X143402558Y-101271482D01*
X143405647Y-101250000D01*
X143404077Y-101239083D01*
X143385165Y-101107543D01*
X143380397Y-101097102D01*
X143325377Y-100976627D01*
X143231128Y-100867857D01*
X143231127Y-100867856D01*
X143231126Y-100867855D01*
X143110057Y-100790049D01*
X143110054Y-100790047D01*
X143110053Y-100790047D01*
X143110050Y-100790046D01*
X142971964Y-100749500D01*
X142971961Y-100749500D01*
X142828039Y-100749500D01*
X142828035Y-100749500D01*
X142689949Y-100790046D01*
X142689942Y-100790049D01*
X142568872Y-100867856D01*
X142564830Y-100871359D01*
X142508471Y-100895176D01*
X142448876Y-100881317D01*
X142435170Y-100871359D01*
X142431127Y-100867856D01*
X142310057Y-100790049D01*
X142310054Y-100790047D01*
X142310053Y-100790047D01*
X142310050Y-100790046D01*
X142171964Y-100749500D01*
X142171961Y-100749500D01*
X142028039Y-100749500D01*
X142028035Y-100749500D01*
X141889949Y-100790046D01*
X141889942Y-100790049D01*
X141768872Y-100867856D01*
X141764830Y-100871359D01*
X141708471Y-100895176D01*
X141648876Y-100881317D01*
X141635170Y-100871359D01*
X141631127Y-100867856D01*
X141510057Y-100790049D01*
X141510054Y-100790047D01*
X141510053Y-100790047D01*
X141510050Y-100790046D01*
X141371964Y-100749500D01*
X141371961Y-100749500D01*
X141228039Y-100749500D01*
X141228035Y-100749500D01*
X141089949Y-100790046D01*
X141089942Y-100790049D01*
X140968872Y-100867856D01*
X140964830Y-100871359D01*
X140908471Y-100895176D01*
X140848876Y-100881317D01*
X140835170Y-100871359D01*
X140831127Y-100867856D01*
X140710057Y-100790049D01*
X140710054Y-100790047D01*
X140710053Y-100790047D01*
X140710050Y-100790046D01*
X140571964Y-100749500D01*
X140571961Y-100749500D01*
X140428039Y-100749500D01*
X140428035Y-100749500D01*
X140289949Y-100790046D01*
X140289942Y-100790049D01*
X140168873Y-100867855D01*
X140074622Y-100976628D01*
X140014834Y-101107543D01*
X139994353Y-101249997D01*
X139994353Y-101250002D01*
X140014834Y-101392456D01*
X140072767Y-101519309D01*
X140074623Y-101523373D01*
X140148555Y-101608696D01*
X140168873Y-101632144D01*
X140267094Y-101695266D01*
X140283575Y-101708546D01*
X143995504Y-105420475D01*
X144023281Y-105474992D01*
X144024500Y-105490479D01*
X144024500Y-113464564D01*
X144026091Y-113470500D01*
X144044979Y-113540989D01*
X144044982Y-113540994D01*
X144045437Y-113541782D01*
X144045439Y-113541789D01*
X144045440Y-113541789D01*
X144084538Y-113609508D01*
X144084540Y-113609511D01*
X152403724Y-121928695D01*
X160569453Y-130094424D01*
X160597230Y-130148941D01*
X160597441Y-130178514D01*
X160594354Y-130199997D01*
X160594353Y-130200002D01*
X160614834Y-130342456D01*
X160674622Y-130473371D01*
X160674623Y-130473373D01*
X160720883Y-130526760D01*
X160768873Y-130582144D01*
X160889942Y-130659950D01*
X160889947Y-130659953D01*
X160996403Y-130691211D01*
X161028035Y-130700499D01*
X161028036Y-130700499D01*
X161028039Y-130700500D01*
X161028041Y-130700500D01*
X161171959Y-130700500D01*
X161171961Y-130700500D01*
X161310053Y-130659953D01*
X161431128Y-130582143D01*
X161525377Y-130473373D01*
X161585165Y-130342457D01*
X161605647Y-130200000D01*
X161595467Y-130129199D01*
X161585165Y-130057543D01*
X161525377Y-129926628D01*
X161525377Y-129926627D01*
X161431128Y-129817857D01*
X161431127Y-129817856D01*
X161431126Y-129817855D01*
X161310057Y-129740049D01*
X161310054Y-129740047D01*
X161310053Y-129740047D01*
X161310050Y-129740046D01*
X161171964Y-129699500D01*
X161171961Y-129699500D01*
X161065479Y-129699500D01*
X161007288Y-129680593D01*
X160995475Y-129670504D01*
X144654496Y-113329525D01*
X144626719Y-113275008D01*
X144625500Y-113259521D01*
X144625500Y-105723792D01*
X144644407Y-105665601D01*
X144693907Y-105629637D01*
X144755093Y-105629637D01*
X144794501Y-105653786D01*
X159581175Y-120440460D01*
X159581177Y-120440461D01*
X159581179Y-120440463D01*
X159649694Y-120480020D01*
X159649692Y-120480020D01*
X159649696Y-120480021D01*
X159649698Y-120480022D01*
X159726124Y-120500500D01*
X160652917Y-120500500D01*
X160711108Y-120519407D01*
X160727733Y-120534667D01*
X160768872Y-120582143D01*
X160889947Y-120659953D01*
X160996403Y-120691211D01*
X161028035Y-120700499D01*
X161028036Y-120700499D01*
X161028039Y-120700500D01*
X161028041Y-120700500D01*
X161171959Y-120700500D01*
X161171961Y-120700500D01*
X161310053Y-120659953D01*
X161431128Y-120582143D01*
X161525377Y-120473373D01*
X161585165Y-120342457D01*
X161605647Y-120200000D01*
X161593793Y-120117555D01*
X161585165Y-120057543D01*
X161525377Y-119926628D01*
X161525377Y-119926627D01*
X161431128Y-119817857D01*
X161431127Y-119817856D01*
X161431126Y-119817855D01*
X161310057Y-119740049D01*
X161310054Y-119740047D01*
X161310053Y-119740047D01*
X161310050Y-119740046D01*
X161171964Y-119699500D01*
X161171961Y-119699500D01*
X161028039Y-119699500D01*
X161028035Y-119699500D01*
X160889949Y-119740046D01*
X160889942Y-119740049D01*
X160768876Y-119817854D01*
X160768871Y-119817858D01*
X160727736Y-119865331D01*
X160675340Y-119896927D01*
X160652917Y-119899500D01*
X159931165Y-119899500D01*
X159872974Y-119880593D01*
X159861161Y-119870504D01*
X148800161Y-108809504D01*
X148772384Y-108754987D01*
X148781955Y-108694555D01*
X148825220Y-108651290D01*
X148870165Y-108640500D01*
X159174521Y-108640500D01*
X159232712Y-108659407D01*
X159244525Y-108669496D01*
X160569453Y-109994424D01*
X160597230Y-110048941D01*
X160597441Y-110078514D01*
X160594354Y-110099997D01*
X160594353Y-110100002D01*
X160614834Y-110242456D01*
X160619396Y-110252445D01*
X160674623Y-110373373D01*
X160768872Y-110482143D01*
X160768873Y-110482144D01*
X160889942Y-110559950D01*
X160889947Y-110559953D01*
X160996403Y-110591211D01*
X161028035Y-110600499D01*
X161028036Y-110600499D01*
X161028039Y-110600500D01*
X161028041Y-110600500D01*
X161171959Y-110600500D01*
X161171961Y-110600500D01*
X161310053Y-110559953D01*
X161431128Y-110482143D01*
X161525377Y-110373373D01*
X161585165Y-110242457D01*
X161605647Y-110100000D01*
X161603879Y-110087706D01*
X161585165Y-109957543D01*
X161565838Y-109915224D01*
X161525377Y-109826627D01*
X161431128Y-109717857D01*
X161431127Y-109717856D01*
X161431126Y-109717855D01*
X161310057Y-109640049D01*
X161310054Y-109640047D01*
X161310053Y-109640047D01*
X161310050Y-109640046D01*
X161171964Y-109599500D01*
X161171961Y-109599500D01*
X161065479Y-109599500D01*
X161007288Y-109580593D01*
X160995475Y-109570504D01*
X160313737Y-108888766D01*
X159524511Y-108099540D01*
X159524508Y-108099538D01*
X159508801Y-108090469D01*
X159508801Y-108090470D01*
X159455989Y-108059979D01*
X159455988Y-108059978D01*
X159455987Y-108059978D01*
X159379564Y-108039500D01*
X159379562Y-108039500D01*
X148636851Y-108039500D01*
X148578660Y-108020593D01*
X148566847Y-108010504D01*
X142429496Y-101873153D01*
X142401719Y-101818636D01*
X142400500Y-101803149D01*
X142400500Y-101703894D01*
X142419407Y-101645703D01*
X142434605Y-101629130D01*
X142435105Y-101628696D01*
X142491444Y-101604830D01*
X142551051Y-101618638D01*
X142564835Y-101628644D01*
X142568866Y-101632137D01*
X142568872Y-101632143D01*
X142620545Y-101665351D01*
X142687757Y-101708546D01*
X142689947Y-101709953D01*
X142780747Y-101736614D01*
X142828035Y-101750499D01*
X142828036Y-101750499D01*
X142828039Y-101750500D01*
X142828041Y-101750500D01*
X142934521Y-101750500D01*
X142992712Y-101769407D01*
X143004525Y-101779496D01*
X148469540Y-107244511D01*
X148469539Y-107244511D01*
X148525489Y-107300460D01*
X148594007Y-107340019D01*
X148594011Y-107340021D01*
X148670435Y-107360499D01*
X148670437Y-107360500D01*
X148670438Y-107360500D01*
X155579563Y-107360500D01*
X155579563Y-107360499D01*
X155655989Y-107340021D01*
X155724511Y-107300460D01*
X155780460Y-107244511D01*
X161340460Y-101684511D01*
X161368672Y-101635646D01*
X161380021Y-101615989D01*
X161400500Y-101539562D01*
X161400500Y-100553893D01*
X161419407Y-100495702D01*
X161426741Y-100487711D01*
X161426491Y-100487494D01*
X161434977Y-100477701D01*
X161525377Y-100373373D01*
X161585165Y-100242457D01*
X161605647Y-100100000D01*
X161602771Y-100080000D01*
X161585165Y-99957543D01*
X161525377Y-99826628D01*
X161525377Y-99826627D01*
X161525374Y-99826624D01*
X161522373Y-99821953D01*
X161506817Y-99762778D01*
X161529015Y-99705761D01*
X161580487Y-99672681D01*
X161641573Y-99676173D01*
X161675660Y-99698424D01*
X170970504Y-108993268D01*
X170998281Y-109047785D01*
X170999500Y-109063272D01*
X170999500Y-126919484D01*
X171029058Y-127106113D01*
X171087453Y-127285832D01*
X171167570Y-127443072D01*
X171173240Y-127454199D01*
X171284310Y-127607073D01*
X171417927Y-127740690D01*
X171570801Y-127851760D01*
X171739168Y-127937547D01*
X171918882Y-127995940D01*
X171918883Y-127995940D01*
X171918886Y-127995941D01*
X172105516Y-128025500D01*
X172105519Y-128025500D01*
X172294484Y-128025500D01*
X172481113Y-127995941D01*
X172481114Y-127995940D01*
X172481118Y-127995940D01*
X172660832Y-127937547D01*
X172829199Y-127851760D01*
X172982073Y-127740690D01*
X173115690Y-127607073D01*
X173226760Y-127454199D01*
X173312547Y-127285832D01*
X173370940Y-127106118D01*
X173374032Y-127086597D01*
X173400500Y-126919484D01*
X173400500Y-126905725D01*
X176717460Y-126905725D01*
X176717460Y-128314274D01*
X176720313Y-128344694D01*
X176720315Y-128344703D01*
X176765167Y-128472883D01*
X176845805Y-128582144D01*
X176845807Y-128582146D01*
X176845810Y-128582150D01*
X176845813Y-128582152D01*
X176845815Y-128582154D01*
X176955076Y-128662792D01*
X176955077Y-128662792D01*
X176955078Y-128662793D01*
X177083261Y-128707646D01*
X177113685Y-128710499D01*
X177113687Y-128710500D01*
X177113694Y-128710500D01*
X179922233Y-128710500D01*
X179922233Y-128710499D01*
X179952659Y-128707646D01*
X180080842Y-128662793D01*
X180190110Y-128582150D01*
X180270753Y-128472882D01*
X180315606Y-128344699D01*
X180318459Y-128314273D01*
X180318460Y-128314273D01*
X180318460Y-126905727D01*
X180318459Y-126905725D01*
X181717460Y-126905725D01*
X181717460Y-128314274D01*
X181720313Y-128344694D01*
X181720315Y-128344703D01*
X181765167Y-128472883D01*
X181845805Y-128582144D01*
X181845807Y-128582146D01*
X181845810Y-128582150D01*
X181845813Y-128582152D01*
X181845815Y-128582154D01*
X181955076Y-128662792D01*
X181955077Y-128662792D01*
X181955078Y-128662793D01*
X182083261Y-128707646D01*
X182113685Y-128710499D01*
X182113687Y-128710500D01*
X182113694Y-128710500D01*
X184922233Y-128710500D01*
X184922233Y-128710499D01*
X184952659Y-128707646D01*
X185080842Y-128662793D01*
X185190110Y-128582150D01*
X185270753Y-128472882D01*
X185315606Y-128344699D01*
X185318459Y-128314273D01*
X185318460Y-128314273D01*
X185318460Y-126905727D01*
X185318459Y-126905725D01*
X185315606Y-126875305D01*
X185315606Y-126875301D01*
X185270753Y-126747118D01*
X185251108Y-126720500D01*
X185190114Y-126637855D01*
X185190112Y-126637853D01*
X185190110Y-126637850D01*
X185190106Y-126637847D01*
X185190104Y-126637845D01*
X185080843Y-126557207D01*
X184952663Y-126512355D01*
X184952654Y-126512353D01*
X184922234Y-126509500D01*
X184922226Y-126509500D01*
X182113694Y-126509500D01*
X182113685Y-126509500D01*
X182083265Y-126512353D01*
X182083256Y-126512355D01*
X181955076Y-126557207D01*
X181845815Y-126637845D01*
X181845805Y-126637855D01*
X181765167Y-126747116D01*
X181720315Y-126875296D01*
X181720313Y-126875305D01*
X181717460Y-126905725D01*
X180318459Y-126905725D01*
X180315606Y-126875305D01*
X180315606Y-126875301D01*
X180270753Y-126747118D01*
X180251108Y-126720500D01*
X180190114Y-126637855D01*
X180190112Y-126637853D01*
X180190110Y-126637850D01*
X180190106Y-126637847D01*
X180190104Y-126637845D01*
X180080843Y-126557207D01*
X179952663Y-126512355D01*
X179952654Y-126512353D01*
X179922234Y-126509500D01*
X179922226Y-126509500D01*
X177113694Y-126509500D01*
X177113685Y-126509500D01*
X177083265Y-126512353D01*
X177083256Y-126512355D01*
X176955076Y-126557207D01*
X176845815Y-126637845D01*
X176845805Y-126637855D01*
X176765167Y-126747116D01*
X176720315Y-126875296D01*
X176720313Y-126875305D01*
X176717460Y-126905725D01*
X173400500Y-126905725D01*
X173400500Y-124983385D01*
X176717460Y-124983385D01*
X176717460Y-125156614D01*
X176744557Y-125327702D01*
X176744558Y-125327706D01*
X176798083Y-125492438D01*
X176798085Y-125492441D01*
X176798086Y-125492444D01*
X176798087Y-125492445D01*
X176876728Y-125646788D01*
X176978546Y-125786928D01*
X177101032Y-125909414D01*
X177241172Y-126011232D01*
X177395515Y-126089873D01*
X177395517Y-126089873D01*
X177395518Y-126089874D01*
X177395521Y-126089876D01*
X177560253Y-126143401D01*
X177560257Y-126143402D01*
X177731346Y-126170500D01*
X177731349Y-126170500D01*
X179304574Y-126170500D01*
X179475662Y-126143402D01*
X179475666Y-126143401D01*
X179640398Y-126089876D01*
X179640400Y-126089874D01*
X179640405Y-126089873D01*
X179794748Y-126011232D01*
X179934888Y-125909414D01*
X180057374Y-125786928D01*
X180159192Y-125646788D01*
X180237833Y-125492445D01*
X180237834Y-125492440D01*
X180237836Y-125492438D01*
X180291361Y-125327706D01*
X180291362Y-125327702D01*
X180318460Y-125156614D01*
X180318460Y-124983385D01*
X181717460Y-124983385D01*
X181717460Y-125156614D01*
X181744557Y-125327702D01*
X181744558Y-125327706D01*
X181798083Y-125492438D01*
X181798085Y-125492441D01*
X181798086Y-125492444D01*
X181798087Y-125492445D01*
X181876728Y-125646788D01*
X181978546Y-125786928D01*
X182101032Y-125909414D01*
X182241172Y-126011232D01*
X182395515Y-126089873D01*
X182395517Y-126089873D01*
X182395518Y-126089874D01*
X182395521Y-126089876D01*
X182560253Y-126143401D01*
X182560257Y-126143402D01*
X182731346Y-126170500D01*
X182731349Y-126170500D01*
X184304574Y-126170500D01*
X184475662Y-126143402D01*
X184475666Y-126143401D01*
X184640398Y-126089876D01*
X184640400Y-126089874D01*
X184640405Y-126089873D01*
X184794748Y-126011232D01*
X184934888Y-125909414D01*
X185057374Y-125786928D01*
X185159192Y-125646788D01*
X185237833Y-125492445D01*
X185237834Y-125492440D01*
X185237836Y-125492438D01*
X185291361Y-125327706D01*
X185291362Y-125327702D01*
X185318460Y-125156614D01*
X185318460Y-124983385D01*
X185291362Y-124812297D01*
X185291361Y-124812293D01*
X185237836Y-124647561D01*
X185237834Y-124647558D01*
X185237833Y-124647557D01*
X185237833Y-124647555D01*
X185159192Y-124493212D01*
X185057374Y-124353072D01*
X184934888Y-124230586D01*
X184794748Y-124128768D01*
X184794747Y-124128767D01*
X184794745Y-124128766D01*
X184640401Y-124050125D01*
X184640398Y-124050123D01*
X184475666Y-123996598D01*
X184475662Y-123996597D01*
X184304574Y-123969500D01*
X184304571Y-123969500D01*
X182731349Y-123969500D01*
X182731346Y-123969500D01*
X182560257Y-123996597D01*
X182560253Y-123996598D01*
X182395521Y-124050123D01*
X182395518Y-124050125D01*
X182241174Y-124128766D01*
X182101033Y-124230585D01*
X181978545Y-124353073D01*
X181876726Y-124493214D01*
X181798085Y-124647558D01*
X181798083Y-124647561D01*
X181744558Y-124812293D01*
X181744557Y-124812297D01*
X181717460Y-124983385D01*
X180318460Y-124983385D01*
X180291362Y-124812297D01*
X180291361Y-124812293D01*
X180237836Y-124647561D01*
X180237834Y-124647558D01*
X180237833Y-124647557D01*
X180237833Y-124647555D01*
X180159192Y-124493212D01*
X180057374Y-124353072D01*
X179934888Y-124230586D01*
X179794748Y-124128768D01*
X179794747Y-124128767D01*
X179794745Y-124128766D01*
X179640401Y-124050125D01*
X179640398Y-124050123D01*
X179475666Y-123996598D01*
X179475662Y-123996597D01*
X179304574Y-123969500D01*
X179304571Y-123969500D01*
X177731349Y-123969500D01*
X177731346Y-123969500D01*
X177560257Y-123996597D01*
X177560253Y-123996598D01*
X177395521Y-124050123D01*
X177395518Y-124050125D01*
X177241174Y-124128766D01*
X177101033Y-124230585D01*
X176978545Y-124353073D01*
X176876726Y-124493214D01*
X176798085Y-124647558D01*
X176798083Y-124647561D01*
X176744558Y-124812293D01*
X176744557Y-124812297D01*
X176717460Y-124983385D01*
X173400500Y-124983385D01*
X173400500Y-122443385D01*
X176717460Y-122443385D01*
X176717460Y-122616614D01*
X176744557Y-122787702D01*
X176744558Y-122787706D01*
X176798083Y-122952438D01*
X176798085Y-122952441D01*
X176798086Y-122952444D01*
X176798087Y-122952445D01*
X176876728Y-123106788D01*
X176978546Y-123246928D01*
X177101032Y-123369414D01*
X177241172Y-123471232D01*
X177395515Y-123549873D01*
X177395517Y-123549873D01*
X177395518Y-123549874D01*
X177395521Y-123549876D01*
X177560253Y-123603401D01*
X177560257Y-123603402D01*
X177731346Y-123630500D01*
X177731349Y-123630500D01*
X179304574Y-123630500D01*
X179475662Y-123603402D01*
X179475666Y-123603401D01*
X179640398Y-123549876D01*
X179640400Y-123549874D01*
X179640405Y-123549873D01*
X179794748Y-123471232D01*
X179934888Y-123369414D01*
X180057374Y-123246928D01*
X180159192Y-123106788D01*
X180237833Y-122952445D01*
X180237834Y-122952440D01*
X180237836Y-122952438D01*
X180291361Y-122787706D01*
X180291362Y-122787702D01*
X180318460Y-122616614D01*
X180318460Y-122443385D01*
X181717460Y-122443385D01*
X181717460Y-122616614D01*
X181744557Y-122787702D01*
X181744558Y-122787706D01*
X181798083Y-122952438D01*
X181798085Y-122952441D01*
X181798086Y-122952444D01*
X181798087Y-122952445D01*
X181876728Y-123106788D01*
X181978546Y-123246928D01*
X182101032Y-123369414D01*
X182241172Y-123471232D01*
X182395515Y-123549873D01*
X182395517Y-123549873D01*
X182395518Y-123549874D01*
X182395521Y-123549876D01*
X182560253Y-123603401D01*
X182560257Y-123603402D01*
X182731346Y-123630500D01*
X182731349Y-123630500D01*
X184304574Y-123630500D01*
X184475662Y-123603402D01*
X184475666Y-123603401D01*
X184640398Y-123549876D01*
X184640400Y-123549874D01*
X184640405Y-123549873D01*
X184794748Y-123471232D01*
X184934888Y-123369414D01*
X185057374Y-123246928D01*
X185159192Y-123106788D01*
X185237833Y-122952445D01*
X185237834Y-122952440D01*
X185237836Y-122952438D01*
X185291361Y-122787706D01*
X185291362Y-122787702D01*
X185318460Y-122616614D01*
X185318460Y-122443385D01*
X185291362Y-122272297D01*
X185291361Y-122272293D01*
X185237836Y-122107561D01*
X185237834Y-122107558D01*
X185237833Y-122107557D01*
X185237833Y-122107555D01*
X185159192Y-121953212D01*
X185057374Y-121813072D01*
X184934888Y-121690586D01*
X184794748Y-121588768D01*
X184794747Y-121588767D01*
X184794745Y-121588766D01*
X184640401Y-121510125D01*
X184640398Y-121510123D01*
X184475666Y-121456598D01*
X184475662Y-121456597D01*
X184304574Y-121429500D01*
X184304571Y-121429500D01*
X182731349Y-121429500D01*
X182731346Y-121429500D01*
X182560257Y-121456597D01*
X182560253Y-121456598D01*
X182395521Y-121510123D01*
X182395518Y-121510125D01*
X182241174Y-121588766D01*
X182101033Y-121690585D01*
X181978545Y-121813073D01*
X181876726Y-121953214D01*
X181798085Y-122107558D01*
X181798083Y-122107561D01*
X181744558Y-122272293D01*
X181744557Y-122272297D01*
X181717460Y-122443385D01*
X180318460Y-122443385D01*
X180291362Y-122272297D01*
X180291361Y-122272293D01*
X180237836Y-122107561D01*
X180237834Y-122107558D01*
X180237833Y-122107557D01*
X180237833Y-122107555D01*
X180159192Y-121953212D01*
X180057374Y-121813072D01*
X179934888Y-121690586D01*
X179794748Y-121588768D01*
X179794747Y-121588767D01*
X179794745Y-121588766D01*
X179640401Y-121510125D01*
X179640398Y-121510123D01*
X179475666Y-121456598D01*
X179475662Y-121456597D01*
X179304574Y-121429500D01*
X179304571Y-121429500D01*
X177731349Y-121429500D01*
X177731346Y-121429500D01*
X177560257Y-121456597D01*
X177560253Y-121456598D01*
X177395521Y-121510123D01*
X177395518Y-121510125D01*
X177241174Y-121588766D01*
X177101033Y-121690585D01*
X176978545Y-121813073D01*
X176876726Y-121953214D01*
X176798085Y-122107558D01*
X176798083Y-122107561D01*
X176744558Y-122272293D01*
X176744557Y-122272297D01*
X176717460Y-122443385D01*
X173400500Y-122443385D01*
X173400500Y-119903385D01*
X176717460Y-119903385D01*
X176717460Y-120076614D01*
X176744557Y-120247702D01*
X176744558Y-120247706D01*
X176798083Y-120412438D01*
X176798085Y-120412441D01*
X176860362Y-120534669D01*
X176876728Y-120566788D01*
X176978546Y-120706928D01*
X177101032Y-120829414D01*
X177241172Y-120931232D01*
X177395515Y-121009873D01*
X177395517Y-121009873D01*
X177395518Y-121009874D01*
X177395521Y-121009876D01*
X177560253Y-121063401D01*
X177560257Y-121063402D01*
X177731346Y-121090500D01*
X177731349Y-121090500D01*
X179304574Y-121090500D01*
X179475662Y-121063402D01*
X179475666Y-121063401D01*
X179640398Y-121009876D01*
X179640400Y-121009874D01*
X179640405Y-121009873D01*
X179794748Y-120931232D01*
X179934888Y-120829414D01*
X180057374Y-120706928D01*
X180159192Y-120566788D01*
X180237833Y-120412445D01*
X180237834Y-120412440D01*
X180237836Y-120412438D01*
X180291361Y-120247706D01*
X180291362Y-120247702D01*
X180318460Y-120076614D01*
X180318460Y-119903385D01*
X181717460Y-119903385D01*
X181717460Y-120076614D01*
X181744557Y-120247702D01*
X181744558Y-120247706D01*
X181798083Y-120412438D01*
X181798085Y-120412441D01*
X181860362Y-120534669D01*
X181876728Y-120566788D01*
X181978546Y-120706928D01*
X182101032Y-120829414D01*
X182241172Y-120931232D01*
X182395515Y-121009873D01*
X182395517Y-121009873D01*
X182395518Y-121009874D01*
X182395521Y-121009876D01*
X182560253Y-121063401D01*
X182560257Y-121063402D01*
X182731346Y-121090500D01*
X182731349Y-121090500D01*
X184304574Y-121090500D01*
X184475662Y-121063402D01*
X184475666Y-121063401D01*
X184640398Y-121009876D01*
X184640400Y-121009874D01*
X184640405Y-121009873D01*
X184794748Y-120931232D01*
X184934888Y-120829414D01*
X185057374Y-120706928D01*
X185159192Y-120566788D01*
X185237833Y-120412445D01*
X185237834Y-120412440D01*
X185237836Y-120412438D01*
X185291361Y-120247706D01*
X185291362Y-120247702D01*
X185318460Y-120076614D01*
X185318460Y-119903385D01*
X185291362Y-119732297D01*
X185291361Y-119732293D01*
X185237836Y-119567561D01*
X185237834Y-119567558D01*
X185237833Y-119567557D01*
X185237833Y-119567555D01*
X185159192Y-119413212D01*
X185057374Y-119273072D01*
X184934888Y-119150586D01*
X184794748Y-119048768D01*
X184794747Y-119048767D01*
X184794745Y-119048766D01*
X184640401Y-118970125D01*
X184640398Y-118970123D01*
X184475666Y-118916598D01*
X184475662Y-118916597D01*
X184304574Y-118889500D01*
X184304571Y-118889500D01*
X182731349Y-118889500D01*
X182731346Y-118889500D01*
X182560257Y-118916597D01*
X182560253Y-118916598D01*
X182395521Y-118970123D01*
X182395518Y-118970125D01*
X182241174Y-119048766D01*
X182101033Y-119150585D01*
X181978545Y-119273073D01*
X181876726Y-119413214D01*
X181798085Y-119567558D01*
X181798083Y-119567561D01*
X181744558Y-119732293D01*
X181744557Y-119732297D01*
X181717460Y-119903385D01*
X180318460Y-119903385D01*
X180291362Y-119732297D01*
X180291361Y-119732293D01*
X180237836Y-119567561D01*
X180237834Y-119567558D01*
X180237833Y-119567557D01*
X180237833Y-119567555D01*
X180159192Y-119413212D01*
X180057374Y-119273072D01*
X179934888Y-119150586D01*
X179794748Y-119048768D01*
X179794747Y-119048767D01*
X179794745Y-119048766D01*
X179640401Y-118970125D01*
X179640398Y-118970123D01*
X179475666Y-118916598D01*
X179475662Y-118916597D01*
X179304574Y-118889500D01*
X179304571Y-118889500D01*
X177731349Y-118889500D01*
X177731346Y-118889500D01*
X177560257Y-118916597D01*
X177560253Y-118916598D01*
X177395521Y-118970123D01*
X177395518Y-118970125D01*
X177241174Y-119048766D01*
X177101033Y-119150585D01*
X176978545Y-119273073D01*
X176876726Y-119413214D01*
X176798085Y-119567558D01*
X176798083Y-119567561D01*
X176744558Y-119732293D01*
X176744557Y-119732297D01*
X176717460Y-119903385D01*
X173400500Y-119903385D01*
X173400500Y-117363385D01*
X176717460Y-117363385D01*
X176717460Y-117536614D01*
X176744557Y-117707702D01*
X176744558Y-117707706D01*
X176798083Y-117872438D01*
X176798085Y-117872441D01*
X176798086Y-117872444D01*
X176798087Y-117872445D01*
X176876728Y-118026788D01*
X176978546Y-118166928D01*
X177101032Y-118289414D01*
X177241172Y-118391232D01*
X177395515Y-118469873D01*
X177395517Y-118469873D01*
X177395518Y-118469874D01*
X177395521Y-118469876D01*
X177560253Y-118523401D01*
X177560257Y-118523402D01*
X177731346Y-118550500D01*
X177731349Y-118550500D01*
X179304574Y-118550500D01*
X179475662Y-118523402D01*
X179475666Y-118523401D01*
X179640398Y-118469876D01*
X179640400Y-118469874D01*
X179640405Y-118469873D01*
X179794748Y-118391232D01*
X179934888Y-118289414D01*
X180057374Y-118166928D01*
X180159192Y-118026788D01*
X180237833Y-117872445D01*
X180237834Y-117872440D01*
X180237836Y-117872438D01*
X180291361Y-117707706D01*
X180291362Y-117707702D01*
X180318460Y-117536614D01*
X180318460Y-117363385D01*
X181717460Y-117363385D01*
X181717460Y-117536614D01*
X181744557Y-117707702D01*
X181744558Y-117707706D01*
X181798083Y-117872438D01*
X181798085Y-117872441D01*
X181798086Y-117872444D01*
X181798087Y-117872445D01*
X181876728Y-118026788D01*
X181978546Y-118166928D01*
X182101032Y-118289414D01*
X182241172Y-118391232D01*
X182395515Y-118469873D01*
X182395517Y-118469873D01*
X182395518Y-118469874D01*
X182395521Y-118469876D01*
X182560253Y-118523401D01*
X182560257Y-118523402D01*
X182731346Y-118550500D01*
X182731349Y-118550500D01*
X184304574Y-118550500D01*
X184475662Y-118523402D01*
X184475666Y-118523401D01*
X184640398Y-118469876D01*
X184640400Y-118469874D01*
X184640405Y-118469873D01*
X184794748Y-118391232D01*
X184934888Y-118289414D01*
X185057374Y-118166928D01*
X185159192Y-118026788D01*
X185237833Y-117872445D01*
X185237834Y-117872440D01*
X185237836Y-117872438D01*
X185291361Y-117707706D01*
X185291362Y-117707702D01*
X185318460Y-117536614D01*
X185318460Y-117363385D01*
X185291362Y-117192297D01*
X185291361Y-117192293D01*
X185237836Y-117027561D01*
X185237834Y-117027558D01*
X185237833Y-117027557D01*
X185237833Y-117027555D01*
X185159192Y-116873212D01*
X185057374Y-116733072D01*
X184934888Y-116610586D01*
X184794748Y-116508768D01*
X184794747Y-116508767D01*
X184794745Y-116508766D01*
X184640401Y-116430125D01*
X184640398Y-116430123D01*
X184475666Y-116376598D01*
X184475662Y-116376597D01*
X184304574Y-116349500D01*
X184304571Y-116349500D01*
X182731349Y-116349500D01*
X182731346Y-116349500D01*
X182560257Y-116376597D01*
X182560253Y-116376598D01*
X182395521Y-116430123D01*
X182395518Y-116430125D01*
X182241174Y-116508766D01*
X182101033Y-116610585D01*
X181978545Y-116733073D01*
X181876726Y-116873214D01*
X181798085Y-117027558D01*
X181798083Y-117027561D01*
X181744558Y-117192293D01*
X181744557Y-117192297D01*
X181717460Y-117363385D01*
X180318460Y-117363385D01*
X180291362Y-117192297D01*
X180291361Y-117192293D01*
X180237836Y-117027561D01*
X180237834Y-117027558D01*
X180237833Y-117027557D01*
X180237833Y-117027555D01*
X180159192Y-116873212D01*
X180057374Y-116733072D01*
X179934888Y-116610586D01*
X179794748Y-116508768D01*
X179794747Y-116508767D01*
X179794745Y-116508766D01*
X179640401Y-116430125D01*
X179640398Y-116430123D01*
X179475666Y-116376598D01*
X179475662Y-116376597D01*
X179304574Y-116349500D01*
X179304571Y-116349500D01*
X177731349Y-116349500D01*
X177731346Y-116349500D01*
X177560257Y-116376597D01*
X177560253Y-116376598D01*
X177395521Y-116430123D01*
X177395518Y-116430125D01*
X177241174Y-116508766D01*
X177101033Y-116610585D01*
X176978545Y-116733073D01*
X176876726Y-116873214D01*
X176798085Y-117027558D01*
X176798083Y-117027561D01*
X176744558Y-117192293D01*
X176744557Y-117192297D01*
X176717460Y-117363385D01*
X173400500Y-117363385D01*
X173400500Y-114823385D01*
X176717460Y-114823385D01*
X176717460Y-114996614D01*
X176744557Y-115167702D01*
X176744558Y-115167706D01*
X176798083Y-115332438D01*
X176798085Y-115332441D01*
X176798086Y-115332444D01*
X176798087Y-115332445D01*
X176876728Y-115486788D01*
X176978546Y-115626928D01*
X177101032Y-115749414D01*
X177241172Y-115851232D01*
X177395515Y-115929873D01*
X177395517Y-115929873D01*
X177395518Y-115929874D01*
X177395521Y-115929876D01*
X177560253Y-115983401D01*
X177560257Y-115983402D01*
X177731346Y-116010500D01*
X177731349Y-116010500D01*
X179304574Y-116010500D01*
X179475662Y-115983402D01*
X179475666Y-115983401D01*
X179640398Y-115929876D01*
X179640400Y-115929874D01*
X179640405Y-115929873D01*
X179794748Y-115851232D01*
X179934888Y-115749414D01*
X180057374Y-115626928D01*
X180159192Y-115486788D01*
X180237833Y-115332445D01*
X180237834Y-115332440D01*
X180237836Y-115332438D01*
X180291361Y-115167706D01*
X180291362Y-115167702D01*
X180318460Y-114996614D01*
X180318460Y-114823385D01*
X181717460Y-114823385D01*
X181717460Y-114996614D01*
X181744557Y-115167702D01*
X181744558Y-115167706D01*
X181798083Y-115332438D01*
X181798085Y-115332441D01*
X181798086Y-115332444D01*
X181798087Y-115332445D01*
X181876728Y-115486788D01*
X181978546Y-115626928D01*
X182101032Y-115749414D01*
X182241172Y-115851232D01*
X182395515Y-115929873D01*
X182395517Y-115929873D01*
X182395518Y-115929874D01*
X182395521Y-115929876D01*
X182560253Y-115983401D01*
X182560257Y-115983402D01*
X182731346Y-116010500D01*
X182731349Y-116010500D01*
X184304574Y-116010500D01*
X184475662Y-115983402D01*
X184475666Y-115983401D01*
X184640398Y-115929876D01*
X184640400Y-115929874D01*
X184640405Y-115929873D01*
X184794748Y-115851232D01*
X184934888Y-115749414D01*
X185057374Y-115626928D01*
X185159192Y-115486788D01*
X185237833Y-115332445D01*
X185237834Y-115332440D01*
X185237836Y-115332438D01*
X185291361Y-115167706D01*
X185291362Y-115167702D01*
X185318460Y-114996614D01*
X185318460Y-114823385D01*
X185291362Y-114652297D01*
X185291361Y-114652293D01*
X185237836Y-114487561D01*
X185237834Y-114487558D01*
X185237833Y-114487557D01*
X185237833Y-114487555D01*
X185159192Y-114333212D01*
X185057374Y-114193072D01*
X184934888Y-114070586D01*
X184794748Y-113968768D01*
X184794747Y-113968767D01*
X184794745Y-113968766D01*
X184640401Y-113890125D01*
X184640398Y-113890123D01*
X184475666Y-113836598D01*
X184475662Y-113836597D01*
X184304574Y-113809500D01*
X184304571Y-113809500D01*
X182731349Y-113809500D01*
X182731346Y-113809500D01*
X182560257Y-113836597D01*
X182560253Y-113836598D01*
X182395521Y-113890123D01*
X182395518Y-113890125D01*
X182241174Y-113968766D01*
X182101033Y-114070585D01*
X181978545Y-114193073D01*
X181876726Y-114333214D01*
X181798085Y-114487558D01*
X181798083Y-114487561D01*
X181744558Y-114652293D01*
X181744557Y-114652297D01*
X181717460Y-114823385D01*
X180318460Y-114823385D01*
X180291362Y-114652297D01*
X180291361Y-114652293D01*
X180237836Y-114487561D01*
X180237834Y-114487558D01*
X180237833Y-114487557D01*
X180237833Y-114487555D01*
X180159192Y-114333212D01*
X180057374Y-114193072D01*
X179934888Y-114070586D01*
X179794748Y-113968768D01*
X179794747Y-113968767D01*
X179794745Y-113968766D01*
X179640401Y-113890125D01*
X179640398Y-113890123D01*
X179475666Y-113836598D01*
X179475662Y-113836597D01*
X179304574Y-113809500D01*
X179304571Y-113809500D01*
X177731349Y-113809500D01*
X177731346Y-113809500D01*
X177560257Y-113836597D01*
X177560253Y-113836598D01*
X177395521Y-113890123D01*
X177395518Y-113890125D01*
X177241174Y-113968766D01*
X177101033Y-114070585D01*
X176978545Y-114193073D01*
X176876726Y-114333214D01*
X176798085Y-114487558D01*
X176798083Y-114487561D01*
X176744558Y-114652293D01*
X176744557Y-114652297D01*
X176717460Y-114823385D01*
X173400500Y-114823385D01*
X173400500Y-112283385D01*
X176717460Y-112283385D01*
X176717460Y-112456614D01*
X176744557Y-112627702D01*
X176744558Y-112627706D01*
X176798083Y-112792438D01*
X176798085Y-112792441D01*
X176798086Y-112792444D01*
X176798087Y-112792445D01*
X176876728Y-112946788D01*
X176978546Y-113086928D01*
X177101032Y-113209414D01*
X177241172Y-113311232D01*
X177395515Y-113389873D01*
X177395517Y-113389873D01*
X177395518Y-113389874D01*
X177395521Y-113389876D01*
X177560253Y-113443401D01*
X177560257Y-113443402D01*
X177731346Y-113470500D01*
X177731349Y-113470500D01*
X179304574Y-113470500D01*
X179475662Y-113443402D01*
X179475666Y-113443401D01*
X179640398Y-113389876D01*
X179640400Y-113389874D01*
X179640405Y-113389873D01*
X179794748Y-113311232D01*
X179934888Y-113209414D01*
X180057374Y-113086928D01*
X180159192Y-112946788D01*
X180237833Y-112792445D01*
X180237834Y-112792440D01*
X180237836Y-112792438D01*
X180291361Y-112627706D01*
X180291362Y-112627702D01*
X180318460Y-112456614D01*
X180318460Y-112283385D01*
X181717460Y-112283385D01*
X181717460Y-112456614D01*
X181744557Y-112627702D01*
X181744558Y-112627706D01*
X181798083Y-112792438D01*
X181798085Y-112792441D01*
X181798086Y-112792444D01*
X181798087Y-112792445D01*
X181876728Y-112946788D01*
X181978546Y-113086928D01*
X182101032Y-113209414D01*
X182241172Y-113311232D01*
X182395515Y-113389873D01*
X182395517Y-113389873D01*
X182395518Y-113389874D01*
X182395521Y-113389876D01*
X182560253Y-113443401D01*
X182560257Y-113443402D01*
X182731346Y-113470500D01*
X182731349Y-113470500D01*
X184304574Y-113470500D01*
X184475662Y-113443402D01*
X184475666Y-113443401D01*
X184640398Y-113389876D01*
X184640400Y-113389874D01*
X184640405Y-113389873D01*
X184794748Y-113311232D01*
X184934888Y-113209414D01*
X185057374Y-113086928D01*
X185159192Y-112946788D01*
X185237833Y-112792445D01*
X185237834Y-112792440D01*
X185237836Y-112792438D01*
X185291361Y-112627706D01*
X185291362Y-112627702D01*
X185318460Y-112456614D01*
X185318460Y-112283385D01*
X185291362Y-112112297D01*
X185291361Y-112112293D01*
X185237836Y-111947561D01*
X185237834Y-111947558D01*
X185237833Y-111947557D01*
X185237833Y-111947555D01*
X185159192Y-111793212D01*
X185057374Y-111653072D01*
X184934888Y-111530586D01*
X184794748Y-111428768D01*
X184794747Y-111428767D01*
X184794745Y-111428766D01*
X184640401Y-111350125D01*
X184640398Y-111350123D01*
X184475666Y-111296598D01*
X184475662Y-111296597D01*
X184304574Y-111269500D01*
X184304571Y-111269500D01*
X182731349Y-111269500D01*
X182731346Y-111269500D01*
X182560257Y-111296597D01*
X182560253Y-111296598D01*
X182395521Y-111350123D01*
X182395518Y-111350125D01*
X182241174Y-111428766D01*
X182101033Y-111530585D01*
X181978545Y-111653073D01*
X181876726Y-111793214D01*
X181798085Y-111947558D01*
X181798083Y-111947561D01*
X181744558Y-112112293D01*
X181744557Y-112112297D01*
X181717460Y-112283385D01*
X180318460Y-112283385D01*
X180291362Y-112112297D01*
X180291361Y-112112293D01*
X180237836Y-111947561D01*
X180237834Y-111947558D01*
X180237833Y-111947557D01*
X180237833Y-111947555D01*
X180159192Y-111793212D01*
X180057374Y-111653072D01*
X179934888Y-111530586D01*
X179794748Y-111428768D01*
X179794747Y-111428767D01*
X179794745Y-111428766D01*
X179640401Y-111350125D01*
X179640398Y-111350123D01*
X179475666Y-111296598D01*
X179475662Y-111296597D01*
X179304574Y-111269500D01*
X179304571Y-111269500D01*
X177731349Y-111269500D01*
X177731346Y-111269500D01*
X177560257Y-111296597D01*
X177560253Y-111296598D01*
X177395521Y-111350123D01*
X177395518Y-111350125D01*
X177241174Y-111428766D01*
X177101033Y-111530585D01*
X176978545Y-111653073D01*
X176876726Y-111793214D01*
X176798085Y-111947558D01*
X176798083Y-111947561D01*
X176744558Y-112112293D01*
X176744557Y-112112297D01*
X176717460Y-112283385D01*
X173400500Y-112283385D01*
X173400500Y-109743385D01*
X176717460Y-109743385D01*
X176717460Y-109916614D01*
X176744557Y-110087702D01*
X176744558Y-110087706D01*
X176798083Y-110252438D01*
X176798085Y-110252441D01*
X176798086Y-110252444D01*
X176798087Y-110252445D01*
X176876728Y-110406788D01*
X176978546Y-110546928D01*
X177101032Y-110669414D01*
X177241172Y-110771232D01*
X177395515Y-110849873D01*
X177395517Y-110849873D01*
X177395518Y-110849874D01*
X177395521Y-110849876D01*
X177560253Y-110903401D01*
X177560257Y-110903402D01*
X177731346Y-110930500D01*
X177731349Y-110930500D01*
X179304574Y-110930500D01*
X179475662Y-110903402D01*
X179475666Y-110903401D01*
X179640398Y-110849876D01*
X179640400Y-110849874D01*
X179640405Y-110849873D01*
X179794748Y-110771232D01*
X179934888Y-110669414D01*
X180057374Y-110546928D01*
X180159192Y-110406788D01*
X180237833Y-110252445D01*
X180237834Y-110252440D01*
X180237836Y-110252438D01*
X180291361Y-110087706D01*
X180291362Y-110087702D01*
X180318460Y-109916614D01*
X180318460Y-109743385D01*
X181717460Y-109743385D01*
X181717460Y-109916614D01*
X181744557Y-110087702D01*
X181744558Y-110087706D01*
X181798083Y-110252438D01*
X181798085Y-110252441D01*
X181798086Y-110252444D01*
X181798087Y-110252445D01*
X181876728Y-110406788D01*
X181978546Y-110546928D01*
X182101032Y-110669414D01*
X182241172Y-110771232D01*
X182395515Y-110849873D01*
X182395517Y-110849873D01*
X182395518Y-110849874D01*
X182395521Y-110849876D01*
X182560253Y-110903401D01*
X182560257Y-110903402D01*
X182731346Y-110930500D01*
X182731349Y-110930500D01*
X184304574Y-110930500D01*
X184475662Y-110903402D01*
X184475666Y-110903401D01*
X184640398Y-110849876D01*
X184640400Y-110849874D01*
X184640405Y-110849873D01*
X184794748Y-110771232D01*
X184934888Y-110669414D01*
X185057374Y-110546928D01*
X185159192Y-110406788D01*
X185237833Y-110252445D01*
X185237834Y-110252440D01*
X185237836Y-110252438D01*
X185291361Y-110087706D01*
X185291362Y-110087702D01*
X185318460Y-109916614D01*
X185318460Y-109743385D01*
X185291362Y-109572297D01*
X185291361Y-109572293D01*
X185237836Y-109407561D01*
X185237834Y-109407558D01*
X185237833Y-109407557D01*
X185237833Y-109407555D01*
X185159192Y-109253212D01*
X185057374Y-109113072D01*
X184934888Y-108990586D01*
X184794748Y-108888768D01*
X184794747Y-108888767D01*
X184794745Y-108888766D01*
X184640401Y-108810125D01*
X184640398Y-108810123D01*
X184475666Y-108756598D01*
X184475662Y-108756597D01*
X184304574Y-108729500D01*
X184304571Y-108729500D01*
X182731349Y-108729500D01*
X182731346Y-108729500D01*
X182560257Y-108756597D01*
X182560253Y-108756598D01*
X182395521Y-108810123D01*
X182395518Y-108810125D01*
X182241174Y-108888766D01*
X182101033Y-108990585D01*
X181978545Y-109113073D01*
X181876726Y-109253214D01*
X181798085Y-109407558D01*
X181798083Y-109407561D01*
X181744558Y-109572293D01*
X181744557Y-109572297D01*
X181717460Y-109743385D01*
X180318460Y-109743385D01*
X180291362Y-109572297D01*
X180291361Y-109572293D01*
X180237836Y-109407561D01*
X180237834Y-109407558D01*
X180237833Y-109407557D01*
X180237833Y-109407555D01*
X180159192Y-109253212D01*
X180057374Y-109113072D01*
X179934888Y-108990586D01*
X179794748Y-108888768D01*
X179794747Y-108888767D01*
X179794745Y-108888766D01*
X179640401Y-108810125D01*
X179640398Y-108810123D01*
X179475666Y-108756598D01*
X179475662Y-108756597D01*
X179304574Y-108729500D01*
X179304571Y-108729500D01*
X177731349Y-108729500D01*
X177731346Y-108729500D01*
X177560257Y-108756597D01*
X177560253Y-108756598D01*
X177395521Y-108810123D01*
X177395518Y-108810125D01*
X177241174Y-108888766D01*
X177101033Y-108990585D01*
X176978545Y-109113073D01*
X176876726Y-109253214D01*
X176798085Y-109407558D01*
X176798083Y-109407561D01*
X176744558Y-109572293D01*
X176744557Y-109572297D01*
X176717460Y-109743385D01*
X173400500Y-109743385D01*
X173400500Y-108430515D01*
X173370941Y-108243886D01*
X173324039Y-108099538D01*
X173312547Y-108064168D01*
X173226760Y-107895801D01*
X173167413Y-107814117D01*
X173167413Y-107814116D01*
X173115692Y-107742929D01*
X173115690Y-107742926D01*
X159457074Y-94084310D01*
X159304199Y-93973240D01*
X159304198Y-93973239D01*
X159304196Y-93973238D01*
X159135832Y-93887453D01*
X158956113Y-93829058D01*
X158769484Y-93799500D01*
X158769481Y-93799500D01*
X155392145Y-93799500D01*
X155333954Y-93780593D01*
X155324808Y-93773072D01*
X155125747Y-93588370D01*
X155125744Y-93588368D01*
X155125741Y-93588365D01*
X154902775Y-93436349D01*
X154902767Y-93436345D01*
X154659643Y-93319262D01*
X154401776Y-93239721D01*
X154401773Y-93239720D01*
X154401772Y-93239720D01*
X154401767Y-93239719D01*
X154401766Y-93239719D01*
X154134932Y-93199500D01*
X154134929Y-93199500D01*
X153865071Y-93199500D01*
X153865067Y-93199500D01*
X153598233Y-93239719D01*
X153598223Y-93239721D01*
X153340358Y-93319262D01*
X153097233Y-93436345D01*
X153097229Y-93436347D01*
X153097226Y-93436349D01*
X152919077Y-93557809D01*
X152874252Y-93588370D01*
X152675192Y-93773072D01*
X152619675Y-93798792D01*
X152607855Y-93799500D01*
X143673476Y-93799500D01*
X143486846Y-93829058D01*
X143307127Y-93887453D01*
X143138763Y-93973238D01*
X142985888Y-94084309D01*
X128528984Y-108541212D01*
X128474467Y-108568989D01*
X128414035Y-108559418D01*
X128388976Y-108541212D01*
X118029496Y-98181732D01*
X118001719Y-98127215D01*
X118000500Y-98111728D01*
X118000500Y-93899997D01*
X131994353Y-93899997D01*
X131994353Y-93900002D01*
X132014834Y-94042456D01*
X132059592Y-94140460D01*
X132074623Y-94173373D01*
X132127736Y-94234669D01*
X132168873Y-94282144D01*
X132168875Y-94282145D01*
X132289947Y-94359953D01*
X132396403Y-94391211D01*
X132428035Y-94400499D01*
X132428036Y-94400499D01*
X132428039Y-94400500D01*
X132428041Y-94400500D01*
X132571959Y-94400500D01*
X132571961Y-94400500D01*
X132710053Y-94359953D01*
X132831128Y-94282143D01*
X132872264Y-94234668D01*
X132924660Y-94203073D01*
X132947083Y-94200500D01*
X132988090Y-94200500D01*
X132988090Y-94200499D01*
X133064516Y-94180021D01*
X133133038Y-94140460D01*
X133188987Y-94084511D01*
X136100997Y-91172500D01*
X162317285Y-91172500D01*
X162336103Y-91375583D01*
X162391918Y-91571750D01*
X162482827Y-91754321D01*
X162605736Y-91917079D01*
X162756459Y-92054481D01*
X162929863Y-92161848D01*
X163120044Y-92235524D01*
X163320524Y-92273000D01*
X163524476Y-92273000D01*
X163724956Y-92235524D01*
X163915137Y-92161848D01*
X164088541Y-92054481D01*
X164239264Y-91917079D01*
X164362173Y-91754321D01*
X164453082Y-91571750D01*
X164508897Y-91375583D01*
X164527715Y-91172500D01*
X164817285Y-91172500D01*
X164836103Y-91375583D01*
X164891918Y-91571750D01*
X164982827Y-91754321D01*
X165105736Y-91917079D01*
X165256459Y-92054481D01*
X165429863Y-92161848D01*
X165620044Y-92235524D01*
X165820524Y-92273000D01*
X166024476Y-92273000D01*
X166224956Y-92235524D01*
X166415137Y-92161848D01*
X166588541Y-92054481D01*
X166739264Y-91917079D01*
X166862173Y-91754321D01*
X166953082Y-91571750D01*
X167008897Y-91375583D01*
X167027715Y-91172500D01*
X167008897Y-90969417D01*
X166970281Y-90833697D01*
X166972542Y-90772555D01*
X166995497Y-90736605D01*
X167152998Y-90579104D01*
X167207513Y-90551328D01*
X167267945Y-90560899D01*
X167311210Y-90604164D01*
X167322000Y-90649109D01*
X167322000Y-92092246D01*
X167322001Y-92092258D01*
X167333632Y-92150727D01*
X167333634Y-92150733D01*
X167341061Y-92161848D01*
X167377948Y-92217052D01*
X167444269Y-92261367D01*
X167488731Y-92270211D01*
X167502741Y-92272998D01*
X167502746Y-92272998D01*
X167502752Y-92273000D01*
X167502753Y-92273000D01*
X169342247Y-92273000D01*
X169342248Y-92273000D01*
X169400731Y-92261367D01*
X169467052Y-92217052D01*
X169511367Y-92150731D01*
X169523000Y-92092248D01*
X169523000Y-90372000D01*
X169541907Y-90313809D01*
X169591407Y-90277845D01*
X169622000Y-90273000D01*
X178200500Y-90273000D01*
X178258691Y-90291907D01*
X178294655Y-90341407D01*
X178299500Y-90372000D01*
X178299500Y-91419746D01*
X178299501Y-91419758D01*
X178311132Y-91478227D01*
X178311134Y-91478233D01*
X178344260Y-91527808D01*
X178355448Y-91544552D01*
X178421769Y-91588867D01*
X178466231Y-91597711D01*
X178480241Y-91600498D01*
X178480246Y-91600498D01*
X178480252Y-91600500D01*
X178480253Y-91600500D01*
X181519747Y-91600500D01*
X181519748Y-91600500D01*
X181578231Y-91588867D01*
X181644552Y-91544552D01*
X181688867Y-91478231D01*
X181700500Y-91419748D01*
X181700500Y-89880253D01*
X183299500Y-89880253D01*
X183299500Y-91419746D01*
X183299501Y-91419758D01*
X183311132Y-91478227D01*
X183311134Y-91478233D01*
X183344260Y-91527808D01*
X183355448Y-91544552D01*
X183421769Y-91588867D01*
X183466231Y-91597711D01*
X183480241Y-91600498D01*
X183480246Y-91600498D01*
X183480252Y-91600500D01*
X183480253Y-91600500D01*
X186519747Y-91600500D01*
X186519748Y-91600500D01*
X186578231Y-91588867D01*
X186644552Y-91544552D01*
X186688867Y-91478231D01*
X186700500Y-91419748D01*
X186700500Y-89880252D01*
X186688867Y-89821769D01*
X186644552Y-89755448D01*
X186644548Y-89755445D01*
X186578233Y-89711134D01*
X186578231Y-89711133D01*
X186578228Y-89711132D01*
X186578227Y-89711132D01*
X186519758Y-89699501D01*
X186519748Y-89699500D01*
X183480252Y-89699500D01*
X183480251Y-89699500D01*
X183480241Y-89699501D01*
X183421772Y-89711132D01*
X183421766Y-89711134D01*
X183355451Y-89755445D01*
X183355445Y-89755451D01*
X183311134Y-89821766D01*
X183311132Y-89821772D01*
X183299501Y-89880241D01*
X183299500Y-89880253D01*
X181700500Y-89880253D01*
X181700500Y-89880252D01*
X181688867Y-89821769D01*
X181644552Y-89755448D01*
X181644548Y-89755445D01*
X181578233Y-89711134D01*
X181578231Y-89711133D01*
X181578228Y-89711132D01*
X181578227Y-89711132D01*
X181519758Y-89699501D01*
X181519748Y-89699500D01*
X181519747Y-89699500D01*
X179727611Y-89699500D01*
X179669420Y-89680593D01*
X179657608Y-89670504D01*
X179449114Y-89462011D01*
X179449109Y-89462007D01*
X179346390Y-89402702D01*
X179346386Y-89402700D01*
X179322173Y-89396212D01*
X179322173Y-89396213D01*
X179231809Y-89372000D01*
X167213191Y-89372000D01*
X167155902Y-89387350D01*
X167098612Y-89402701D01*
X167055196Y-89427766D01*
X167055197Y-89427767D01*
X166995887Y-89462009D01*
X166995885Y-89462011D01*
X166359558Y-90098336D01*
X166305042Y-90126113D01*
X166253795Y-90120648D01*
X166224956Y-90109476D01*
X166224950Y-90109474D01*
X166224947Y-90109474D01*
X166024476Y-90072000D01*
X165820524Y-90072000D01*
X165620046Y-90109475D01*
X165550132Y-90136559D01*
X165429863Y-90183152D01*
X165305899Y-90259907D01*
X165256459Y-90290519D01*
X165105737Y-90427920D01*
X164982828Y-90590677D01*
X164982823Y-90590686D01*
X164892264Y-90772555D01*
X164891918Y-90773250D01*
X164836103Y-90969417D01*
X164817285Y-91172500D01*
X164527715Y-91172500D01*
X164508897Y-90969417D01*
X164453082Y-90773250D01*
X164362173Y-90590679D01*
X164239264Y-90427921D01*
X164088541Y-90290519D01*
X163915137Y-90183152D01*
X163724956Y-90109476D01*
X163724955Y-90109475D01*
X163724953Y-90109475D01*
X163524476Y-90072000D01*
X163320524Y-90072000D01*
X163120046Y-90109475D01*
X163050132Y-90136559D01*
X162929863Y-90183152D01*
X162805899Y-90259907D01*
X162756459Y-90290519D01*
X162605737Y-90427920D01*
X162482828Y-90590677D01*
X162482823Y-90590686D01*
X162392264Y-90772555D01*
X162391918Y-90773250D01*
X162336103Y-90969417D01*
X162317285Y-91172500D01*
X136100997Y-91172500D01*
X139020474Y-88253022D01*
X139074991Y-88225246D01*
X139090478Y-88224027D01*
X139196959Y-88224027D01*
X139196961Y-88224027D01*
X139335053Y-88183480D01*
X139456128Y-88105670D01*
X139550377Y-87996900D01*
X139610165Y-87865984D01*
X139622499Y-87780200D01*
X139630647Y-87723529D01*
X139630647Y-87723524D01*
X139610165Y-87581070D01*
X139550377Y-87450155D01*
X139550377Y-87450154D01*
X139456128Y-87341384D01*
X139456127Y-87341383D01*
X139456126Y-87341382D01*
X139335057Y-87263576D01*
X139335054Y-87263574D01*
X139335053Y-87263574D01*
X139335050Y-87263573D01*
X139196964Y-87223027D01*
X139196961Y-87223027D01*
X139053039Y-87223027D01*
X139053035Y-87223027D01*
X138914949Y-87263573D01*
X138914942Y-87263576D01*
X138793876Y-87341381D01*
X138793874Y-87341382D01*
X138793872Y-87341384D01*
X138793870Y-87341385D01*
X138788524Y-87346019D01*
X138786583Y-87343779D01*
X138745091Y-87368785D01*
X138684132Y-87363533D01*
X138647876Y-87337185D01*
X138631128Y-87317857D01*
X138546662Y-87263574D01*
X138510057Y-87240049D01*
X138510054Y-87240047D01*
X138510053Y-87240047D01*
X138510050Y-87240046D01*
X138371964Y-87199500D01*
X138371961Y-87199500D01*
X138228039Y-87199500D01*
X138228035Y-87199500D01*
X138089949Y-87240046D01*
X138089942Y-87240049D01*
X137968873Y-87317855D01*
X137874622Y-87426628D01*
X137814834Y-87557543D01*
X137794353Y-87699997D01*
X137794353Y-87700003D01*
X137797441Y-87721482D01*
X137787007Y-87781771D01*
X137769453Y-87805574D01*
X135044073Y-90530954D01*
X134989556Y-90558731D01*
X134946178Y-90555940D01*
X134846964Y-90526808D01*
X134846961Y-90526808D01*
X134703039Y-90526808D01*
X134703035Y-90526808D01*
X134564949Y-90567354D01*
X134564942Y-90567357D01*
X134443873Y-90645163D01*
X134349622Y-90753936D01*
X134289834Y-90884851D01*
X134269353Y-91027305D01*
X134269353Y-91027310D01*
X134289834Y-91169764D01*
X134291084Y-91172500D01*
X134349623Y-91300681D01*
X134443872Y-91409451D01*
X134443873Y-91409452D01*
X134550896Y-91478231D01*
X134564947Y-91487261D01*
X134691909Y-91524540D01*
X134742415Y-91559074D01*
X134762977Y-91616701D01*
X134745739Y-91675408D01*
X134734021Y-91689533D01*
X132932936Y-93490618D01*
X132878419Y-93518395D01*
X132817987Y-93508824D01*
X132809409Y-93503898D01*
X132710057Y-93440049D01*
X132710054Y-93440047D01*
X132710053Y-93440047D01*
X132697459Y-93436349D01*
X132571964Y-93399500D01*
X132571961Y-93399500D01*
X132428039Y-93399500D01*
X132428035Y-93399500D01*
X132289949Y-93440046D01*
X132289942Y-93440049D01*
X132168873Y-93517855D01*
X132074622Y-93626628D01*
X132014834Y-93757543D01*
X131994353Y-93899997D01*
X118000500Y-93899997D01*
X118000500Y-90755515D01*
X117970941Y-90568886D01*
X117970444Y-90567355D01*
X117912547Y-90389168D01*
X117826760Y-90220801D01*
X117715690Y-90067927D01*
X117582073Y-89934310D01*
X117429199Y-89823240D01*
X117429198Y-89823239D01*
X117429196Y-89823238D01*
X117260832Y-89737453D01*
X117081113Y-89679058D01*
X116894484Y-89649500D01*
X116894481Y-89649500D01*
X116705519Y-89649500D01*
X116705516Y-89649500D01*
X116518886Y-89679058D01*
X116339167Y-89737453D01*
X116170803Y-89823238D01*
X116017928Y-89934309D01*
X115884309Y-90067928D01*
X115773238Y-90220803D01*
X115687453Y-90389167D01*
X115629058Y-90568886D01*
X115599500Y-90755515D01*
X110500500Y-90755515D01*
X110500500Y-79899997D01*
X137494353Y-79899997D01*
X137494353Y-79900002D01*
X137514834Y-80042456D01*
X137530364Y-80076461D01*
X137574623Y-80173373D01*
X137627736Y-80234669D01*
X137668873Y-80282144D01*
X137786197Y-80357543D01*
X137789947Y-80359953D01*
X137896403Y-80391211D01*
X137928035Y-80400499D01*
X137928036Y-80400499D01*
X137928039Y-80400500D01*
X137928041Y-80400500D01*
X138071959Y-80400500D01*
X138071961Y-80400500D01*
X138210053Y-80359953D01*
X138331128Y-80282143D01*
X138372264Y-80234668D01*
X138424660Y-80203073D01*
X138447083Y-80200500D01*
X144284050Y-80200500D01*
X144342241Y-80219407D01*
X144378205Y-80268907D01*
X144378205Y-80330093D01*
X144354054Y-80369504D01*
X142973614Y-81749944D01*
X142919097Y-81777721D01*
X142903610Y-81778940D01*
X138526523Y-81778940D01*
X138468332Y-81760033D01*
X138451704Y-81744771D01*
X138419100Y-81707144D01*
X138410568Y-81697297D01*
X138377622Y-81676124D01*
X138289497Y-81619489D01*
X138289494Y-81619487D01*
X138289493Y-81619487D01*
X138289490Y-81619486D01*
X138151404Y-81578940D01*
X138151401Y-81578940D01*
X138007479Y-81578940D01*
X138007475Y-81578940D01*
X137869389Y-81619486D01*
X137869382Y-81619489D01*
X137748313Y-81697295D01*
X137654062Y-81806068D01*
X137594274Y-81936983D01*
X137573793Y-82079437D01*
X137573793Y-82079442D01*
X137594274Y-82221896D01*
X137639032Y-82319900D01*
X137654063Y-82352813D01*
X137707176Y-82414109D01*
X137748313Y-82461584D01*
X137748315Y-82461585D01*
X137869387Y-82539393D01*
X137975843Y-82570651D01*
X138007475Y-82579939D01*
X138007476Y-82579939D01*
X138007479Y-82579940D01*
X138007481Y-82579940D01*
X138151399Y-82579940D01*
X138151401Y-82579940D01*
X138289493Y-82539393D01*
X138410568Y-82461583D01*
X138451704Y-82414108D01*
X138504100Y-82382513D01*
X138526523Y-82379940D01*
X143108652Y-82379940D01*
X143108652Y-82379939D01*
X143185078Y-82359461D01*
X143253600Y-82319900D01*
X143309549Y-82263951D01*
X143309549Y-82263950D01*
X144248502Y-81324997D01*
X147741204Y-81324997D01*
X147741204Y-81325002D01*
X147761685Y-81467456D01*
X147812599Y-81578940D01*
X147821474Y-81598373D01*
X147915723Y-81707143D01*
X147915724Y-81707144D01*
X148036793Y-81784950D01*
X148036798Y-81784953D01*
X148143254Y-81816211D01*
X148174886Y-81825499D01*
X148174887Y-81825499D01*
X148174890Y-81825500D01*
X148174892Y-81825500D01*
X148281372Y-81825500D01*
X148339563Y-81844407D01*
X148351376Y-81854496D01*
X150070504Y-83573624D01*
X150098281Y-83628141D01*
X150099500Y-83643628D01*
X150099500Y-89646105D01*
X150080593Y-89704296D01*
X150073258Y-89712289D01*
X150073509Y-89712506D01*
X150068872Y-89717856D01*
X150068872Y-89717857D01*
X150036297Y-89755451D01*
X149974622Y-89826628D01*
X149914834Y-89957543D01*
X149894353Y-90099997D01*
X149894353Y-90100002D01*
X149914834Y-90242456D01*
X149960024Y-90341407D01*
X149974623Y-90373373D01*
X150021888Y-90427920D01*
X150068873Y-90482144D01*
X150189942Y-90559950D01*
X150189947Y-90559953D01*
X150294585Y-90590677D01*
X150328035Y-90600499D01*
X150328036Y-90600499D01*
X150328039Y-90600500D01*
X150328041Y-90600500D01*
X150471959Y-90600500D01*
X150471961Y-90600500D01*
X150610053Y-90559953D01*
X150731128Y-90482143D01*
X150825377Y-90373373D01*
X150885165Y-90242457D01*
X150901893Y-90126113D01*
X150905647Y-90100002D01*
X150905647Y-90099997D01*
X160294353Y-90099997D01*
X160294353Y-90100002D01*
X160314834Y-90242456D01*
X160360024Y-90341407D01*
X160374623Y-90373373D01*
X160421888Y-90427920D01*
X160468873Y-90482144D01*
X160589942Y-90559950D01*
X160589947Y-90559953D01*
X160694585Y-90590677D01*
X160728035Y-90600499D01*
X160728036Y-90600499D01*
X160728039Y-90600500D01*
X160728041Y-90600500D01*
X160871959Y-90600500D01*
X160871961Y-90600500D01*
X161010053Y-90559953D01*
X161131128Y-90482143D01*
X161225377Y-90373373D01*
X161269776Y-90276151D01*
X161289821Y-90247280D01*
X162857608Y-88679496D01*
X162912125Y-88651719D01*
X162927612Y-88650500D01*
X171447712Y-88650500D01*
X171483083Y-88658195D01*
X171483153Y-88657958D01*
X171486468Y-88658931D01*
X171488838Y-88659447D01*
X171489943Y-88659951D01*
X171489944Y-88659951D01*
X171489947Y-88659953D01*
X171603939Y-88693423D01*
X171628035Y-88700499D01*
X171628036Y-88700499D01*
X171628039Y-88700500D01*
X171628041Y-88700500D01*
X171771959Y-88700500D01*
X171771961Y-88700500D01*
X171910053Y-88659953D01*
X172031128Y-88582143D01*
X172125377Y-88473373D01*
X172185165Y-88342457D01*
X172202017Y-88225246D01*
X172205647Y-88200002D01*
X172205647Y-88199997D01*
X172185165Y-88057543D01*
X172125377Y-87926628D01*
X172125377Y-87926627D01*
X172031128Y-87817857D01*
X172031127Y-87817856D01*
X172031126Y-87817855D01*
X171910057Y-87740049D01*
X171910054Y-87740047D01*
X171910053Y-87740047D01*
X171910050Y-87740046D01*
X171771964Y-87699500D01*
X171771961Y-87699500D01*
X171628039Y-87699500D01*
X171628035Y-87699500D01*
X171489943Y-87740048D01*
X171488838Y-87740553D01*
X171486468Y-87741068D01*
X171483153Y-87742042D01*
X171483083Y-87741804D01*
X171447712Y-87749500D01*
X162640691Y-87749500D01*
X162595508Y-87761606D01*
X162550325Y-87773713D01*
X162550324Y-87773712D01*
X162526115Y-87780200D01*
X162423386Y-87839510D01*
X160654392Y-89608503D01*
X160612281Y-89633488D01*
X160589949Y-89640045D01*
X160589947Y-89640046D01*
X160468873Y-89717855D01*
X160374622Y-89826628D01*
X160314834Y-89957543D01*
X160294353Y-90099997D01*
X150905647Y-90099997D01*
X150885165Y-89957543D01*
X150825377Y-89826628D01*
X150825377Y-89826627D01*
X150731128Y-89717857D01*
X150731127Y-89717856D01*
X150726491Y-89712506D01*
X150728524Y-89710743D01*
X150703067Y-89668505D01*
X150700500Y-89646105D01*
X150700500Y-85953027D01*
X150719407Y-85894836D01*
X150768907Y-85858872D01*
X150830093Y-85858872D01*
X150864334Y-85878210D01*
X150868869Y-85882140D01*
X150868872Y-85882143D01*
X150868874Y-85882144D01*
X150868875Y-85882145D01*
X150939061Y-85927251D01*
X150989947Y-85959953D01*
X151096403Y-85991211D01*
X151128035Y-86000499D01*
X151128036Y-86000499D01*
X151128039Y-86000500D01*
X151128041Y-86000500D01*
X151271959Y-86000500D01*
X151271961Y-86000500D01*
X151410053Y-85959953D01*
X151531128Y-85882143D01*
X151625377Y-85773373D01*
X151685165Y-85642457D01*
X151705647Y-85500000D01*
X151685165Y-85357543D01*
X151625377Y-85226627D01*
X151578476Y-85172500D01*
X162317285Y-85172500D01*
X162336103Y-85375583D01*
X162391918Y-85571750D01*
X162482827Y-85754321D01*
X162605736Y-85917079D01*
X162756459Y-86054481D01*
X162929863Y-86161848D01*
X163120044Y-86235524D01*
X163320524Y-86273000D01*
X163524476Y-86273000D01*
X163724956Y-86235524D01*
X163915137Y-86161848D01*
X164088541Y-86054481D01*
X164239264Y-85917079D01*
X164362173Y-85754321D01*
X164453082Y-85571750D01*
X164508897Y-85375583D01*
X164527715Y-85172500D01*
X164817285Y-85172500D01*
X164836103Y-85375583D01*
X164891918Y-85571750D01*
X164982827Y-85754321D01*
X165105736Y-85917079D01*
X165256459Y-86054481D01*
X165429863Y-86161848D01*
X165620044Y-86235524D01*
X165820524Y-86273000D01*
X166024476Y-86273000D01*
X166224956Y-86235524D01*
X166253794Y-86224351D01*
X166314884Y-86220962D01*
X166359560Y-86246663D01*
X166995886Y-86882989D01*
X167055196Y-86917231D01*
X167098614Y-86942299D01*
X167213191Y-86973000D01*
X167213193Y-86973000D01*
X179186809Y-86973000D01*
X179277169Y-86948787D01*
X179277172Y-86948787D01*
X179290403Y-86945241D01*
X179301387Y-86942299D01*
X179404114Y-86882989D01*
X179530861Y-86756242D01*
X179657608Y-86629496D01*
X179712124Y-86601719D01*
X179727611Y-86600500D01*
X180843615Y-86600500D01*
X180843616Y-86600500D01*
X181027251Y-86563973D01*
X181200231Y-86492322D01*
X181200234Y-86492319D01*
X181200238Y-86492318D01*
X181245187Y-86462282D01*
X181355908Y-86388302D01*
X181488302Y-86255908D01*
X181562282Y-86145187D01*
X181592318Y-86100238D01*
X181592319Y-86100234D01*
X181592322Y-86100231D01*
X181663973Y-85927251D01*
X181700500Y-85743616D01*
X181700500Y-85556384D01*
X181700499Y-85556381D01*
X183299500Y-85556381D01*
X183299500Y-85743618D01*
X183336026Y-85927249D01*
X183407677Y-86100229D01*
X183407681Y-86100238D01*
X183475042Y-86201049D01*
X183511698Y-86255908D01*
X183644092Y-86388302D01*
X183710463Y-86432649D01*
X183799761Y-86492318D01*
X183799767Y-86492320D01*
X183799769Y-86492322D01*
X183972749Y-86563973D01*
X184156384Y-86600500D01*
X184156385Y-86600500D01*
X185843615Y-86600500D01*
X185843616Y-86600500D01*
X186027251Y-86563973D01*
X186200231Y-86492322D01*
X186200234Y-86492319D01*
X186200238Y-86492318D01*
X186245187Y-86462282D01*
X186355908Y-86388302D01*
X186488302Y-86255908D01*
X186562282Y-86145187D01*
X186592318Y-86100238D01*
X186592319Y-86100234D01*
X186592322Y-86100231D01*
X186663973Y-85927251D01*
X186700500Y-85743616D01*
X186700500Y-85556384D01*
X186663973Y-85372749D01*
X186592322Y-85199769D01*
X186592320Y-85199767D01*
X186592318Y-85199761D01*
X186504614Y-85068505D01*
X186488302Y-85044092D01*
X186355908Y-84911698D01*
X186311559Y-84882065D01*
X186200238Y-84807681D01*
X186200229Y-84807677D01*
X186027249Y-84736026D01*
X185843618Y-84699500D01*
X185843616Y-84699500D01*
X184156384Y-84699500D01*
X184156381Y-84699500D01*
X183972750Y-84736026D01*
X183799770Y-84807677D01*
X183799761Y-84807681D01*
X183644092Y-84911698D01*
X183644088Y-84911701D01*
X183511701Y-85044088D01*
X183511698Y-85044092D01*
X183407681Y-85199761D01*
X183407677Y-85199770D01*
X183336026Y-85372750D01*
X183299500Y-85556381D01*
X181700499Y-85556381D01*
X181663973Y-85372749D01*
X181592322Y-85199769D01*
X181592320Y-85199767D01*
X181592318Y-85199761D01*
X181504614Y-85068505D01*
X181488302Y-85044092D01*
X181355908Y-84911698D01*
X181311559Y-84882065D01*
X181200238Y-84807681D01*
X181200229Y-84807677D01*
X181027249Y-84736026D01*
X180843618Y-84699500D01*
X180843616Y-84699500D01*
X179156384Y-84699500D01*
X179156381Y-84699500D01*
X178972750Y-84736026D01*
X178799770Y-84807677D01*
X178799761Y-84807681D01*
X178644092Y-84911698D01*
X178644088Y-84911701D01*
X178511701Y-85044088D01*
X178511698Y-85044092D01*
X178407681Y-85199761D01*
X178407677Y-85199770D01*
X178336026Y-85372750D01*
X178299500Y-85556381D01*
X178299500Y-85743618D01*
X178336027Y-85927250D01*
X178336027Y-85927252D01*
X178339285Y-85935117D01*
X178344084Y-85996114D01*
X178312113Y-86048282D01*
X178255584Y-86071695D01*
X178247820Y-86072000D01*
X169321091Y-86072000D01*
X169262900Y-86053093D01*
X169226936Y-86003593D01*
X169226936Y-85942407D01*
X169242084Y-85913344D01*
X169362173Y-85754321D01*
X169453082Y-85571750D01*
X169508897Y-85375583D01*
X169527715Y-85172500D01*
X169508897Y-84969417D01*
X169453082Y-84773250D01*
X169362173Y-84590679D01*
X169239264Y-84427921D01*
X169088541Y-84290519D01*
X168915137Y-84183152D01*
X168724956Y-84109476D01*
X168724955Y-84109475D01*
X168724953Y-84109475D01*
X168524476Y-84072000D01*
X168320524Y-84072000D01*
X168120046Y-84109475D01*
X168050132Y-84136559D01*
X167929863Y-84183152D01*
X167756459Y-84290519D01*
X167605737Y-84427920D01*
X167482828Y-84590677D01*
X167482823Y-84590686D01*
X167391919Y-84773247D01*
X167391918Y-84773250D01*
X167336103Y-84969417D01*
X167317285Y-85172500D01*
X167336103Y-85375583D01*
X167391918Y-85571750D01*
X167482827Y-85754321D01*
X167602914Y-85913342D01*
X167622892Y-85971170D01*
X167605063Y-86029701D01*
X167556237Y-86066573D01*
X167523909Y-86072000D01*
X167500111Y-86072000D01*
X167441920Y-86053093D01*
X167430107Y-86043004D01*
X166995498Y-85608395D01*
X166967721Y-85553878D01*
X166970280Y-85511302D01*
X167008897Y-85375583D01*
X167027715Y-85172500D01*
X167008897Y-84969417D01*
X166953082Y-84773250D01*
X166862173Y-84590679D01*
X166739264Y-84427921D01*
X166588541Y-84290519D01*
X166415137Y-84183152D01*
X166224956Y-84109476D01*
X166224955Y-84109475D01*
X166224953Y-84109475D01*
X166024476Y-84072000D01*
X165820524Y-84072000D01*
X165620046Y-84109475D01*
X165550132Y-84136559D01*
X165429863Y-84183152D01*
X165256459Y-84290519D01*
X165105737Y-84427920D01*
X164982828Y-84590677D01*
X164982823Y-84590686D01*
X164891919Y-84773247D01*
X164891918Y-84773250D01*
X164836103Y-84969417D01*
X164817285Y-85172500D01*
X164527715Y-85172500D01*
X164508897Y-84969417D01*
X164453082Y-84773250D01*
X164362173Y-84590679D01*
X164239264Y-84427921D01*
X164088541Y-84290519D01*
X163915137Y-84183152D01*
X163724956Y-84109476D01*
X163724955Y-84109475D01*
X163724953Y-84109475D01*
X163524476Y-84072000D01*
X163320524Y-84072000D01*
X163120046Y-84109475D01*
X163050132Y-84136559D01*
X162929863Y-84183152D01*
X162756459Y-84290519D01*
X162605737Y-84427920D01*
X162482828Y-84590677D01*
X162482823Y-84590686D01*
X162391919Y-84773247D01*
X162391918Y-84773250D01*
X162336103Y-84969417D01*
X162317285Y-85172500D01*
X151578476Y-85172500D01*
X151531128Y-85117857D01*
X151531127Y-85117856D01*
X151526491Y-85112506D01*
X151528524Y-85110743D01*
X151503067Y-85068505D01*
X151500500Y-85046105D01*
X151500500Y-83390057D01*
X151500499Y-83390055D01*
X151480021Y-83313631D01*
X151480019Y-83313627D01*
X151440460Y-83245109D01*
X151384511Y-83189159D01*
X151384511Y-83189160D01*
X148783108Y-80587757D01*
X148755331Y-80533240D01*
X148755120Y-80503664D01*
X148755647Y-80500000D01*
X148735165Y-80357543D01*
X148675377Y-80226627D01*
X148581128Y-80117857D01*
X148581127Y-80117856D01*
X148581126Y-80117855D01*
X148460057Y-80040049D01*
X148460054Y-80040047D01*
X148460053Y-80040047D01*
X148460050Y-80040046D01*
X148321964Y-79999500D01*
X148321961Y-79999500D01*
X148178039Y-79999500D01*
X148178035Y-79999500D01*
X148039949Y-80040046D01*
X148039942Y-80040049D01*
X147918873Y-80117855D01*
X147824622Y-80226628D01*
X147764834Y-80357543D01*
X147744353Y-80499997D01*
X147744353Y-80500002D01*
X147764834Y-80642456D01*
X147824623Y-80773373D01*
X147887425Y-80845851D01*
X147911243Y-80902210D01*
X147897384Y-80961805D01*
X147887426Y-80975512D01*
X147821474Y-81051626D01*
X147761685Y-81182543D01*
X147741204Y-81324997D01*
X144248502Y-81324997D01*
X156990460Y-68583039D01*
X157030022Y-68514516D01*
X157042597Y-68467584D01*
X157075919Y-68416271D01*
X157102456Y-68400895D01*
X157287401Y-68329247D01*
X157476562Y-68212124D01*
X157640981Y-68062236D01*
X157775058Y-67884689D01*
X157874229Y-67685528D01*
X157892189Y-67622405D01*
X157926299Y-67571612D01*
X157983751Y-67550568D01*
X157987409Y-67550500D01*
X162012591Y-67550500D01*
X162070782Y-67569407D01*
X162106746Y-67618907D01*
X162107803Y-67622378D01*
X162125771Y-67685528D01*
X162224942Y-67884689D01*
X162359019Y-68062236D01*
X162523438Y-68212124D01*
X162712599Y-68329247D01*
X162920060Y-68409618D01*
X163138757Y-68450500D01*
X163361243Y-68450500D01*
X163579940Y-68409618D01*
X163787401Y-68329247D01*
X163976562Y-68212124D01*
X164140981Y-68062236D01*
X164275058Y-67884689D01*
X164374229Y-67685528D01*
X164435115Y-67471536D01*
X164455643Y-67250000D01*
X164435115Y-67028464D01*
X164374229Y-66814472D01*
X164275058Y-66615311D01*
X164140981Y-66437764D01*
X164124413Y-66422660D01*
X164094148Y-66369486D01*
X164100919Y-66308677D01*
X164142139Y-66263460D01*
X164191110Y-66250500D01*
X170184521Y-66250500D01*
X170242712Y-66269407D01*
X170254525Y-66279496D01*
X170663071Y-66688042D01*
X170690848Y-66742559D01*
X170681688Y-66802174D01*
X170642392Y-66881093D01*
X170625771Y-66914472D01*
X170564885Y-67128464D01*
X170544357Y-67350000D01*
X170564885Y-67571536D01*
X170625771Y-67785528D01*
X170724942Y-67984689D01*
X170859019Y-68162236D01*
X171023438Y-68312124D01*
X171212599Y-68429247D01*
X171420060Y-68509618D01*
X171638757Y-68550500D01*
X171861243Y-68550500D01*
X172079940Y-68509618D01*
X172287401Y-68429247D01*
X172476562Y-68312124D01*
X172640981Y-68162236D01*
X172775058Y-67984689D01*
X172874229Y-67785528D01*
X172935115Y-67571536D01*
X172955643Y-67350000D01*
X177044357Y-67350000D01*
X177064885Y-67571536D01*
X177125771Y-67785528D01*
X177224942Y-67984689D01*
X177359019Y-68162236D01*
X177523438Y-68312124D01*
X177712599Y-68429247D01*
X177920060Y-68509618D01*
X178138757Y-68550500D01*
X178361243Y-68550500D01*
X178579940Y-68509618D01*
X178787401Y-68429247D01*
X178976562Y-68312124D01*
X179140981Y-68162236D01*
X179275058Y-67984689D01*
X179374229Y-67785528D01*
X179435115Y-67571536D01*
X179455643Y-67350000D01*
X179435115Y-67128464D01*
X179374229Y-66914472D01*
X179275058Y-66715311D01*
X179140981Y-66537764D01*
X178976562Y-66387876D01*
X178787401Y-66270753D01*
X178579940Y-66190382D01*
X178579939Y-66190381D01*
X178579937Y-66190381D01*
X178361243Y-66149500D01*
X178138757Y-66149500D01*
X177920062Y-66190381D01*
X177858328Y-66214297D01*
X177712599Y-66270753D01*
X177581154Y-66352140D01*
X177523438Y-66387876D01*
X177359020Y-66537763D01*
X177224943Y-66715309D01*
X177224938Y-66715318D01*
X177125772Y-66914469D01*
X177125771Y-66914472D01*
X177064885Y-67128464D01*
X177044357Y-67350000D01*
X172955643Y-67350000D01*
X172935115Y-67128464D01*
X172874229Y-66914472D01*
X172775058Y-66715311D01*
X172640981Y-66537764D01*
X172476562Y-66387876D01*
X172287401Y-66270753D01*
X172079940Y-66190382D01*
X172079939Y-66190381D01*
X172079937Y-66190381D01*
X171861243Y-66149500D01*
X171638757Y-66149500D01*
X171420062Y-66190381D01*
X171212596Y-66270754D01*
X171212589Y-66270758D01*
X171207083Y-66274167D01*
X171147654Y-66288722D01*
X171091020Y-66265566D01*
X171084979Y-66260008D01*
X170534511Y-65709540D01*
X170534508Y-65709538D01*
X170517121Y-65699499D01*
X170517121Y-65699500D01*
X170465989Y-65669979D01*
X170465988Y-65669978D01*
X170465987Y-65669978D01*
X170389564Y-65649500D01*
X170389562Y-65649500D01*
X156171960Y-65649500D01*
X156171957Y-65649500D01*
X156095534Y-65669978D01*
X156044401Y-65699500D01*
X156044400Y-65699499D01*
X156027013Y-65709538D01*
X155215489Y-66521062D01*
X155215488Y-66521061D01*
X155159539Y-66577011D01*
X155119980Y-66645529D01*
X155119978Y-66645533D01*
X155099500Y-66721957D01*
X155099500Y-68983049D01*
X155080593Y-69041240D01*
X155070504Y-69053053D01*
X153469504Y-70654053D01*
X153414987Y-70681830D01*
X153354555Y-70672259D01*
X153311290Y-70628994D01*
X153300500Y-70584049D01*
X153300500Y-66453893D01*
X153319407Y-66395702D01*
X153326741Y-66387711D01*
X153326491Y-66387494D01*
X153331128Y-66382143D01*
X153425377Y-66273373D01*
X153485165Y-66142457D01*
X153505647Y-66000000D01*
X153504893Y-65994758D01*
X153485165Y-65857543D01*
X153425377Y-65726628D01*
X153425377Y-65726627D01*
X153331128Y-65617857D01*
X153331127Y-65617856D01*
X153331126Y-65617855D01*
X153210057Y-65540049D01*
X153210054Y-65540047D01*
X153210053Y-65540047D01*
X153210050Y-65540046D01*
X153071964Y-65499500D01*
X153071961Y-65499500D01*
X152928039Y-65499500D01*
X152928035Y-65499500D01*
X152789949Y-65540046D01*
X152789942Y-65540049D01*
X152668873Y-65617855D01*
X152574622Y-65726628D01*
X152514834Y-65857543D01*
X152494353Y-65999997D01*
X152494353Y-66000002D01*
X152514834Y-66142456D01*
X152547645Y-66214300D01*
X152574623Y-66273373D01*
X152667708Y-66380800D01*
X152673509Y-66387494D01*
X152671471Y-66389259D01*
X152696925Y-66431458D01*
X152699500Y-66453893D01*
X152699500Y-67711671D01*
X152680593Y-67769862D01*
X152631093Y-67805826D01*
X152569907Y-67805826D01*
X152520407Y-67769862D01*
X152506345Y-67742264D01*
X152487910Y-67685528D01*
X152467600Y-67623019D01*
X152364845Y-67421350D01*
X152231807Y-67238239D01*
X152071761Y-67078193D01*
X151888650Y-66945155D01*
X151888649Y-66945154D01*
X151888647Y-66945153D01*
X151686981Y-66842400D01*
X151471716Y-66772456D01*
X151248172Y-66737050D01*
X151248169Y-66737050D01*
X151021831Y-66737050D01*
X151021828Y-66737050D01*
X150798283Y-66772456D01*
X150583018Y-66842400D01*
X150381352Y-66945153D01*
X150198240Y-67078192D01*
X150038192Y-67238240D01*
X149905153Y-67421352D01*
X149802400Y-67623018D01*
X149732456Y-67838283D01*
X149697050Y-68061828D01*
X149697050Y-68288171D01*
X149732456Y-68511716D01*
X149802400Y-68726981D01*
X149881298Y-68881829D01*
X149905155Y-68928650D01*
X150038193Y-69111761D01*
X150198239Y-69271807D01*
X150381350Y-69404845D01*
X150583019Y-69507600D01*
X150798279Y-69577542D01*
X150798280Y-69577542D01*
X150798283Y-69577543D01*
X151021828Y-69612950D01*
X151021831Y-69612950D01*
X151248172Y-69612950D01*
X151471716Y-69577543D01*
X151471717Y-69577542D01*
X151471721Y-69577542D01*
X151686981Y-69507600D01*
X151888650Y-69404845D01*
X152071761Y-69271807D01*
X152231807Y-69111761D01*
X152364845Y-68928650D01*
X152467600Y-68726981D01*
X152506345Y-68607734D01*
X152542309Y-68558235D01*
X152600500Y-68539328D01*
X152658691Y-68558235D01*
X152694655Y-68607735D01*
X152699500Y-68638328D01*
X152699500Y-70534520D01*
X152680593Y-70592711D01*
X152670504Y-70604524D01*
X146304524Y-76970504D01*
X146250007Y-76998281D01*
X146234520Y-76999500D01*
X146128035Y-76999500D01*
X145989949Y-77040046D01*
X145989942Y-77040049D01*
X145868876Y-77117854D01*
X145868871Y-77117858D01*
X145827736Y-77165331D01*
X145775340Y-77196927D01*
X145752917Y-77199500D01*
X143690479Y-77199500D01*
X143632288Y-77180593D01*
X143620475Y-77170504D01*
X142655546Y-76205575D01*
X142627769Y-76151058D01*
X142627558Y-76121482D01*
X142630647Y-76100000D01*
X142610165Y-75957543D01*
X142550377Y-75826627D01*
X142456128Y-75717857D01*
X142456127Y-75717856D01*
X142456126Y-75717855D01*
X142335057Y-75640049D01*
X142335054Y-75640047D01*
X142335053Y-75640047D01*
X142335050Y-75640046D01*
X142196964Y-75599500D01*
X142196961Y-75599500D01*
X142053039Y-75599500D01*
X142053035Y-75599500D01*
X141914949Y-75640046D01*
X141914942Y-75640049D01*
X141793873Y-75717855D01*
X141699622Y-75826628D01*
X141639834Y-75957543D01*
X141619353Y-76099997D01*
X141619353Y-76100002D01*
X141639834Y-76242456D01*
X141699622Y-76373371D01*
X141699623Y-76373373D01*
X141793872Y-76482143D01*
X141793873Y-76482144D01*
X141914942Y-76559950D01*
X141914947Y-76559953D01*
X142021403Y-76591211D01*
X142053035Y-76600499D01*
X142053036Y-76600499D01*
X142053039Y-76600500D01*
X142053041Y-76600500D01*
X142159521Y-76600500D01*
X142217712Y-76619407D01*
X142229525Y-76629496D01*
X143284540Y-77684511D01*
X143284539Y-77684511D01*
X143340489Y-77740460D01*
X143409007Y-77780019D01*
X143409011Y-77780021D01*
X143485435Y-77800499D01*
X143485437Y-77800500D01*
X143485438Y-77800500D01*
X145752917Y-77800500D01*
X145811108Y-77819407D01*
X145827733Y-77834667D01*
X145868872Y-77882143D01*
X145936719Y-77925745D01*
X145992313Y-77961474D01*
X146031045Y-78008840D01*
X146034538Y-78069926D01*
X146008794Y-78114762D01*
X144553054Y-79570504D01*
X144498537Y-79598281D01*
X144483050Y-79599500D01*
X138447083Y-79599500D01*
X138388892Y-79580593D01*
X138372264Y-79565331D01*
X138331128Y-79517857D01*
X138298182Y-79496684D01*
X138210057Y-79440049D01*
X138210054Y-79440047D01*
X138210053Y-79440047D01*
X138210050Y-79440046D01*
X138071964Y-79399500D01*
X138071961Y-79399500D01*
X137928039Y-79399500D01*
X137928035Y-79399500D01*
X137789949Y-79440046D01*
X137789942Y-79440049D01*
X137668873Y-79517855D01*
X137574622Y-79626628D01*
X137514834Y-79757543D01*
X137494353Y-79899997D01*
X110500500Y-79899997D01*
X110500500Y-70099997D01*
X130432004Y-70099997D01*
X130432004Y-70100002D01*
X130452485Y-70242456D01*
X130512273Y-70373371D01*
X130512274Y-70373373D01*
X130606523Y-70482143D01*
X130606524Y-70482144D01*
X130727593Y-70559950D01*
X130727598Y-70559953D01*
X130834054Y-70591211D01*
X130865686Y-70600499D01*
X130865687Y-70600499D01*
X130865690Y-70600500D01*
X130865692Y-70600500D01*
X131009610Y-70600500D01*
X131009612Y-70600500D01*
X131147704Y-70559953D01*
X131147707Y-70559950D01*
X131148813Y-70559447D01*
X131151182Y-70558931D01*
X131154498Y-70557958D01*
X131154567Y-70558195D01*
X131189939Y-70550500D01*
X136647712Y-70550500D01*
X136683083Y-70558195D01*
X136683153Y-70557958D01*
X136686468Y-70558931D01*
X136688838Y-70559447D01*
X136689943Y-70559951D01*
X136689944Y-70559951D01*
X136689947Y-70559953D01*
X136801512Y-70592711D01*
X136828035Y-70600499D01*
X136828036Y-70600499D01*
X136828039Y-70600500D01*
X136828041Y-70600500D01*
X136971959Y-70600500D01*
X136971961Y-70600500D01*
X137110053Y-70559953D01*
X137231128Y-70482143D01*
X137325377Y-70373373D01*
X137385165Y-70242457D01*
X137405647Y-70100000D01*
X137385165Y-69957543D01*
X137325377Y-69826627D01*
X137231128Y-69717857D01*
X137231127Y-69717856D01*
X137231126Y-69717855D01*
X137110057Y-69640049D01*
X137110054Y-69640047D01*
X137110053Y-69640047D01*
X137110050Y-69640046D01*
X136971964Y-69599500D01*
X136971961Y-69599500D01*
X136828039Y-69599500D01*
X136828035Y-69599500D01*
X136689943Y-69640048D01*
X136688838Y-69640553D01*
X136686468Y-69641068D01*
X136683153Y-69642042D01*
X136683083Y-69641804D01*
X136647712Y-69649500D01*
X131189939Y-69649500D01*
X131154567Y-69641804D01*
X131154498Y-69642042D01*
X131151182Y-69641068D01*
X131148813Y-69640553D01*
X131147707Y-69640048D01*
X131147700Y-69640046D01*
X131131256Y-69635217D01*
X131009615Y-69599500D01*
X131009612Y-69599500D01*
X130865690Y-69599500D01*
X130865686Y-69599500D01*
X130727600Y-69640046D01*
X130727593Y-69640049D01*
X130606524Y-69717855D01*
X130512273Y-69826628D01*
X130452485Y-69957543D01*
X130432004Y-70099997D01*
X110500500Y-70099997D01*
X110500500Y-68061828D01*
X146522050Y-68061828D01*
X146522050Y-68288171D01*
X146557456Y-68511716D01*
X146627400Y-68726981D01*
X146706298Y-68881829D01*
X146730155Y-68928650D01*
X146863193Y-69111761D01*
X147023239Y-69271807D01*
X147206350Y-69404845D01*
X147408019Y-69507600D01*
X147623279Y-69577542D01*
X147623280Y-69577542D01*
X147623283Y-69577543D01*
X147846828Y-69612950D01*
X147846831Y-69612950D01*
X148073172Y-69612950D01*
X148296716Y-69577543D01*
X148296717Y-69577542D01*
X148296721Y-69577542D01*
X148511981Y-69507600D01*
X148713650Y-69404845D01*
X148896761Y-69271807D01*
X149056807Y-69111761D01*
X149189845Y-68928650D01*
X149292600Y-68726981D01*
X149362542Y-68511721D01*
X149366569Y-68486296D01*
X149397950Y-68288171D01*
X149397950Y-68061828D01*
X149362543Y-67838283D01*
X149362542Y-67838279D01*
X149292600Y-67623019D01*
X149189845Y-67421350D01*
X149056807Y-67238239D01*
X148896761Y-67078193D01*
X148713650Y-66945155D01*
X148713649Y-66945154D01*
X148713647Y-66945153D01*
X148511981Y-66842400D01*
X148296716Y-66772456D01*
X148073172Y-66737050D01*
X148073169Y-66737050D01*
X147846831Y-66737050D01*
X147846828Y-66737050D01*
X147623283Y-66772456D01*
X147408018Y-66842400D01*
X147206352Y-66945153D01*
X147023240Y-67078192D01*
X146863192Y-67238240D01*
X146730153Y-67421352D01*
X146627400Y-67623018D01*
X146557456Y-67838283D01*
X146522050Y-68061828D01*
X110500500Y-68061828D01*
X110500500Y-66577542D01*
X145309200Y-66577542D01*
X145309200Y-66724457D01*
X145337860Y-66868541D01*
X145337860Y-66868543D01*
X145394078Y-67004266D01*
X145394078Y-67004267D01*
X145434749Y-67065134D01*
X145475699Y-67126420D01*
X145579580Y-67230301D01*
X145701731Y-67311920D01*
X145837458Y-67368140D01*
X145981545Y-67396800D01*
X145981547Y-67396800D01*
X146128453Y-67396800D01*
X146128455Y-67396800D01*
X146272542Y-67368140D01*
X146408269Y-67311920D01*
X146530420Y-67230301D01*
X146634301Y-67126420D01*
X146715920Y-67004269D01*
X146772140Y-66868542D01*
X146800800Y-66724455D01*
X146800800Y-66577545D01*
X146772140Y-66433458D01*
X146738457Y-66352139D01*
X146715921Y-66297733D01*
X146715921Y-66297732D01*
X146684361Y-66250500D01*
X146634301Y-66175580D01*
X146530420Y-66071699D01*
X146408269Y-65990080D01*
X146408268Y-65990079D01*
X146408266Y-65990078D01*
X146272542Y-65933860D01*
X146128457Y-65905200D01*
X146128455Y-65905200D01*
X145981545Y-65905200D01*
X145981542Y-65905200D01*
X145837458Y-65933860D01*
X145837456Y-65933860D01*
X145701733Y-65990078D01*
X145701732Y-65990078D01*
X145579580Y-66071699D01*
X145579576Y-66071702D01*
X145475702Y-66175576D01*
X145475699Y-66175580D01*
X145394078Y-66297732D01*
X145394078Y-66297733D01*
X145337860Y-66433456D01*
X145337860Y-66433458D01*
X145309200Y-66577542D01*
X110500500Y-66577542D01*
X110500500Y-64355253D01*
X132774500Y-64355253D01*
X132774500Y-65994746D01*
X132774501Y-65994758D01*
X132786132Y-66053227D01*
X132786133Y-66053231D01*
X132830448Y-66119552D01*
X132896769Y-66163867D01*
X132941231Y-66172711D01*
X132955241Y-66175498D01*
X132955246Y-66175498D01*
X132955252Y-66175500D01*
X132955253Y-66175500D01*
X134594747Y-66175500D01*
X134594748Y-66175500D01*
X134653231Y-66163867D01*
X134719552Y-66119552D01*
X134763867Y-66053231D01*
X134775500Y-65994748D01*
X134775500Y-65561542D01*
X150389200Y-65561542D01*
X150389200Y-65708457D01*
X150417860Y-65852541D01*
X150417860Y-65852543D01*
X150474078Y-65988266D01*
X150474078Y-65988267D01*
X150514749Y-66049134D01*
X150555699Y-66110420D01*
X150659580Y-66214301D01*
X150781731Y-66295920D01*
X150781732Y-66295920D01*
X150781733Y-66295921D01*
X150786108Y-66297733D01*
X150917458Y-66352140D01*
X151061545Y-66380800D01*
X151061547Y-66380800D01*
X151208453Y-66380800D01*
X151208455Y-66380800D01*
X151352542Y-66352140D01*
X151488269Y-66295920D01*
X151610420Y-66214301D01*
X151714301Y-66110420D01*
X151795920Y-65988269D01*
X151852140Y-65852542D01*
X151880800Y-65708455D01*
X151880800Y-65561545D01*
X151852140Y-65417458D01*
X151795921Y-65281733D01*
X151795921Y-65281732D01*
X151775585Y-65251298D01*
X151714301Y-65159580D01*
X151610420Y-65055699D01*
X151488269Y-64974080D01*
X151488268Y-64974079D01*
X151488266Y-64974078D01*
X151352542Y-64917860D01*
X151208457Y-64889200D01*
X151208455Y-64889200D01*
X151061545Y-64889200D01*
X151061542Y-64889200D01*
X150917458Y-64917860D01*
X150917456Y-64917860D01*
X150781733Y-64974078D01*
X150781732Y-64974078D01*
X150659580Y-65055699D01*
X150659576Y-65055702D01*
X150555702Y-65159576D01*
X150555699Y-65159580D01*
X150474078Y-65281732D01*
X150474078Y-65281733D01*
X150417860Y-65417456D01*
X150417860Y-65417458D01*
X150389200Y-65561542D01*
X134775500Y-65561542D01*
X134775500Y-64545542D01*
X145309200Y-64545542D01*
X145309200Y-64692457D01*
X145337860Y-64836541D01*
X145337860Y-64836543D01*
X145394078Y-64972266D01*
X145394078Y-64972267D01*
X145434749Y-65033134D01*
X145475699Y-65094420D01*
X145579580Y-65198301D01*
X145701731Y-65279920D01*
X145701732Y-65279920D01*
X145701733Y-65279921D01*
X145706108Y-65281733D01*
X145837458Y-65336140D01*
X145981545Y-65364800D01*
X145981547Y-65364800D01*
X146128453Y-65364800D01*
X146128455Y-65364800D01*
X146272542Y-65336140D01*
X146408269Y-65279920D01*
X146530420Y-65198301D01*
X146634301Y-65094420D01*
X146715920Y-64972269D01*
X146772140Y-64836542D01*
X146800800Y-64692455D01*
X146800800Y-64545545D01*
X146772140Y-64401458D01*
X146715921Y-64265733D01*
X146715921Y-64265732D01*
X146666525Y-64191807D01*
X146634301Y-64143580D01*
X146530420Y-64039699D01*
X146408269Y-63958080D01*
X146408268Y-63958079D01*
X146408266Y-63958078D01*
X146272542Y-63901860D01*
X146128457Y-63873200D01*
X146128455Y-63873200D01*
X145981545Y-63873200D01*
X145981542Y-63873200D01*
X145837458Y-63901860D01*
X145837456Y-63901860D01*
X145701733Y-63958078D01*
X145701732Y-63958078D01*
X145579580Y-64039699D01*
X145579576Y-64039702D01*
X145475702Y-64143576D01*
X145475699Y-64143580D01*
X145394078Y-64265732D01*
X145394078Y-64265733D01*
X145337860Y-64401456D01*
X145337860Y-64401458D01*
X145309200Y-64545542D01*
X134775500Y-64545542D01*
X134775500Y-64355252D01*
X134763867Y-64296769D01*
X134719552Y-64230448D01*
X134661723Y-64191807D01*
X134653233Y-64186134D01*
X134653231Y-64186133D01*
X134653228Y-64186132D01*
X134653227Y-64186132D01*
X134594758Y-64174501D01*
X134594748Y-64174500D01*
X132955252Y-64174500D01*
X132955251Y-64174500D01*
X132955241Y-64174501D01*
X132896772Y-64186132D01*
X132896766Y-64186134D01*
X132830451Y-64230445D01*
X132830445Y-64230451D01*
X132786134Y-64296766D01*
X132786132Y-64296772D01*
X132774501Y-64355241D01*
X132774500Y-64355253D01*
X110500500Y-64355253D01*
X110500500Y-62981828D01*
X146522050Y-62981828D01*
X146522050Y-63208171D01*
X146557456Y-63431716D01*
X146557458Y-63431721D01*
X146627400Y-63646981D01*
X146730155Y-63848650D01*
X146863193Y-64031761D01*
X147023239Y-64191807D01*
X147206350Y-64324845D01*
X147408019Y-64427600D01*
X147623279Y-64497542D01*
X147623280Y-64497542D01*
X147623283Y-64497543D01*
X147846828Y-64532950D01*
X147846831Y-64532950D01*
X148073172Y-64532950D01*
X148296716Y-64497543D01*
X148296717Y-64497542D01*
X148296721Y-64497542D01*
X148511981Y-64427600D01*
X148713650Y-64324845D01*
X148896761Y-64191807D01*
X149056807Y-64031761D01*
X149189845Y-63848650D01*
X149292600Y-63646981D01*
X149362542Y-63431721D01*
X149397950Y-63208169D01*
X149397950Y-62981831D01*
X149397950Y-62981828D01*
X149697050Y-62981828D01*
X149697050Y-63208171D01*
X149732456Y-63431716D01*
X149732458Y-63431721D01*
X149802400Y-63646981D01*
X149905155Y-63848650D01*
X150038193Y-64031761D01*
X150198239Y-64191807D01*
X150381350Y-64324845D01*
X150583019Y-64427600D01*
X150798279Y-64497542D01*
X150798280Y-64497542D01*
X150798283Y-64497543D01*
X151021828Y-64532950D01*
X151021831Y-64532950D01*
X151248172Y-64532950D01*
X151471716Y-64497543D01*
X151471717Y-64497542D01*
X151471721Y-64497542D01*
X151686981Y-64427600D01*
X151888650Y-64324845D01*
X152071761Y-64191807D01*
X152231807Y-64031761D01*
X152364845Y-63848650D01*
X152467600Y-63646981D01*
X152537542Y-63431721D01*
X152572950Y-63208169D01*
X152572950Y-62981831D01*
X152537542Y-62758279D01*
X152467600Y-62543019D01*
X152364845Y-62341350D01*
X152231807Y-62158239D01*
X152071761Y-61998193D01*
X151888650Y-61865155D01*
X151888649Y-61865154D01*
X151888647Y-61865153D01*
X151686981Y-61762400D01*
X151471716Y-61692456D01*
X151248172Y-61657050D01*
X151248169Y-61657050D01*
X151021831Y-61657050D01*
X151021828Y-61657050D01*
X150798283Y-61692456D01*
X150583018Y-61762400D01*
X150381352Y-61865153D01*
X150198240Y-61998192D01*
X150038192Y-62158240D01*
X149905153Y-62341352D01*
X149802400Y-62543018D01*
X149732456Y-62758283D01*
X149697050Y-62981828D01*
X149397950Y-62981828D01*
X149362542Y-62758279D01*
X149292600Y-62543019D01*
X149189845Y-62341350D01*
X149056807Y-62158239D01*
X148896761Y-61998193D01*
X148713650Y-61865155D01*
X148713649Y-61865154D01*
X148713647Y-61865153D01*
X148511981Y-61762400D01*
X148296716Y-61692456D01*
X148073172Y-61657050D01*
X148073169Y-61657050D01*
X147846831Y-61657050D01*
X147846828Y-61657050D01*
X147623283Y-61692456D01*
X147408018Y-61762400D01*
X147206352Y-61865153D01*
X147023240Y-61998192D01*
X146863192Y-62158240D01*
X146730153Y-62341352D01*
X146627400Y-62543018D01*
X146557456Y-62758283D01*
X146522050Y-62981828D01*
X110500500Y-62981828D01*
X110500500Y-60599500D01*
X110519407Y-60541309D01*
X110568907Y-60505345D01*
X110599500Y-60500500D01*
X189400500Y-60500500D01*
X189458691Y-60519407D01*
G37*
%TD.AperFunction*%
%TD*%
M02*
